<?xml version="1.0" encoding="UTF-8" standalone="no"?>
<svg width="307px" height="188px" viewBox="0 0 307 188" version="1.1" xmlns="http://www.w3.org/2000/svg" xmlns:xlink="http://www.w3.org/1999/xlink">
    <!-- Generator: Sketch 50.2 (55047) - http://www.bohemiancoding.com/sketch -->
    <title>background1</title>
    <desc>Created with Sketch.</desc>
    <defs>
        <linearGradient x1="50%" y1="0%" x2="50%" y2="100%" id="linearGradient-1">
            <stop stop-color="#FAD961" offset="0%"></stop>
            <stop stop-color="#F76B1C" offset="100%"></stop>
        </linearGradient>
    </defs>
    <g id="Page-1" stroke="none" stroke-width="1" fill="none" fill-rule="evenodd">
        <g id="background1" fill="url(#linearGradient-1)" fill-rule="nonzero">
            <path d="M2.84217094e-14,0 L307,0 L307,167.368421 C284.823514,189.571521 250.907312,142.394119 204.666667,167.368421 C166.304132,188.087802 133.869737,188.967709 102.333333,167.368421 C66.6565629,142.933395 29.2139879,196.617468 2.84217094e-14,167.368421 L2.84217094e-14,0 Z" id="Rectangle" style="mix-blend-mode: multiply;"></path>
            <path d="M2.84217094e-14,0 L307,0 L307,167.368421 C284.823514,189.571521 247.980161,193.230541 204.666667,167.368421 C171.031473,147.285133 136.69791,147.285133 102.333333,167.368421 C61.2615721,191.371511 29.2139879,196.617468 2.84217094e-14,167.368421 L2.84217094e-14,0 Z" id="Rectangle" style="mix-blend-mode: multiply;"></path>
        </g>
    </g>
</svg>