<?xml version="1.0" encoding="UTF-8" standalone="no"?>
<svg width="279px" height="210px" viewBox="0 0 279 210" version="1.1" xmlns="http://www.w3.org/2000/svg" xmlns:xlink="http://www.w3.org/1999/xlink">
    <!-- Generator: Sketch 50.2 (55047) - http://www.bohemiancoding.com/sketch -->
    <title>Group</title>
    <desc>Created with Sketch.</desc>
    <defs>
        <linearGradient x1="29.5110887%" y1="54.453125%" x2="97.7542563%" y2="96.5513393%" id="linearGradient-1">
            <stop stop-color="#FAD961" offset="0%"></stop>
            <stop stop-color="#F76B1C" offset="100%"></stop>
        </linearGradient>
        <linearGradient x1="100%" y1="66.8887868%" x2="0%" y2="79.6973477%" id="linearGradient-2">
            <stop stop-color="#36EB8E" offset="0%"></stop>
            <stop stop-color="#16B52E" offset="100%"></stop>
        </linearGradient>
        <linearGradient x1="0%" y1="30.6146516%" x2="95.9677419%" y2="100%" id="linearGradient-3">
            <stop stop-color="#61E1FA" offset="0%"></stop>
            <stop stop-color="#1714A2" offset="100%"></stop>
        </linearGradient>
    </defs>
    <g id="Page-1" stroke="none" stroke-width="1" fill="none" fill-rule="evenodd">
        <g id="Group">
            <path d="M279,2.84217094e-14 L279,210 L-1.13686838e-13,210 L-1.13686838e-13,180.868828 C163.917969,168.308594 133.707031,74.8359375 279,2.84217094e-14 Z" id="Rectangle" fill="url(#linearGradient-1)" style="mix-blend-mode: hard-light;"></path>
            <path d="M279,73 L279,210 L-1.13686838e-13,210 L-1.13686838e-13,149.868828 C150.269531,210 192.488281,107.121094 279,73 Z" id="Rectangle" fill="url(#linearGradient-2)" style="mix-blend-mode: hard-light;"></path>
            <path d="M279,168 L279,210 L-1.13686838e-13,210 L-1.13686838e-13,127.868828 C80.9296875,74.9140625 192.488281,202.121094 279,168 Z" id="Rectangle" fill="url(#linearGradient-3)" style="mix-blend-mode: hard-light;"></path>
        </g>
    </g>
</svg>