<?xml version="1.0" encoding="UTF-8" standalone="no"?>
<svg width="279px" height="161px" viewBox="0 0 279 161" version="1.1" xmlns="http://www.w3.org/2000/svg" xmlns:xlink="http://www.w3.org/1999/xlink">
    <!-- Generator: Sketch 50.2 (55047) - http://www.bohemiancoding.com/sketch -->
    <title>Group</title>
    <desc>Created with Sketch.</desc>
    <defs>
        <linearGradient x1="29.5110887%" y1="54.453125%" x2="97.7542563%" y2="96.5513393%" id="linearGradient-1">
            <stop stop-color="#FAD961" offset="0%"></stop>
            <stop stop-color="#F76B1C" offset="100%"></stop>
        </linearGradient>
        <linearGradient x1="50%" y1="0%" x2="50%" y2="100%" id="linearGradient-2">
            <stop stop-color="#FAD961" offset="0%"></stop>
            <stop stop-color="#F76B1C" offset="100%"></stop>
        </linearGradient>
    </defs>
    <g id="Page-1" stroke="none" stroke-width="1" fill="none" fill-rule="evenodd">
        <g id="Group">
            <path d="M279,51 L279,161 L-1.13686838e-13,161 L-1.13686838e-13,130.868828 C67.3632812,17.3789063 176.726562,119.976562 279,51 Z" id="Rectangle" fill="url(#linearGradient-1)" style="mix-blend-mode: hard-light;"></path>
            <path d="M279,-1.70530257e-13 L279,161 L-1.13686838e-13,161 L-1.13686838e-13,130.868828 C62.9765625,-7.96140931e-13 177.398438,93.0742188 279,-1.70530257e-13 Z" id="Rectangle" fill="url(#linearGradient-2)" style="mix-blend-mode: hard-light;"></path>
            <path d="M279,89 L279,161 L-1.13686838e-13,161 L-1.13686838e-13,130.868828 C106.082031,66.0039062 177.210938,147.25 279,89 Z" id="Rectangle" fill="url(#linearGradient-2)" style="mix-blend-mode: hard-light;"></path>
        </g>
    </g>
</svg>