<?xml version="1.0" encoding="UTF-8" standalone="no"?>
<svg width="256px" height="224px" viewBox="0 0 256 224" version="1.1" xmlns="http://www.w3.org/2000/svg" xmlns:xlink="http://www.w3.org/1999/xlink">
    <!-- Generator: Sketch 50.2 (55047) - http://www.bohemiancoding.com/sketch -->
    <title>social-twitter</title>
    <desc>Created with Sketch.</desc>
    <defs></defs>
    <g id="Page-1" stroke="none" stroke-width="1" fill="none" fill-rule="evenodd">
        <g id="social-twitter" transform="translate(-1.000000, 0.000000)" fill="#ffffff" fill-rule="nonzero">
            <path d="M257,26.922 C252.687,29.484 239.752,34.593 227.687,35.875 C235.423,31.384 246.875,16.672 249.703,4.985 C242.268,10.094 225.187,17.547 216.753,17.547 C216.753,17.547 216.753,17.57 216.769,17.586 C207.141,6.75 193.608,0 178.577,0 C149.423,0 125.767,25.461 125.767,56.875 C125.767,61.235 126.248,65.47 127.124,69.547 L127.107,69.547 C87.545,68.453 41.296,47.101 15.233,10.547 C-0.767,40.399 13.077,73.593 31.248,85.688 C25.045,86.204 13.577,84.922 8.187,79.281 C7.812,99.078 16.671,125.329 48.922,134.844 C42.701,138.454 31.732,137.423 26.938,136.625 C28.625,153.375 50.375,175.248 74.14,175.248 C65.67,185.782 36.767,204.954 0.999,198.844 C25.298,214.782 53.625,224 83.608,224 C168.813,224 234.984,149.641 231.422,57.907 C231.422,57.797 231.391,57.688 231.391,57.594 C231.391,57.344 231.422,57.094 231.422,56.875 C231.422,56.594 231.391,56.313 231.391,56.016 C239.141,50.328 249.546,40.234 257,26.922 Z" id="Shape"></path>
        </g>
    </g>
</svg>