<?xml version="1.0" encoding="UTF-8" standalone="no"?>
<svg width="194px" height="77px" viewBox="0 0 194 77" version="1.1" xmlns="http://www.w3.org/2000/svg" xmlns:xlink="http://www.w3.org/1999/xlink">
    <!-- Generator: Sketch 50.2 (55047) - http://www.bohemiancoding.com/sketch -->
    <title>logo-colorful</title>
    <desc>Created with Sketch.</desc>
    <defs>
        <path d="M13.58,17.4 C14.5000046,16.5599958 15.4699949,15.7600038 16.49,15 C17.5100051,14.2399962 18.5399948,13.5000036 19.58,12.78 C20.180003,12.3399978 20.7999968,11.9000022 21.44,11.46 C22.0800032,11.0199978 22.7399966,10.6600014 23.42,10.38 C24.3400046,10.0599984 25.2799952,10.0599984 26.24,10.38 C26.440001,10.4200002 26.5999994,10.4599998 26.72,10.5 C26.8400006,10.5400002 26.9799992,10.5999996 27.14,10.68 C27.340001,10.7600004 27.4799996,10.9099989 27.56,11.13 C27.6400004,11.3500011 27.5400014,11.4999996 27.26,11.58 C26.7399974,11.7400008 26.2400024,12.0299979 25.76,12.45 C25.2799976,12.8700021 24.840002,13.2399984 24.44,13.56 C23.8799972,14.0000022 23.3500025,14.4399978 22.85,14.88 C22.3499975,15.3200022 21.8400026,15.7799976 21.32,16.26 C19.31999,18.060009 17.4500087,19.9899897 15.71,22.05 C13.9699913,24.1100103 12.400007,26.2799886 11,28.56 C9.4799924,30.8400114 8.120006,33.2299875 6.92,35.73 C5.719994,38.2300125 4.7800034,40.7999868 4.1,43.44 C3.9399992,43.9600026 3.8100005,44.4599976 3.71,44.94 C3.6099995,45.4200024 3.5400002,45.9399972 3.5,46.5 C3.5,46.700001 3.4900001,46.9099989 3.47,47.13 C3.4499999,47.3500011 3.4599998,47.559999 3.5,47.76 C3.5,47.8800006 3.5199998,48.0199992 3.56,48.18 C3.6000002,48.3400008 3.6399998,48.4799994 3.68,48.6 C3.9200012,48.6800004 4.2199982,48.620001 4.58,48.42 C4.9400018,48.219999 5.219999,48.0600006 5.42,47.94 C6.1000034,47.539998 6.7299971,47.1000024 7.31,46.62 C7.8900029,46.1399976 8.4599972,45.6400026 9.02,45.12 C11.1400106,43.11999 13.1599904,40.9400118 15.08,38.58 L17.78,35.28 C18.1000016,34.5199962 18.4199984,33.7800036 18.74,33.06 L19.7,30.9 C20.2600028,29.6599938 20.8699967,28.4300061 21.53,27.21 C22.1900033,25.9899939 22.9799954,24.8600052 23.9,23.82 C24.1400012,23.5399986 24.4199984,23.2700013 24.74,23.01 C25.0600016,22.7499987 25.3899983,22.5600006 25.73,22.44 C26.0700017,22.3199994 26.4099983,22.2999996 26.75,22.38 C27.0900017,22.4600004 27.3999986,22.6799982 27.68,23.04 C28.0000016,23.440002 28.1200004,23.8799976 28.04,24.36 C27.9599996,24.8400024 27.8400008,25.279998 27.68,25.68 C27.479999,26.3200032 27.2100017,26.9299971 26.87,27.51 C26.5299983,28.0900029 26.1800018,28.6599972 25.82,29.22 C23.6599892,32.820018 21.3200126,36.1599846 18.8,39.24 C18.399998,40.240005 18.0200018,41.2199952 17.66,42.18 C17.2999982,43.1400048 16.9600016,44.1399948 16.64,45.18 C16.439999,45.8600034 16.2700007,46.5199968 16.13,47.16 C15.9899993,47.8000032 15.8800004,48.4599966 15.8,49.14 C15.6799994,49.740003 15.62,50.3999964 15.62,51.12 C15.6600002,51.2800008 15.7199996,51.459999 15.8,51.66 C15.8800004,51.860001 15.92,52.0199994 15.92,52.14 L15.86,52.14 C16.1000012,52.2600006 16.3599986,52.2800004 16.64,52.2 C16.9200014,52.1199996 17.1799988,52.0400004 17.42,51.96 C18.0600032,51.7199988 18.6699971,51.400002 19.25,51 C19.8300029,50.599998 20.3999972,50.1800022 20.96,49.74 C22.0000052,48.939996 22.9899953,48.0700047 23.93,47.13 C24.8700047,46.1899953 25.7999954,45.220005 26.72,44.22 C28.5600092,42.0999894 30.2999918,39.9300111 31.94,37.71 C33.5800082,35.4899889 35.1599924,33.2000118 36.68,30.84 C38.7600104,27.5999838 40.7399906,24.3300165 42.62,21.03 C44.5000094,17.7299835 46.2799916,14.3400174 47.96,10.86 C48.560003,9.659994 49.1699969,8.4700059 49.79,7.29 C50.4100031,6.1099941 50.9999972,4.9400058 51.56,3.78 C52.1200028,2.579994 52.599998,1.4200056 53,0.3 C53.0400002,0.099999 53.0899997,-0.1699983 53.15,-0.51 C53.2100003,-0.8500017 53.2899995,-1.1799984 53.39,-1.5 C53.4900005,-1.8200016 53.6299991,-2.0899989 53.81,-2.31 C53.9900009,-2.5300011 54.2399984,-2.64 54.56,-2.64 C55.0000022,-2.64 55.2899993,-2.4800016 55.43,-2.16 C55.5700007,-1.8399984 55.6999994,-1.5200016 55.82,-1.2 C56.220002,-0.0399942 56.3000012,1.0599948 56.06,2.1 C55.8199988,3.3800064 55.4100029,4.5899943 54.83,5.73 C54.2499971,6.8700057 53.6800028,7.9999944 53.12,9.12 C51.8399936,11.6400126 50.5600064,14.1399876 49.28,16.62 C47.9999936,19.1000124 46.6200074,21.539988 45.14,23.94 C43.739993,26.340012 42.2500079,28.6999884 40.67,31.02 C39.0899921,33.3400116 37.400009,35.6199888 35.6,37.86 C33.9199916,40.0200108 32.1700091,42.1199898 30.35,44.16 C28.5299909,46.2000102 26.6000102,48.119991 24.56,49.92 C23.5999952,50.720004 22.5900053,51.4999962 21.53,52.26 C20.4699947,53.0200038 19.340006,53.6199978 18.14,54.06 C17.5799972,54.3000012 16.900004,54.4299999 16.1,54.45 C15.299996,54.4700001 14.6800022,54.180003 14.24,53.58 C13.8799982,53.1399978 13.6300007,52.6300029 13.49,52.05 C13.3499993,51.4699971 13.2999998,50.8600032 13.34,50.22 C13.3800002,49.5799968 13.4599994,48.9500031 13.58,48.33 C13.7000006,47.7099969 13.8199994,47.1400026 13.94,46.62 C14.0200004,46.1799978 14.1099995,45.7700019 14.21,45.39 C14.3100005,45.0099981 14.4199994,44.6000022 14.54,44.16 C13.2599936,45.560007 11.9400068,46.8199944 10.58,47.94 C9.6599954,48.6200034 8.6200058,49.2999966 7.46,49.98 C6.2999942,50.6600034 5.1400058,51.0399996 3.98,51.12 C3.0999956,51.1600002 2.4300023,50.9600022 1.97,50.52 C1.5099977,50.0799978 1.2000008,49.5100035 1.04,48.81 C0.8799992,48.1099965 0.8399996,47.3100045 0.92,46.41 C1.0000004,45.5099955 1.139999,44.6200044 1.34,43.74 C1.540001,42.8599956 1.7499989,42.0400038 1.97,41.28 C2.1900011,40.5199962 2.3599994,39.9200022 2.48,39.48 C3.6400058,36.0399828 5.1299909,32.7600156 6.95,29.64 C8.7700091,26.5199844 10.879988,23.5800138 13.28,20.82 C13.8400028,20.1799968 14.4099971,19.5500031 14.99,18.93 C15.5700029,18.3099969 16.1799968,17.700003 16.82,17.1 C16.619999,17.1800004 16.4400008,17.2799994 16.28,17.4 C16.1199992,17.5200006 15.940001,17.6399994 15.74,17.76 C15.4999988,17.8400004 15.180002,18.0199986 14.78,18.3 C14.379998,18.5800014 14.0400014,18.6800004 13.76,18.6 C13.3999982,18.5199996 13.22,18.3500013 13.22,18.09 C13.22,17.8299987 13.3399988,17.600001 13.58,17.4 Z M36.92,46.26 C37.120001,45.6999972 37.4399978,45.2700015 37.88,44.97 C38.3200022,44.6699985 38.7999974,44.4000012 39.32,44.16 C39.6000014,44.0399994 39.8699987,43.9300005 40.13,43.83 C40.3900013,43.7299995 40.6399988,43.6200006 40.88,43.5 L40.76,43.26 C40.3999982,42.0199938 40.4999972,40.7800062 41.06,39.54 C41.6200028,38.2999938 42.299996,37.2200046 43.1,36.3 C43.4600018,35.8599978 43.8699977,35.4200022 44.33,34.98 C44.7900023,34.5399978 45.2699975,34.1400018 45.77,33.78 C46.2700025,33.4199982 46.7999972,33.1100013 47.36,32.85 C47.9200028,32.5899987 48.499997,32.4400002 49.1,32.4 C49.700003,32.3199996 50.2299977,32.379999 50.69,32.58 C51.1500023,32.780001 51.5099987,33.0699981 51.77,33.45 C52.0300013,33.8300019 52.1799998,34.2799974 52.22,34.8 C52.2600002,35.3200026 52.1600012,35.8399974 51.92,36.36 C51.4799978,37.560006 50.7800048,38.6299953 49.82,39.57 C48.8599952,40.5100047 47.880005,41.379996 46.88,42.18 C46.3599974,42.580002 45.8600024,42.9499983 45.38,43.29 C44.8999976,43.6300017 44.4000026,43.9599984 43.88,44.28 C44.2400018,44.4000006 44.6299979,44.4200004 45.05,44.34 C45.4700021,44.2599996 45.8899979,44.1300009 46.31,43.95 C46.7300021,43.7699991 47.139998,43.5700011 47.54,43.35 C47.940002,43.1299989 48.2599988,42.9400008 48.5,42.78 C49.6200056,42.1399968 50.6999948,41.4300039 51.74,40.65 C52.7800052,39.8699961 53.7599954,39.0400044 54.68,38.16 L56.54,36.36 C56.6200004,36.2799996 56.7299993,36.2499999 56.87,36.27 C57.0100007,36.2900001 57.0999998,36.3799992 57.14,36.54 C57.14,36.7000008 57.0700007,36.8699991 56.93,37.05 C56.7899993,37.2300009 56.6800004,37.3599996 56.6,37.44 C55.999997,38.440005 55.2900041,39.3599958 54.47,40.2 C53.6499959,41.0400042 52.7800046,41.8399962 51.86,42.6 C51.259997,43.0800024 50.5400042,43.5899973 49.7,44.13 C48.8599958,44.6700027 47.9700047,45.1199982 47.03,45.48 C46.0899953,45.8400018 45.1800044,46.0399998 44.3,46.08 C43.4199956,46.1200002 42.6600032,45.8600028 42.02,45.3 C41.7399986,45.4600008 41.4700013,45.6099993 41.21,45.75 C40.9499987,45.8900007 40.6800014,46.0199994 40.4,46.14 C39.9199976,46.3800012 39.4500023,46.599999 38.99,46.8 C38.5299977,47.000001 38.0600024,47.199999 37.58,47.4 C37.0999976,47.5600008 36.8400002,47.4900015 36.8,47.19 C36.7599998,46.8899985 36.7999994,46.5800016 36.92,46.26 Z M45.26,36.84 C44.9399984,37.1600016 44.6000018,37.5499977 44.24,38.01 C43.8799982,38.4700023 43.5700013,38.9499975 43.31,39.45 C43.0499987,39.9500025 42.8400008,40.4699973 42.68,41.01 C42.5199992,41.5500027 42.4999994,42.0599976 42.62,42.54 L43.4,42.06 C44.600006,41.259996 45.8099939,40.3500051 47.03,39.33 C48.2500061,38.3099949 49.1999966,37.1600064 49.88,35.88 C50.080001,35.4399978 50.1600002,35.0700015 50.12,34.77 C50.0799998,34.4699985 49.760003,34.3799994 49.16,34.5 C48.4399964,34.5800004 47.7500033,34.8599976 47.09,35.34 C46.4299967,35.8200024 45.8200028,36.3199974 45.26,36.84 Z M56.66,40.32 C56.259998,41.3600052 56.0400002,42.3199956 56,43.2 C55.9199996,43.8800034 56.0699981,44.2699995 56.45,44.37 C56.8300019,44.4700005 57.2999972,44.3800014 57.86,44.1 C58.5400034,43.7799984 59.1599972,43.4100021 59.72,42.99 C60.2800028,42.5699979 60.8199974,42.1200024 61.34,41.64 C62.1800042,40.839996 63.0299957,39.940005 63.89,38.94 C64.7500043,37.939995 65.3199986,36.8600058 65.6,35.7 C65.7200006,35.2599978 65.7200006,34.840002 65.6,34.44 C65.5199996,34.2799992 65.4000008,34.1700003 65.24,34.11 C65.0799992,34.0499997 64.9600004,33.920001 64.88,33.72 C64.7999996,33.4799988 64.8299993,33.3200004 64.97,33.24 C65.1100007,33.1599996 65.279999,33.12 65.48,33.12 C65.680001,33.12 65.8899989,33.1499997 66.11,33.21 C66.3300011,33.2700003 66.4799996,33.3199998 66.56,33.36 C67.160003,33.7200018 67.5399992,34.1699973 67.7,34.71 C67.8600008,35.2500027 67.9000004,35.8299969 67.82,36.45 C67.7399996,37.0700031 67.5600014,37.679997 67.28,38.28 C66.9999986,38.880003 66.7200014,39.379998 66.44,39.78 C65.7199964,40.8200052 64.8800048,41.7499959 63.92,42.57 C62.9599952,43.3900041 61.9400054,44.1399966 60.86,44.82 C60.459998,45.0600012 59.9800028,45.3299985 59.42,45.63 C58.8599972,45.9300015 58.2900029,46.1499993 57.71,46.29 C57.1299971,46.4300007 56.5600028,46.4600004 56,46.38 C55.4399972,46.2999996 54.9800018,45.9800028 54.62,45.42 C54.2599982,44.9399976 54.0600002,44.3800032 54.02,43.74 C53.9799998,43.0999968 54.0299993,42.4500033 54.17,41.79 C54.3100007,41.1299967 54.4899989,40.4900031 54.71,39.87 C54.9300011,39.2499969 55.139999,38.7000024 55.34,38.22 C55.8200024,36.9399936 56.3799968,35.7200058 57.02,34.56 C57.6600032,33.3999942 58.3599962,32.2400058 59.12,31.08 C60.6000074,28.8399888 62.2299911,26.6600106 64.01,24.54 C65.7900089,22.4199894 67.7599892,20.560008 69.92,18.96 C70.3600022,18.5999982 70.8199976,18.2700015 71.3,17.97 C71.7800024,17.6699985 72.2799974,17.3600016 72.8,17.04 C73.0800014,16.8799992 73.3899983,16.7900001 73.73,16.77 C74.0700017,16.7499999 74.3799986,16.8199992 74.66,16.98 C75.1400024,17.3400018 75.3700001,17.7699975 75.35,18.27 C75.3299999,18.7700025 75.1800014,19.2799974 74.9,19.8 C74.6199986,20.3200026 74.2900019,20.8299975 73.91,21.33 C73.5299981,21.8300025 73.240001,22.2399984 73.04,22.56 C71.639993,24.6800106 70.1100083,26.6899905 68.45,28.59 C66.7899917,30.4900095 65.060009,32.339991 63.26,34.14 C62.459996,34.940004 61.6700039,35.7199962 60.89,36.48 C60.1099961,37.2400038 59.320004,37.9999962 58.52,38.76 L56.66,40.32 Z M58.04,37.26 C59.2000058,36.2199948 60.3199946,35.1400056 61.4,34.02 C62.4800054,32.8999944 63.5399948,31.7600058 64.58,30.6 C65.380004,29.6799954 66.1699961,28.7700045 66.95,27.87 C67.7300039,26.9699955 68.4599966,26.020005 69.14,25.02 C69.9800042,23.9399946 70.699997,22.900005 71.3,21.9 C71.4600008,21.6599988 71.6099993,21.4300011 71.75,21.21 C71.8900007,20.9899989 71.9999996,20.7400014 72.08,20.46 C71.5599974,20.860002 71.0600024,21.2499981 70.58,21.63 C70.0999976,22.0100019 69.6400022,22.4199978 69.2,22.86 C68.199995,23.7800046 67.2500045,24.7599948 66.35,25.8 C65.4499955,26.8400052 64.5800042,27.8799948 63.74,28.92 C62.8599956,30.0000054 62.020004,31.1099943 61.22,32.25 C60.419996,33.3900057 59.6800034,34.5399942 59,35.7 L58.04,37.26 Z M110.36,11.34 C110.36,11.7000018 110.34,11.9599992 110.3,12.12 L113.96,11.52 L122.18,10.32 L126.14,9.72 C127.460007,9.519999 128.759994,9.3600006 130.04,9.24 C130.640003,9.1999998 131.239997,9.1700001 131.84,9.15 C132.440003,9.1299999 133.039997,9.12 133.64,9.12 C133.960002,9.12 134.399997,9.0900003 134.96,9.03 C135.520003,8.9699997 135.959998,9.039999 136.28,9.24 C136.720002,9.5200014 136.830001,9.8399982 136.61,10.2 C136.389999,10.5600018 136.040002,10.8999984 135.56,11.22 C135.079998,11.5400016 134.580003,11.8299987 134.06,12.09 C133.539997,12.3500013 133.220001,12.4999998 133.1,12.54 C132.659998,12.740001 132.220002,12.9199992 131.78,13.08 C131.339998,13.2400008 130.900002,13.3799994 130.46,13.5 C129.939997,13.5800004 129.450002,13.5000012 128.99,13.26 C128.529998,13.0199988 128.020003,12.9399996 127.46,13.02 C126.299994,13.1000004 125.140006,13.2099993 123.98,13.35 C122.819994,13.4900007 121.660006,13.5999996 120.5,13.68 C118.49999,13.880001 116.52001,14.1199986 114.56,14.4 C112.59999,14.6800014 110.62001,14.9599986 108.62,15.24 L107.42,16.8 C106.619996,17.8400052 105.860004,18.9099945 105.14,20.01 C104.419996,21.1100055 103.680004,22.2199944 102.92,23.34 C101.359992,25.740012 99.8300075,28.139988 98.33,30.54 C96.8299925,32.940012 95.3200076,35.339988 93.8,37.74 C93.1199966,38.9000058 92.4400034,40.0399944 91.76,41.16 C91.0799966,42.2800056 90.4000034,43.4199942 89.72,44.58 C89.0799968,45.6200052 88.4500031,46.6899945 87.83,47.79 C87.2099969,48.8900055 86.5600034,49.9599948 85.88,51 C85.5599984,51.4400022 85.2500015,51.859998 84.95,52.26 C84.6499985,52.660002 84.3400016,53.0799978 84.02,53.52 C83.7399986,53.8800018 83.4400016,54.0400002 83.12,54 C82.7999984,53.9599998 82.6000004,53.7000024 82.52,53.22 C82.4799998,52.819998 82.4699999,52.3700025 82.49,51.87 C82.5100001,51.3699975 82.5699995,50.8800024 82.67,50.4 C82.7700005,49.9199976 82.9299989,49.480002 83.15,49.08 C83.3700011,48.679998 83.6599982,48.3600012 84.02,48.12 C84.7400036,47.6399976 85.3099979,46.9900041 85.73,46.17 C86.1500021,45.3499959 86.559998,44.5800036 86.96,43.86 C87.5200028,42.9399954 88.0499975,42.0200046 88.55,41.1 C89.0500025,40.1799954 89.5799972,39.2600046 90.14,38.34 C91.2200054,36.4599906 92.2899947,34.5900093 93.35,32.73 C94.4100053,30.8699907 95.4999944,28.9800096 96.62,27.06 C97.6600052,25.259991 98.7399944,23.5000086 99.86,21.78 C100.980006,20.0599914 102.139994,18.3400086 103.34,16.62 L103.88,15.96 C101.95999,16.2400014 100.070009,16.5199986 98.21,16.8 C96.3499907,17.0800014 94.4600096,17.3799984 92.54,17.7 C91.4999948,17.8600008 90.4700051,18.039999 89.45,18.24 C88.4299949,18.440001 87.4000052,18.5799996 86.36,18.66 C86.0399984,18.7000002 85.7200016,18.72 85.4,18.72 L84.44,18.72 C83.9999978,18.72 83.7899999,18.5600016 83.81,18.24 C83.8300001,17.9199984 83.939999,17.6400012 84.14,17.4 C84.8600036,16.6799964 85.7299949,16.0900023 86.75,15.63 C87.7700051,15.1699977 88.779995,14.9599998 89.78,15 C91.0200062,15.0800004 92.2599938,15.0000012 93.5,14.76 C94.7400062,14.5199988 95.959994,14.300001 97.16,14.1 C98.6800076,13.899999 100.199992,13.6800012 101.72,13.44 L106.28,12.72 L106.82,12.12 C106.940001,11.9999994 107.179998,11.8000014 107.54,11.52 C107.900002,11.2399986 108.289998,11.0100009 108.71,10.83 C109.130002,10.6499991 109.499998,10.5699999 109.82,10.59 C110.140002,10.6100001 110.32,10.8599976 110.36,11.34 Z M96.26,45.9 C97.9800086,45.299997 99.6099923,44.4700053 101.15,43.41 C102.690008,42.3499947 104.159993,41.2600056 105.56,40.14 C106.480005,39.4199964 107.359996,38.6900037 108.2,37.95 C109.040004,37.2099963 109.879996,36.440004 110.72,35.64 L111.38,34.98 C111.219999,34.4199972 111.199999,33.8200032 111.32,33.18 C111.440001,32.5399968 111.639999,31.9400028 111.92,31.38 C112.080001,31.0199982 112.319998,30.6700017 112.64,30.33 C112.960002,29.9899983 113.299998,29.7100011 113.66,29.49 C114.020002,29.2699989 114.409998,29.1699999 114.83,29.19 C115.250002,29.2100001 115.639998,29.3999982 116,29.76 C116.360002,30.1200018 116.5,30.5199978 116.42,30.96 C116.34,31.4000022 116.170001,31.8499977 115.91,32.31 C115.649999,32.7700023 115.340002,33.2099979 114.98,33.63 C114.619998,34.0500021 114.340001,34.3999986 114.14,34.68 L113.96,34.92 C114.360002,34.8799998 114.789998,34.6900017 115.25,34.35 C115.710002,34.0099983 116.099998,33.7800006 116.42,33.66 C117.020003,33.459999 117.569998,33.4899987 118.07,33.75 C118.570003,34.0100013 118.899999,34.4799966 119.06,35.16 C119.1,35.4400014 119.060001,35.7299985 118.94,36.03 C118.819999,36.3300015 118.640001,36.6399984 118.4,36.96 C118.159999,37.2800016 117.910001,37.5799986 117.65,37.86 C117.389999,38.1400014 117.180001,38.3999988 117.02,38.64 C116.259996,39.5200044 115.500004,40.4099955 114.74,41.31 C113.979996,42.2100045 113.400002,43.1799948 113,44.22 C113.320002,44.1399996 113.659998,43.9700013 114.02,43.71 C114.380002,43.4499987 114.699999,43.220001 114.98,43.02 C115.420002,42.6999984 115.839998,42.3800016 116.24,42.06 C116.640002,41.7399984 117.059998,41.4200016 117.5,41.1 C118.260004,40.499997 118.989997,39.8800032 119.69,39.24 C120.390004,38.5999968 121.119996,37.9600032 121.88,37.32 C122.080001,37.119999 122.279999,36.9500007 122.48,36.81 C122.680001,36.6699993 122.879999,36.500001 123.08,36.3 C123.320001,36.099999 123.45,36.1299987 123.47,36.39 C123.49,36.6500013 123.46,36.8599992 123.38,37.02 C122.859997,37.820004 122.290003,38.5699965 121.67,39.27 C121.049997,39.9700035 120.400003,40.6599966 119.72,41.34 C119.399998,41.6600016 118.850004,42.1899963 118.07,42.93 C117.289996,43.6700037 116.460004,44.339997 115.58,44.94 C114.699996,45.540003 113.850004,45.939999 113.03,46.14 C112.209996,46.340001 111.600002,46.0800036 111.2,45.36 C110.919999,44.9199978 110.82,44.4500025 110.9,43.95 C110.98,43.4499975 111.139999,42.9500025 111.38,42.45 C111.620001,41.9499975 111.889999,41.4800022 112.19,41.04 C112.490002,40.5999978 112.759999,40.2200016 113,39.9 L114.98,37.32 L115.58,36.66 C115.339999,36.7400004 115.120001,36.78 114.92,36.78 C114.079996,37.0200012 113.300004,36.940002 112.58,36.54 C111.219993,38.0600076 109.770008,39.5399928 108.23,40.98 C106.689992,42.4200072 105.080008,43.7199942 103.4,44.88 C102.959998,45.2000016 102.500002,45.5099985 102.02,45.81 C101.539998,46.1100015 101.060002,46.4199984 100.58,46.74 C100.299999,46.9000008 99.9300023,47.079999 99.47,47.28 C99.0099977,47.480001 98.5400024,47.6399994 98.06,47.76 C97.5799976,47.8800006 97.1100023,47.9300001 96.65,47.91 C96.1899977,47.8899999 95.8200014,47.7600012 95.54,47.52 C95.2199984,47.1599982 95.1699989,46.8200016 95.39,46.5 C95.6100011,46.1799984 95.8999982,45.9800004 96.26,45.9 Z M123.32,42.72 C122.999998,42.8000004 122.690002,42.8699997 122.39,42.93 C122.089999,42.9900003 121.800001,42.9600006 121.52,42.84 C121.56,43.1600016 121.679999,43.4799984 121.88,43.8 C122.200002,44.2400022 122.659997,44.4300003 123.26,44.37 C123.860003,44.3099997 124.479997,44.1300015 125.12,43.83 C125.760003,43.5299985 126.359997,43.1900019 126.92,42.81 C127.480003,42.4299981 127.899999,42.140001 128.18,41.94 C129.260005,41.2599966 130.329995,40.5600036 131.39,39.84 C132.450005,39.1199964 133.479995,38.360004 134.48,37.56 C134.680001,37.3999992 134.949998,37.1700015 135.29,36.87 C135.630002,36.5699985 135.939999,36.3800004 136.22,36.3 C136.380001,36.2199996 136.5,36.2399994 136.58,36.36 C136.66,36.4800006 136.68,36.6199992 136.64,36.78 C136.64,36.9400008 136.560001,37.119999 136.4,37.32 C136.239999,37.520001 136.100001,37.6999992 135.98,37.86 C135.299997,38.860005 134.520004,39.7499961 133.64,40.53 C132.759996,41.3100039 131.820005,42.0399966 130.82,42.72 C129.779995,43.4000034 128.720005,44.0599968 127.64,44.7 C126.559995,45.3400032 125.420006,45.759999 124.22,45.96 C123.459996,46.160001 122.670004,46.1400012 121.85,45.9 C121.029996,45.6599988 120.460002,45.140004 120.14,44.34 C119.779998,43.539996 119.65,42.7300041 119.75,41.91 C119.850001,41.0899959 120.079998,40.3000038 120.44,39.54 C120.800002,38.7799962 121.259997,38.0700033 121.82,37.41 C122.380003,36.7499967 122.959997,36.1400028 123.56,35.58 C123.920002,35.2199982 124.419997,34.7900025 125.06,34.29 C125.700003,33.7899975 126.379996,33.3500019 127.1,32.97 C127.820004,32.5899981 128.529997,32.3700003 129.23,32.31 C129.930003,32.2499997 130.539997,32.4799974 131.06,33 C131.580003,33.600003 131.770001,34.2499965 131.63,34.95 C131.489999,35.6500035 131.190002,36.3399966 130.73,37.02 C130.269998,37.7000034 129.740003,38.3299971 129.14,38.91 C128.539997,39.4900029 128.040002,39.9399984 127.64,40.26 C126.999997,40.7800026 126.320004,41.2599978 125.6,41.7 C124.879996,42.1400022 124.120004,42.4799988 123.32,42.72 Z M123.98,37.68 C123.539998,38.1200022 123.080002,38.6799966 122.6,39.36 C122.119998,40.0400034 121.780001,40.7399964 121.58,41.46 C121.780001,41.3799996 121.999999,41.3000004 122.24,41.22 C122.480001,41.1399996 122.719999,41.0400006 122.96,40.92 C123.480003,40.6799988 123.979998,40.4000016 124.46,40.08 C124.940002,39.7599984 125.439997,39.4400016 125.96,39.12 C126.960005,38.3599962 127.839996,37.5200046 128.6,36.6 C128.720001,36.4799994 128.859999,36.3000012 129.02,36.06 C129.180001,35.8199988 129.319999,35.5800012 129.44,35.34 C129.560001,35.0999988 129.65,34.880001 129.71,34.68 C129.77,34.479999 129.740001,34.3200006 129.62,34.2 C129.099997,34.2 128.580003,34.3099989 128.06,34.53 C127.539997,34.7500011 127.040002,35.0299983 126.56,35.37 C126.079998,35.7100017 125.620002,36.0899979 125.18,36.51 C124.739998,36.9300021 124.340002,37.3199982 123.98,37.68 Z M133.1,39.54 C133.620003,38.7799962 134.169997,38.0600034 134.75,37.38 C135.330003,36.6999966 135.959997,36.0200034 136.64,35.34 C137.000002,35.0199984 137.379998,34.7100015 137.78,34.41 C138.180002,34.1099985 138.599998,33.860001 139.04,33.66 C139.360002,33.5799996 139.719998,33.5499999 140.12,33.57 C140.520002,33.5900001 140.819999,33.7599984 141.02,34.08 C141.340002,34.7600034 141.310002,35.4299967 140.93,36.09 C140.549998,36.7500033 140.180002,37.3599972 139.82,37.92 C139.499998,38.4400026 139.200001,38.9299977 138.92,39.39 C138.639999,39.8500023 138.340002,40.3199976 138.02,40.8 C137.98,40.8800004 137.94,40.9499997 137.9,41.01 C137.86,41.0700003 137.82,41.1399996 137.78,41.22 L138.5,40.56 C139.100003,39.9999972 139.689997,39.4600026 140.27,38.94 C140.850003,38.4199974 141.439997,37.9000026 142.04,37.38 C142.600003,36.8599974 143.179997,36.3500025 143.78,35.85 C144.380003,35.3499975 144.979997,34.8800022 145.58,34.44 C146.100003,34.039998 146.639997,33.6600018 147.2,33.3 C147.760003,32.9399982 148.359997,32.7000006 149,32.58 C149.240001,32.4999996 149.499999,32.4899997 149.78,32.55 C150.060001,32.6100003 150.299999,32.739999 150.5,32.94 C150.940002,33.3000018 151.13,33.7699971 151.07,34.35 C151.01,34.9300029 150.900001,35.4399978 150.74,35.88 C150.459999,36.6000036 150.150002,37.2999966 149.81,37.98 C149.469998,38.6600034 149.140002,39.3399966 148.82,40.02 C148.699999,40.3400016 148.560001,40.6699983 148.4,41.01 C148.239999,41.3500017 148.100001,41.6999982 147.98,42.06 L147.56,43.02 C147.880002,42.9399996 148.179999,42.8100009 148.46,42.63 C148.740001,42.4499991 148.999999,42.3000006 149.24,42.18 L151.88,40.26 C152.560003,39.6999972 153.249997,39.120003 153.95,38.52 C154.650003,37.919997 155.379996,37.3400028 156.14,36.78 C156.18,36.7399998 156.259999,36.6700005 156.38,36.57 C156.500001,36.4699995 156.619999,36.3900003 156.74,36.33 C156.860001,36.2699997 156.97,36.2499999 157.07,36.27 C157.170001,36.2900001 157.22,36.399999 157.22,36.6 C157.22,36.7600008 157.130001,36.9299991 156.95,37.11 C156.769999,37.2900009 156.64,37.4399994 156.56,37.56 C155.359994,39.0400074 154.140006,40.4399934 152.9,41.76 C152.539998,42.1200018 152.050003,42.599997 151.43,43.2 C150.809997,43.800003 150.150004,44.3299977 149.45,44.79 C148.749997,45.2500023 148.040004,45.5299995 147.32,45.63 C146.599996,45.7300005 145.980003,45.4600032 145.46,44.82 C145.179999,44.4599982 145.03,44.0700021 145.01,43.65 C144.99,43.2299979 145.039999,42.7900023 145.16,42.33 C145.280001,41.8699977 145.439999,41.4300021 145.64,41.01 C145.840001,40.5899979 146.019999,40.2200016 146.18,39.9 C146.580002,39.099996 147.029998,38.2900041 147.53,37.47 C148.030002,36.6499959 148.419999,35.8000044 148.7,34.92 C148.62,34.92 148.57,34.9299999 148.55,34.95 C148.53,34.9700001 148.5,34.98 148.46,34.98 C148.139998,35.1400008 147.850001,35.2999992 147.59,35.46 C147.329999,35.6200008 147.060001,35.799999 146.78,36 L144.56,37.62 C144.199998,37.9000014 143.860002,38.1699987 143.54,38.43 C143.219998,38.6900013 142.900002,38.9799984 142.58,39.3 C141.739996,39.9800034 140.930004,40.7099961 140.15,41.49 C139.369996,42.2700039 138.560004,43.0199964 137.72,43.74 C137.559999,43.8600006 137.350001,44.019999 137.09,44.22 C136.829999,44.420001 136.570001,44.5799994 136.31,44.7 C136.049999,44.8200006 135.780001,44.88 135.5,44.88 C135.219999,44.88 134.980001,44.7400014 134.78,44.46 C134.539999,44.1799986 134.45,43.8600018 134.51,43.5 C134.57,43.1399982 134.689999,42.7700019 134.87,42.39 C135.050001,42.0099981 135.259999,41.6400018 135.5,41.28 L136.1,40.38 L137.9,37.5 C138.100001,37.1799984 138.319999,36.8500017 138.56,36.51 C138.800001,36.1699983 139.019999,35.8200018 139.22,35.46 C139.18,35.5000002 139.14,35.52 139.1,35.52 C139.06,35.52 139.04,35.5399998 139.04,35.58 C138.839999,35.6600004 138.650001,35.7699993 138.47,35.91 C138.289999,36.0500007 138.100001,36.1999992 137.9,36.36 C137.179996,36.8800026 136.480003,37.4599968 135.8,38.1 C135.479998,38.3800014 135.170002,38.6599986 134.87,38.94 C134.569998,39.2200014 134.240002,39.4799988 133.88,39.72 C133.88,39.7600002 133.84,39.8099997 133.76,39.87 C133.68,39.9300003 133.62,39.9799998 133.58,40.02 C133.419999,40.1000004 133.280001,40.0800006 133.16,39.96 C133.039999,39.8399994 133.02,39.7000008 133.1,39.54 Z M163.7,33.72 C162.699995,34.1600022 161.770004,34.7299965 160.91,35.43 C160.049996,36.1300035 159.260004,36.879996 158.54,37.68 C157.659996,38.680005 156.860004,39.779994 156.14,40.98 C156.019999,41.1400008 155.890001,41.3499987 155.75,41.61 C155.609999,41.8700013 155.470001,42.1499985 155.33,42.45 C155.189999,42.7500015 155.08,43.0399986 155,43.32 C154.92,43.6000014 154.9,43.8599988 154.94,44.1 C155.380002,44.1400002 155.839998,44.0500011 156.32,43.83 C156.800002,43.6099989 157.239998,43.400001 157.64,43.2 C158.240003,42.8399982 158.829997,42.4500021 159.41,42.03 C159.990003,41.6099979 160.559997,41.1800022 161.12,40.74 L162.14,39.96 C162.700003,37.4799876 163.619994,35.1000114 164.9,32.82 C166.180006,30.5399886 167.559993,28.4200098 169.04,26.46 C169.800004,25.4199948 170.599996,24.400005 171.44,23.4 C172.280004,22.399995 173.199995,21.4800042 174.2,20.64 C174.480001,20.3599986 174.849998,20.0900013 175.31,19.83 C175.770002,19.5699987 176.239998,19.3800006 176.72,19.26 C177.200002,19.1399994 177.659998,19.1499993 178.1,19.29 C178.540002,19.4300007 178.879999,19.7599974 179.12,20.28 C179.320001,20.7200022 179.370001,21.139998 179.27,21.54 C179.17,21.940002 179.040001,22.339998 178.88,22.74 C178.679999,23.3800032 178.430002,23.9799972 178.13,24.54 C177.829998,25.1000028 177.500002,25.6599972 177.14,26.22 C176.419996,27.3800058 175.640004,28.4899947 174.8,29.55 C173.959996,30.6100053 173.080005,31.6599948 172.16,32.7 C170.919994,34.100007 169.650006,35.4799932 168.35,36.84 C167.049993,38.2000068 165.700007,39.4999938 164.3,40.74 C164.099999,41.4200034 163.99,42.0699969 163.97,42.69 C163.95,43.3100031 164.079999,43.8999972 164.36,44.46 C164.480001,44.7800016 164.779998,44.8500009 165.26,44.67 C165.740002,44.4899991 166.259997,44.2200018 166.82,43.86 C167.380003,43.4999982 167.899998,43.120002 168.38,42.72 C168.860002,42.319998 169.159999,42.0600006 169.28,41.94 C170.200005,41.139996 171.079996,40.3200042 171.92,39.48 C172.760004,38.6399958 173.639995,37.820004 174.56,37.02 C174.6,36.9799998 174.709999,36.8900007 174.89,36.75 C175.070001,36.6099993 175.239999,36.5000004 175.4,36.42 C175.560001,36.3399996 175.689999,36.3099999 175.79,36.33 C175.89,36.3500001 175.92,36.4999986 175.88,36.78 C175.88,36.9400008 175.810001,37.1099991 175.67,37.29 C175.529999,37.4700009 175.42,37.6399992 175.34,37.8 C175.139999,38.0400012 174.960001,38.2899987 174.8,38.55 C174.639999,38.8100013 174.460001,39.0599988 174.26,39.3 C172.739992,41.1800094 171.060009,42.919992 169.22,44.52 C168.859998,44.8400016 168.440002,45.1899981 167.96,45.57 C167.479998,45.9500019 166.970003,46.2699987 166.43,46.53 C165.889997,46.7900013 165.340003,46.9399998 164.78,46.98 C164.219997,47.0200002 163.700002,46.8600018 163.22,46.5 C162.659997,46.099998 162.280001,45.5600034 162.08,44.88 C161.879999,44.1999966 161.78,43.5000036 161.78,42.78 L160.22,43.92 C159.819998,44.2000014 159.370002,44.5099983 158.87,44.85 C158.369998,45.1900017 157.840003,45.4899987 157.28,45.75 C156.719997,46.0100013 156.150003,46.1799996 155.57,46.26 C154.989997,46.3400004 154.440003,46.2600012 153.92,46.02 C153.479998,45.8599992 153.170001,45.5900019 152.99,45.21 C152.809999,44.8299981 152.72,44.4300021 152.72,44.01 C152.72,43.5899979 152.769999,43.1500023 152.87,42.69 C152.970001,42.2299977 153.079999,41.8200018 153.2,41.46 C153.720003,40.059993 154.459995,38.7500061 155.42,37.53 C156.380005,36.3099939 157.439994,35.2400046 158.6,34.32 C159.080002,33.919998 159.619997,33.5300019 160.22,33.15 C160.820003,32.7699981 161.459997,32.5400004 162.14,32.46 L162.8,32.46 C163.040001,32.46 163.259999,32.4999996 163.46,32.58 C163.700001,32.7000006 163.879999,32.8799988 164,33.12 C164.120001,33.3600012 164.020002,33.5599992 163.7,33.72 Z M168.56,31.62 C168.039997,32.420004 167.560002,33.2399958 167.12,34.08 C166.679998,34.9200042 166.240002,35.7799956 165.8,36.66 L167.66,34.86 C168.660005,33.8199948 169.629995,32.7800052 170.57,31.74 C171.510005,30.6999948 172.399996,29.6200056 173.24,28.5 C173.680002,27.9399972 174.099998,27.3800028 174.5,26.82 L175.7,25.14 L176.78,23.22 C176.86,23.0599992 176.959999,22.8100017 177.08,22.47 C177.200001,22.1299983 177.22,21.8800008 177.14,21.72 C176.819998,21.8000004 176.480002,21.9999984 176.12,22.32 C175.759998,22.6400016 175.480001,22.899999 175.28,23.1 C174.839998,23.4600018 174.430002,23.8599978 174.05,24.3 C173.669998,24.7400022 173.280002,25.1799978 172.88,25.62 C172.079996,26.5800048 171.330004,27.559995 170.63,28.56 C169.929996,29.560005 169.240003,30.5799948 168.56,31.62 Z M180.56,33.24 C179.799996,33.9600036 179.110003,34.7299959 178.49,35.55 C177.869997,36.3700041 177.280003,37.2399954 176.72,38.16 C176.079997,39.1200048 175.560002,40.0599954 175.16,40.98 C174.959999,41.380002 174.82,41.7499983 174.74,42.09 C174.66,42.4300017 174.64,42.8199978 174.68,43.26 C174.920001,43.3800006 175.299997,43.2900015 175.82,42.99 C176.340003,42.6899985 176.879997,42.3300021 177.44,41.91 C178.000003,41.4899979 178.529998,41.0600022 179.03,40.62 C179.530002,40.1799978 179.879999,39.8800008 180.08,39.72 C180.760003,39.0799968 181.419997,38.4700029 182.06,37.89 C182.700003,37.3099971 183.359997,36.6800034 184.04,36 L186.32,33.72 C186.760002,33.319998 187.189998,32.8900023 187.61,32.43 C188.030002,31.9699977 188.499997,31.6000014 189.02,31.32 C189.140001,31.2799998 189.309999,31.2000006 189.53,31.08 C189.750001,30.9599994 189.959999,30.8800002 190.16,30.84 C190.360001,30.7999998 190.539999,30.8099997 190.7,30.87 C190.860001,30.9300003 190.94,31.0999986 190.94,31.38 C190.94,31.580001 190.880001,31.7999988 190.76,32.04 C190.639999,32.2800012 190.54,32.499999 190.46,32.7 C190.339999,33.0200016 190.210001,33.3499983 190.07,33.69 C189.929999,34.0300017 189.760001,34.3599984 189.56,34.68 C188.919997,35.9200062 188.250003,37.1299941 187.55,38.31 C186.849997,39.4900059 186.140004,40.679994 185.42,41.88 L184.34,43.62 C185.340005,42.8599962 186.319995,42.0900039 187.28,41.31 C188.240005,40.5299961 189.199995,39.740004 190.16,38.94 C190.680003,38.4999978 191.199997,38.0700021 191.72,37.65 C192.240003,37.2299979 192.779997,36.7800024 193.34,36.3 C193.42,36.2599998 193.549999,36.2799996 193.73,36.36 C193.910001,36.4400004 193.920001,36.579999 193.76,36.78 L192.2,38.46 C191.239995,39.5000052 190.240005,40.4699955 189.2,41.37 C188.159995,42.2700045 187.120005,43.1799954 186.08,44.1 L181.76,47.7 L179,51.9 C178.079995,53.300007 177.140005,54.699993 176.18,56.1 C174.579992,58.3400112 172.950008,60.5299893 171.29,62.67 C169.629992,64.8100107 167.84001,66.8599902 165.92,68.82 C165.039996,69.6600042 164.100005,70.4999958 163.1,71.34 C162.099995,72.1800042 161.020006,72.799998 159.86,73.2 C159.219997,73.400001 158.610003,73.4500005 158.03,73.35 C157.449997,73.2499995 156.950002,73.0300017 156.53,72.69 C156.109998,72.3499983 155.810001,71.9100027 155.63,71.37 C155.449999,70.8299973 155.459999,70.2200034 155.66,69.54 C155.980002,68.3799942 156.589995,67.300005 157.49,66.3 C158.390005,65.299995 159.239996,64.3800042 160.04,63.54 C161.040005,62.5799952 162.059995,61.6500045 163.1,60.75 C164.140005,59.8499955 165.179995,58.9400046 166.22,58.02 C167.500006,56.9399946 168.799993,55.8700053 170.12,54.81 C171.440007,53.7499947 172.759993,52.7000052 174.08,51.66 C174.880004,51.0199968 175.679996,50.400003 176.48,49.8 C177.280004,49.199997 178.079996,48.5800032 178.88,47.94 C179.840005,46.4999928 180.769995,45.0600072 181.67,43.62 C182.570004,42.1799928 183.479995,40.7200074 184.4,39.24 L185.54,37.38 L182.48,40.32 C181.759996,41.0000034 181.020004,41.6499969 180.26,42.27 C179.499996,42.8900031 178.720004,43.4799972 177.92,44.04 C177.599998,44.240001 177.260002,44.4499989 176.9,44.67 C176.539998,44.8900011 176.160002,45.0599994 175.76,45.18 C175.359998,45.3000006 174.960002,45.3500001 174.56,45.33 C174.159998,45.3099999 173.780002,45.1600014 173.42,44.88 C172.859997,44.479998 172.55,43.9400034 172.49,43.26 C172.43,42.5799966 172.489999,41.8800036 172.67,41.16 C172.850001,40.4399964 173.099998,39.7300035 173.42,39.03 C173.740002,38.3299965 174.019999,37.7600022 174.26,37.32 C174.700002,36.6399966 175.169997,35.9200038 175.67,35.16 C176.170002,34.3999962 176.759997,33.8000022 177.44,33.36 C177.760002,33.1199988 178.119998,32.9200008 178.52,32.76 C178.920002,32.5999992 179.339998,32.5000002 179.78,32.46 C179.900001,32.46 180.029999,32.4699999 180.17,32.49 C180.310001,32.5100001 180.439999,32.5499997 180.56,32.61 C180.680001,32.6700003 180.75,32.7499995 180.77,32.85 C180.79,32.9500005 180.720001,33.0799992 180.56,33.24 Z M168.56,62.16 C169.800006,60.6399924 170.989994,59.1100077 172.13,57.57 C173.270006,56.0299923 174.419994,54.460008 175.58,52.86 C175.419999,52.9400004 175.280001,53.0399994 175.16,53.16 C175.039999,53.2800006 174.920001,53.3799996 174.8,53.46 C173.359993,54.660006 171.940007,55.859994 170.54,57.06 C169.139993,58.260006 167.740007,59.4799938 166.34,60.72 C165.299995,61.6400046 164.290005,62.5699953 163.31,63.51 C162.329995,64.4500047 161.380005,65.4399948 160.46,66.48 C160.019998,66.9200022 159.620002,67.3699977 159.26,67.83 C158.899998,68.2900023 158.580001,68.7999972 158.3,69.36 C158.22,69.560001 158.110001,69.7899987 157.97,70.05 C157.829999,70.3100013 157.8,70.539999 157.88,70.74 C157.92,70.9000008 158.009999,70.9999998 158.15,71.04 C158.290001,71.0800002 158.439999,71.0800002 158.6,71.04 C158.760001,70.9999998 158.919999,70.9600002 159.08,70.92 C159.240001,70.8799998 159.36,70.8400002 159.44,70.8 C160.360005,70.4399982 161.209996,69.9000036 161.99,69.18 C162.770004,68.4599964 163.519996,67.7400036 164.24,67.02 C165.000004,66.2599962 165.739996,65.4700041 166.46,64.65 C167.180004,63.8299959 167.879997,63.0000042 168.56,62.16 Z" id="path-1"></path>
    </defs>
    <g id="Page-1" stroke="none" stroke-width="1" fill="none" fill-rule="evenodd">
        <g id="logo-colorful" transform="translate(0.000000, 3.000000)" fill="#111111">
            <g id="Web-Trendy">
                <use xlink:href="#path-1"></use>
                <use xlink:href="#path-1"></use>
            </g>
        </g>
    </g>
</svg>