<?xml version="1.0" encoding="UTF-8" standalone="no"?>
<svg width="831px" height="754px" viewBox="0 0 831 754" version="1.1" xmlns="http://www.w3.org/2000/svg" xmlns:xlink="http://www.w3.org/1999/xlink">
    <!-- Generator: Sketch 50.2 (55047) - http://www.bohemiancoding.com/sketch -->
    <title>illustration2</title>
    <desc>Created with Sketch.</desc>
    <defs></defs>
    <g id="Page-1" stroke="none" stroke-width="1" fill="none" fill-rule="evenodd">
        <g id="illustration2">
            <path d="M718.76847,430.50768 L526.10471,189.75011 C517.356487,197.750513 506.577933,203.193004 494.94637,205.48311 C458.67543,212.62637 423.25355,187.85746 415.82937,150.1602 C410.58132,123.51249 420.74081,97.55226 439.95193,82.09147 L374.2591,0 L0,319.862 L344.50931,750.36968 L718.76847,430.50768 Z" id="Shape" fill="#F2F2F2" fill-rule="nonzero"></path>
            <path d="M311.81483,235.57009 L151.28929,268.37309 C142.10271,270.250349 134.256926,276.179458 129.943041,284.504586 C125.629156,292.829713 125.309481,302.658675 129.07329,311.24652 L312.07492,728.79973 C320.384983,747.760716 341.584131,757.485902 361.3767,751.4171 L546.33719,694.47562 C556.270437,691.417593 564.31967,684.084392 568.287233,674.478177 C572.254797,664.871962 571.726323,653.995993 566.8461,644.8197 L360.51066,256.8467 C350.40017,240.183145 330.911121,231.667819 311.81483,235.57009 Z" id="Shape" fill="#3F3D56" fill-rule="nonzero"></path>
            <path d="M151.08475,272.44365 L177.47875,267.23918 C181.128207,274.818818 189.38341,279.035451 197.66355,277.54927 L293.04316,260.42985 C294.954824,260.086731 296.62305,258.929857 297.61448,257.259751 C298.605911,255.589644 298.822692,253.571145 298.20851,251.7286 L295.61393,243.94492 L321.88379,238.76492 C333.050843,236.562958 344.353372,241.872681 349.7877,251.87367 L563.46988,645.12059 C567.190875,651.968483 567.63535,660.12662 564.680352,667.338237 C561.725353,674.549855 555.684141,680.050447 548.22788,682.3184 L366.11575,737.71079 C350.414589,742.486543 333.610086,734.853181 326.87675,719.88667 L137.45217,298.84347 C135.078103,293.566516 135.241803,287.494649 137.89675,282.353278 C140.551698,277.211908 145.407663,273.563075 151.08475,272.44365 Z" id="Shape" fill="#6C63FF" fill-rule="nonzero"></path>
            <path d="M264.65365,255.06388 L225.65365,263.06388" id="Shape" stroke="#2F2E41" stroke-width="2"></path>
            <ellipse id="Oval" fill="#2F2E41" fill-rule="nonzero" cx="215.65365" cy="264.56388" rx="4" ry="3.5"></ellipse>
            <polygon id="Shape" fill="#FFFFFF" fill-rule="nonzero" points="241.654 302.064 413.654 671.064 652.654 606.064 652.654 598.064 466.654 251.064 245.654 299.064 244.604 299.854"></polygon>
            <polygon id="Shape" fill="#000000" fill-rule="nonzero" opacity="0.2" points="241.654 302.064 413.654 671.064 652.654 606.064 652.654 598.064 414.654 665.064 244.604 299.854"></polygon>
            <path d="M548.65365,458.06388 L372.65365,503.06388" id="Shape" stroke="#3F3D56" stroke-width="2" fill="#3F3D56" fill-rule="nonzero"></path>
            <path d="M558.65365,477.06388 L381.65365,523.06388" id="Shape" stroke="#3F3D56" stroke-width="2" fill="#3F3D56" fill-rule="nonzero"></path>
            <path d="M535.65365,503.06388 L424.65365,533.06388" id="Shape" stroke="#3F3D56" stroke-width="2" fill="#3F3D56" fill-rule="nonzero"></path>
            <polygon id="Shape" fill="#6C63FF" fill-rule="nonzero" points="434.654 588.064 450.864 623.354 451.654 625.064 454.414 624.364 588.654 590.064 588.654 585.064 570.654 551.064 437.654 587.064 436.464 587.464"></polygon>
            <polygon id="Shape" fill="#000000" fill-rule="nonzero" opacity="0.2" points="434.654 588.064 450.864 623.354 451.654 625.064 454.414 624.364 588.654 590.064 588.654 585.064 453.654 621.064 436.464 587.464"></polygon>
            <path d="M446.55269,378.98079 C435.10132,349.05386 403.48053,331.90357 378.09534,339.98392 C354.82599,347.39078 345.26734,373.67582 355.04695,399.23386 C364.82656,424.7919 391.43765,443.07145 416.29913,439.82546 C443.42121,436.28428 458.00406,408.90769 446.55269,378.98079 Z" id="Shape" stroke="#3F3D56" stroke-width="2" fill="#3F3D56" fill-rule="nonzero"></path>
            <path d="M446.55269,378.98079 C435.10132,349.05386 403.48053,331.90357 378.09534,339.98392 C354.82599,347.39078 345.26734,373.67582 355.04695,399.23386 C364.82656,424.7919 391.43765,443.07145 416.29913,439.82546 C443.42121,436.28428 458.00406,408.90769 446.55269,378.98079 Z" id="Shape" fill="#000000" fill-rule="nonzero" opacity="0.2"></path>
            <path d="M451.55269,373.98079 C440.10132,344.05386 408.48053,326.90357 383.09534,334.98392 C359.82599,342.39078 350.26734,368.67582 360.04695,394.23386 C369.82656,419.7919 396.43765,438.07145 421.29913,434.82546 C448.42121,431.28428 463.00406,403.90769 451.55269,373.98079 Z" id="Shape" stroke="#3F3D56" stroke-width="2" fill="#3F3D56" fill-rule="nonzero"></path>
            <circle id="Oval" stroke="#3F3D56" stroke-width="2" cx="619.42905" cy="56.91588" r="14.75556"></circle>
            <circle id="Oval" stroke="#3F3D56" stroke-width="2" cx="814.42905" cy="485.91588" r="14.75556"></circle>
            <circle id="Oval" stroke="#3F3D56" stroke-width="2" cx="170.69572" cy="93.91588" r="14.75556"></circle>
            <circle id="Oval" fill="#F2F2F2" fill-rule="nonzero" cx="479.37657" cy="139.7294" r="54.31516"></circle>
            <circle id="Oval" fill="#2F2E41" fill-rule="nonzero" cx="692.9535" cy="234.91667" r="36.79985"></circle>
            <polygon id="Shape" fill="#9F616A" fill-rule="nonzero" points="732.654 696.064 739.654 726.064 722.654 726.064 715.654 692.064"></polygon>
            <polygon id="Shape" fill="#9F616A" fill-rule="nonzero" points="650.654 696.064 650.654 724.064 633.654 726.064 633.654 696.064"></polygon>
            <path d="M737.65366,378.06389 C737.65366,378.06389 735.65366,421.06389 733.65366,424.06389 C731.65366,427.06389 713.65366,470.06389 713.65366,470.06389 L704.65366,442.06389 C704.65366,442.06389 718.65366,419.06389 716.65366,406.06389 C714.65366,393.06389 715.91366,377.06678 715.91366,377.06678 L737.65366,378.06389 Z" id="Shape" fill="#9F616A" fill-rule="nonzero"></path>
            <circle id="Oval" fill="#9F616A" fill-rule="nonzero" cx="680.65365" cy="246.06388" r="28"></circle>
            <path d="M703.65366,249.06389 C703.65366,249.06389 702.65366,289.06389 709.65366,295.06389 C716.65366,301.06389 669.65366,296.06389 669.65366,296.06389 C669.65366,296.06389 679.65366,268.06389 671.65366,262.06389 C663.65366,256.06389 703.65366,249.06389 703.65366,249.06389 Z" id="Shape" fill="#9F616A" fill-rule="nonzero"></path>
            <path d="M666.65366,294.06389 C666.65366,294.06389 672.65366,283.06389 680.65366,284.06389 C688.65366,285.06389 714.65366,287.06389 715.65366,289.06389 C716.65366,291.06389 719.65366,298.06389 721.65366,300.06389 C723.65366,302.06389 738.65366,305.06389 739.65366,317.06389 C740.65366,329.06389 703.65366,402.06389 703.65366,402.06389 C703.65366,402.06389 708.65366,419.06389 707.65366,423.06389 C706.65366,427.06389 712.65366,439.06389 711.65366,444.06389 C710.65366,449.06389 726.65366,479.06389 718.65366,518.06389 L718.65366,581.06389 C718.65366,581.06389 745.65366,690.06389 737.65366,698.06389 C729.65366,706.06389 702.65366,701.06389 697.65366,698.06389 C692.65366,695.06389 671.65366,544.06389 671.65366,544.06389 L661.65366,493.06389 L660.65366,605.06389 C660.65366,605.06389 662.65366,699.06389 655.65366,702.06389 C648.65366,705.06389 621.65366,706.06389 619.65366,700.06389 C618.09382,695.38438 610.45126,570.8752 607.16284,516.29745 C606.023627,497.458763 607.505385,478.553128 611.56568,460.12196 C615.72777,441.24428 621.77016,419.06539 628.65368,410.06389 C641.65368,393.06389 649.65368,339.06389 649.65368,339.06389 L632.65368,308.06389 C632.65368,308.06389 642.65368,298.06389 648.65368,298.06389 C654.65368,298.06389 666.65366,294.06389 666.65366,294.06389 Z" id="Shape" fill="#2F2E41" fill-rule="nonzero"></path>
            <path d="M733.65366,310.06389 L738.92723,313.65326 C738.92723,313.65326 742.65366,378.06389 739.65366,382.06389 C736.65366,386.06389 715.79638,384.11165 714.22502,380.58777 C712.65366,377.06389 733.65366,310.06389 733.65366,310.06389 Z" id="Shape" fill="#2F2E41" fill-rule="nonzero"></path>
            <path d="M644.47702,368.62742 C647.40415,388.934 649.96933,407.01076 635.00217,423.36455 C619.96047,439.915111 602.99579,454.609837 584.4686,467.13649 C582.63291,471.99925 555.68338,507.70866 554.31247,493.46458 C552.94156,479.2205 562.25253,468.05369 575.48398,456.00841 C588.71543,443.96313 607.22635,417.82805 617.67087,403.48771 C628.11539,389.14737 623.81552,380.20488 623.45273,368.22671 C623.08994,356.24854 640.37027,368.77238 644.47702,368.62742 Z" id="Shape" fill="#9F616A" fill-rule="nonzero"></path>
            <path d="M633.65366,707.8631 C633.65366,707.8631 632.65366,719.06389 629.65366,722.06389 C626.65366,725.06389 618.65366,729.06389 619.65366,740.06389 C620.65366,751.06389 627.15366,751.56389 627.15366,751.56389 L626.65366,749.06389 L629.65366,750.06389 L630.15366,751.56389 L658.15366,751.56389 C658.15366,751.56389 658.65366,741.06389 657.65366,736.06389 C656.65366,731.06389 656.65366,707.06389 653.65366,708.06389 C650.65366,709.06389 642.65366,710.06389 640.65366,714.06389 C638.65366,718.06389 632.65366,716.66231 633.65366,707.8631 Z" id="Shape" fill="#2F2E41" fill-rule="nonzero"></path>
            <path d="M735.65366,707.8631 C735.65366,707.8631 736.65366,719.06389 739.65366,722.06389 C742.65366,725.06389 750.65366,729.06389 749.65366,740.06389 C748.65366,751.06389 742.15366,751.56389 742.15366,751.56389 L742.65366,749.06389 L739.65366,750.06389 L739.15366,751.56389 L711.15366,751.56389 C711.15366,751.56389 710.65366,741.06389 711.65366,736.06389 C712.65366,731.06389 712.65366,707.06389 715.65366,708.06389 C718.65366,709.06389 726.65366,710.06389 728.65366,714.06389 C730.65366,718.06389 736.65366,716.66231 735.65366,707.8631 Z" id="Shape" fill="#2F2E41" fill-rule="nonzero"></path>
            <path d="M646.65366,305.06389 L632.65366,308.06389 C632.65366,308.06389 632.65366,330.06389 628.65366,339.06389 C624.65366,348.06389 617.65366,369.06389 620.65366,370.06389 C623.65366,371.06389 651.65366,385.06389 653.65366,377.06389 C655.65366,369.06389 660.65366,305.06389 646.65366,305.06389 Z" id="Shape" fill="#2F2E41" fill-rule="nonzero"></path>
            <circle id="Oval" fill="#2F2E41" fill-rule="nonzero" cx="732.82" cy="186.46354" r="36.79985"></circle>
            <path d="M764.56183,216.93618 C754.8971,223.921467 742.44686,225.790918 731.156844,221.952067 C719.866828,218.113215 711.136664,209.041965 707.73312,197.61318 C709.463657,211.375339 718.784989,222.995524 731.843999,227.670353 C744.903009,232.345182 759.481196,229.280482 769.552442,219.743093 C779.623688,210.205705 783.477061,195.815867 779.51971,182.52184 C781.198826,195.864993 775.463278,209.061054 764.56183,216.93618 Z" id="Shape" fill="#2F2E41" fill-rule="nonzero"></path>
            <circle id="Oval" fill="#2F2E41" fill-rule="nonzero" cx="702.76678" cy="241.04997" r="26.98656"></circle>
            <ellipse id="Oval" fill="#2F2E41" fill-rule="nonzero" cx="680.07355" cy="230.93" rx="23.9199" ry="18.70659"></ellipse>
            <ellipse id="Oval" fill="#A0616A" fill-rule="nonzero" cx="673.69343" cy="250.09857" rx="4.53977" ry="8.03191"></ellipse>
        </g>
    </g>
</svg>