<?xml version="1.0" encoding="UTF-8" standalone="no"?>
<svg width="400px" height="400px" viewBox="0 0 400 400" version="1.1" xmlns="http://www.w3.org/2000/svg" xmlns:xlink="http://www.w3.org/1999/xlink">
    <!-- Generator: Sketch 50.2 (55047) - http://www.bohemiancoding.com/sketch -->
    <title>Desktop</title>
    <desc>Created with Sketch.</desc>
    <defs></defs>
    <g id="Desktop" stroke="none" stroke-width="1" fill="none" fill-rule="evenodd">
        <g id="Group-2" transform="translate(3.000000, 0.000000)" fill="#2E2E2E">
            <g id="Group">
                <ellipse id="Oval" cx="4.56447178" cy="4.69387755" rx="4.56447178" ry="4.69387755"></ellipse>
                <ellipse id="Oval-Copy-5" cx="123.664343" cy="4.69387755" rx="4.56447178" ry="4.69387755"></ellipse>
                <ellipse id="Oval-Copy" cx="28.384446" cy="4.69387755" rx="4.56447178" ry="4.69387755"></ellipse>
                <ellipse id="Oval-Copy-6" cx="147.484317" cy="4.69387755" rx="4.56447178" ry="4.69387755"></ellipse>
                <ellipse id="Oval-Copy-2" cx="52.2044202" cy="4.69387755" rx="4.56447178" ry="4.69387755"></ellipse>
                <ellipse id="Oval-Copy-7" cx="171.304291" cy="4.69387755" rx="4.56447178" ry="4.69387755"></ellipse>
                <ellipse id="Oval-Copy-3" cx="76.0243944" cy="4.69387755" rx="4.56447178" ry="4.69387755"></ellipse>
                <ellipse id="Oval-Copy-8" cx="195.124265" cy="4.69387755" rx="4.56447178" ry="4.69387755"></ellipse>
                <ellipse id="Oval-Copy-4" cx="99.8443686" cy="4.69387755" rx="4.56447178" ry="4.69387755"></ellipse>
                <ellipse id="Oval-Copy-9" cx="218.94424" cy="4.69387755" rx="4.56447178" ry="4.69387755"></ellipse>
            </g>
            <g id="Group-Copy" transform="translate(0.000000, 21.000000)">
                <ellipse id="Oval" cx="4.56447178" cy="4.69387755" rx="4.56447178" ry="4.69387755"></ellipse>
                <ellipse id="Oval-Copy-5" cx="123.664343" cy="4.69387755" rx="4.56447178" ry="4.69387755"></ellipse>
                <ellipse id="Oval-Copy" cx="28.384446" cy="4.69387755" rx="4.56447178" ry="4.69387755"></ellipse>
                <ellipse id="Oval-Copy-6" cx="147.484317" cy="4.69387755" rx="4.56447178" ry="4.69387755"></ellipse>
                <ellipse id="Oval-Copy-2" cx="52.2044202" cy="4.69387755" rx="4.56447178" ry="4.69387755"></ellipse>
                <ellipse id="Oval-Copy-7" cx="171.304291" cy="4.69387755" rx="4.56447178" ry="4.69387755"></ellipse>
                <ellipse id="Oval-Copy-3" cx="76.0243944" cy="4.69387755" rx="4.56447178" ry="4.69387755"></ellipse>
                <ellipse id="Oval-Copy-8" cx="195.124265" cy="4.69387755" rx="4.56447178" ry="4.69387755"></ellipse>
                <ellipse id="Oval-Copy-4" cx="99.8443686" cy="4.69387755" rx="4.56447178" ry="4.69387755"></ellipse>
                <ellipse id="Oval-Copy-9" cx="218.94424" cy="4.69387755" rx="4.56447178" ry="4.69387755"></ellipse>
            </g>
            <g id="Group-Copy-2" transform="translate(0.000000, 41.000000)">
                <ellipse id="Oval" cx="4.56447178" cy="4.69387755" rx="4.56447178" ry="4.69387755"></ellipse>
                <ellipse id="Oval-Copy-5" cx="123.664343" cy="4.69387755" rx="4.56447178" ry="4.69387755"></ellipse>
                <ellipse id="Oval-Copy" cx="28.384446" cy="4.69387755" rx="4.56447178" ry="4.69387755"></ellipse>
                <ellipse id="Oval-Copy-6" cx="147.484317" cy="4.69387755" rx="4.56447178" ry="4.69387755"></ellipse>
                <ellipse id="Oval-Copy-2" cx="52.2044202" cy="4.69387755" rx="4.56447178" ry="4.69387755"></ellipse>
                <ellipse id="Oval-Copy-7" cx="171.304291" cy="4.69387755" rx="4.56447178" ry="4.69387755"></ellipse>
                <ellipse id="Oval-Copy-3" cx="76.0243944" cy="4.69387755" rx="4.56447178" ry="4.69387755"></ellipse>
                <ellipse id="Oval-Copy-8" cx="195.124265" cy="4.69387755" rx="4.56447178" ry="4.69387755"></ellipse>
                <ellipse id="Oval-Copy-4" cx="99.8443686" cy="4.69387755" rx="4.56447178" ry="4.69387755"></ellipse>
                <ellipse id="Oval-Copy-9" cx="218.94424" cy="4.69387755" rx="4.56447178" ry="4.69387755"></ellipse>
            </g>
            <g id="Group-Copy-3" transform="translate(0.000000, 62.000000)">
                <ellipse id="Oval" cx="4.56447178" cy="4.69387755" rx="4.56447178" ry="4.69387755"></ellipse>
                <ellipse id="Oval-Copy-5" cx="123.664343" cy="4.69387755" rx="4.56447178" ry="4.69387755"></ellipse>
                <ellipse id="Oval-Copy" cx="28.384446" cy="4.69387755" rx="4.56447178" ry="4.69387755"></ellipse>
                <ellipse id="Oval-Copy-6" cx="147.484317" cy="4.69387755" rx="4.56447178" ry="4.69387755"></ellipse>
                <ellipse id="Oval-Copy-2" cx="52.2044202" cy="4.69387755" rx="4.56447178" ry="4.69387755"></ellipse>
                <ellipse id="Oval-Copy-7" cx="171.304291" cy="4.69387755" rx="4.56447178" ry="4.69387755"></ellipse>
                <ellipse id="Oval-Copy-3" cx="76.0243944" cy="4.69387755" rx="4.56447178" ry="4.69387755"></ellipse>
                <ellipse id="Oval-Copy-8" cx="195.124265" cy="4.69387755" rx="4.56447178" ry="4.69387755"></ellipse>
                <ellipse id="Oval-Copy-4" cx="99.8443686" cy="4.69387755" rx="4.56447178" ry="4.69387755"></ellipse>
                <ellipse id="Oval-Copy-9" cx="218.94424" cy="4.69387755" rx="4.56447178" ry="4.69387755"></ellipse>
            </g>
            <g id="Group-Copy-4" transform="translate(0.000000, 83.000000)">
                <ellipse id="Oval" cx="4.56447178" cy="4.69387755" rx="4.56447178" ry="4.69387755"></ellipse>
                <ellipse id="Oval-Copy-5" cx="123.664343" cy="4.69387755" rx="4.56447178" ry="4.69387755"></ellipse>
                <ellipse id="Oval-Copy" cx="28.384446" cy="4.69387755" rx="4.56447178" ry="4.69387755"></ellipse>
                <ellipse id="Oval-Copy-6" cx="147.484317" cy="4.69387755" rx="4.56447178" ry="4.69387755"></ellipse>
                <ellipse id="Oval-Copy-2" cx="52.2044202" cy="4.69387755" rx="4.56447178" ry="4.69387755"></ellipse>
                <ellipse id="Oval-Copy-7" cx="171.304291" cy="4.69387755" rx="4.56447178" ry="4.69387755"></ellipse>
                <ellipse id="Oval-Copy-3" cx="76.0243944" cy="4.69387755" rx="4.56447178" ry="4.69387755"></ellipse>
                <ellipse id="Oval-Copy-8" cx="195.124265" cy="4.69387755" rx="4.56447178" ry="4.69387755"></ellipse>
                <ellipse id="Oval-Copy-4" cx="99.8443686" cy="4.69387755" rx="4.56447178" ry="4.69387755"></ellipse>
                <ellipse id="Oval-Copy-9" cx="218.94424" cy="4.69387755" rx="4.56447178" ry="4.69387755"></ellipse>
            </g>
            <g id="Group-Copy-5" transform="translate(0.000000, 104.000000)">
                <ellipse id="Oval" cx="4.56447178" cy="4.69387755" rx="4.56447178" ry="4.69387755"></ellipse>
                <ellipse id="Oval-Copy-5" cx="123.664343" cy="4.69387755" rx="4.56447178" ry="4.69387755"></ellipse>
                <ellipse id="Oval-Copy" cx="28.384446" cy="4.69387755" rx="4.56447178" ry="4.69387755"></ellipse>
                <ellipse id="Oval-Copy-6" cx="147.484317" cy="4.69387755" rx="4.56447178" ry="4.69387755"></ellipse>
                <ellipse id="Oval-Copy-2" cx="52.2044202" cy="4.69387755" rx="4.56447178" ry="4.69387755"></ellipse>
                <ellipse id="Oval-Copy-7" cx="171.304291" cy="4.69387755" rx="4.56447178" ry="4.69387755"></ellipse>
                <ellipse id="Oval-Copy-3" cx="76.0243944" cy="4.69387755" rx="4.56447178" ry="4.69387755"></ellipse>
                <ellipse id="Oval-Copy-8" cx="195.124265" cy="4.69387755" rx="4.56447178" ry="4.69387755"></ellipse>
                <ellipse id="Oval-Copy-4" cx="99.8443686" cy="4.69387755" rx="4.56447178" ry="4.69387755"></ellipse>
                <ellipse id="Oval-Copy-9" cx="218.94424" cy="4.69387755" rx="4.56447178" ry="4.69387755"></ellipse>
            </g>
            <g id="Group-Copy-6" transform="translate(0.000000, 124.000000)">
                <ellipse id="Oval" cx="4.56447178" cy="4.69387755" rx="4.56447178" ry="4.69387755"></ellipse>
                <ellipse id="Oval-Copy-5" cx="123.664343" cy="4.69387755" rx="4.56447178" ry="4.69387755"></ellipse>
                <ellipse id="Oval-Copy" cx="28.384446" cy="4.69387755" rx="4.56447178" ry="4.69387755"></ellipse>
                <ellipse id="Oval-Copy-6" cx="147.484317" cy="4.69387755" rx="4.56447178" ry="4.69387755"></ellipse>
                <ellipse id="Oval-Copy-2" cx="52.2044202" cy="4.69387755" rx="4.56447178" ry="4.69387755"></ellipse>
                <ellipse id="Oval-Copy-7" cx="171.304291" cy="4.69387755" rx="4.56447178" ry="4.69387755"></ellipse>
                <ellipse id="Oval-Copy-3" cx="76.0243944" cy="4.69387755" rx="4.56447178" ry="4.69387755"></ellipse>
                <ellipse id="Oval-Copy-8" cx="195.124265" cy="4.69387755" rx="4.56447178" ry="4.69387755"></ellipse>
                <ellipse id="Oval-Copy-4" cx="99.8443686" cy="4.69387755" rx="4.56447178" ry="4.69387755"></ellipse>
                <ellipse id="Oval-Copy-9" cx="218.94424" cy="4.69387755" rx="4.56447178" ry="4.69387755"></ellipse>
            </g>
            <g id="Group-Copy-7" transform="translate(0.000000, 145.000000)">
                <ellipse id="Oval" cx="4.56447178" cy="4.69387755" rx="4.56447178" ry="4.69387755"></ellipse>
                <ellipse id="Oval-Copy-5" cx="123.664343" cy="4.69387755" rx="4.56447178" ry="4.69387755"></ellipse>
                <ellipse id="Oval-Copy" cx="28.384446" cy="4.69387755" rx="4.56447178" ry="4.69387755"></ellipse>
                <ellipse id="Oval-Copy-6" cx="147.484317" cy="4.69387755" rx="4.56447178" ry="4.69387755"></ellipse>
                <ellipse id="Oval-Copy-2" cx="52.2044202" cy="4.69387755" rx="4.56447178" ry="4.69387755"></ellipse>
                <ellipse id="Oval-Copy-7" cx="171.304291" cy="4.69387755" rx="4.56447178" ry="4.69387755"></ellipse>
                <ellipse id="Oval-Copy-3" cx="76.0243944" cy="4.69387755" rx="4.56447178" ry="4.69387755"></ellipse>
                <ellipse id="Oval-Copy-8" cx="195.124265" cy="4.69387755" rx="4.56447178" ry="4.69387755"></ellipse>
                <ellipse id="Oval-Copy-4" cx="99.8443686" cy="4.69387755" rx="4.56447178" ry="4.69387755"></ellipse>
                <ellipse id="Oval-Copy-9" cx="218.94424" cy="4.69387755" rx="4.56447178" ry="4.69387755"></ellipse>
            </g>
            <g id="Group-Copy-8" transform="translate(0.000000, 165.000000)">
                <ellipse id="Oval" cx="4.56447178" cy="4.69387755" rx="4.56447178" ry="4.69387755"></ellipse>
                <ellipse id="Oval-Copy-5" cx="123.664343" cy="4.69387755" rx="4.56447178" ry="4.69387755"></ellipse>
                <ellipse id="Oval-Copy" cx="28.384446" cy="4.69387755" rx="4.56447178" ry="4.69387755"></ellipse>
                <ellipse id="Oval-Copy-6" cx="147.484317" cy="4.69387755" rx="4.56447178" ry="4.69387755"></ellipse>
                <ellipse id="Oval-Copy-2" cx="52.2044202" cy="4.69387755" rx="4.56447178" ry="4.69387755"></ellipse>
                <ellipse id="Oval-Copy-7" cx="171.304291" cy="4.69387755" rx="4.56447178" ry="4.69387755"></ellipse>
                <ellipse id="Oval-Copy-3" cx="76.0243944" cy="4.69387755" rx="4.56447178" ry="4.69387755"></ellipse>
                <ellipse id="Oval-Copy-8" cx="195.124265" cy="4.69387755" rx="4.56447178" ry="4.69387755"></ellipse>
                <ellipse id="Oval-Copy-4" cx="99.8443686" cy="4.69387755" rx="4.56447178" ry="4.69387755"></ellipse>
                <ellipse id="Oval-Copy-9" cx="218.94424" cy="4.69387755" rx="4.56447178" ry="4.69387755"></ellipse>
            </g>
            <g id="Group-Copy-9" transform="translate(0.000000, 186.000000)">
                <ellipse id="Oval" cx="4.56447178" cy="4.69387755" rx="4.56447178" ry="4.69387755"></ellipse>
                <ellipse id="Oval-Copy-5" cx="123.664343" cy="4.69387755" rx="4.56447178" ry="4.69387755"></ellipse>
                <ellipse id="Oval-Copy" cx="28.384446" cy="4.69387755" rx="4.56447178" ry="4.69387755"></ellipse>
                <ellipse id="Oval-Copy-6" cx="147.484317" cy="4.69387755" rx="4.56447178" ry="4.69387755"></ellipse>
                <ellipse id="Oval-Copy-2" cx="52.2044202" cy="4.69387755" rx="4.56447178" ry="4.69387755"></ellipse>
                <ellipse id="Oval-Copy-7" cx="171.304291" cy="4.69387755" rx="4.56447178" ry="4.69387755"></ellipse>
                <ellipse id="Oval-Copy-3" cx="76.0243944" cy="4.69387755" rx="4.56447178" ry="4.69387755"></ellipse>
                <ellipse id="Oval-Copy-8" cx="195.124265" cy="4.69387755" rx="4.56447178" ry="4.69387755"></ellipse>
                <ellipse id="Oval-Copy-4" cx="99.8443686" cy="4.69387755" rx="4.56447178" ry="4.69387755"></ellipse>
                <ellipse id="Oval-Copy-9" cx="218.94424" cy="4.69387755" rx="4.56447178" ry="4.69387755"></ellipse>
            </g>
            <g id="Group-Copy-10" transform="translate(0.000000, 206.000000)">
                <ellipse id="Oval" cx="4.56447178" cy="4.69387755" rx="4.56447178" ry="4.69387755"></ellipse>
                <ellipse id="Oval-Copy-5" cx="123.664343" cy="4.69387755" rx="4.56447178" ry="4.69387755"></ellipse>
                <ellipse id="Oval-Copy" cx="28.384446" cy="4.69387755" rx="4.56447178" ry="4.69387755"></ellipse>
                <ellipse id="Oval-Copy-6" cx="147.484317" cy="4.69387755" rx="4.56447178" ry="4.69387755"></ellipse>
                <ellipse id="Oval-Copy-2" cx="52.2044202" cy="4.69387755" rx="4.56447178" ry="4.69387755"></ellipse>
                <ellipse id="Oval-Copy-7" cx="171.304291" cy="4.69387755" rx="4.56447178" ry="4.69387755"></ellipse>
                <ellipse id="Oval-Copy-3" cx="76.0243944" cy="4.69387755" rx="4.56447178" ry="4.69387755"></ellipse>
                <ellipse id="Oval-Copy-8" cx="195.124265" cy="4.69387755" rx="4.56447178" ry="4.69387755"></ellipse>
                <ellipse id="Oval-Copy-4" cx="99.8443686" cy="4.69387755" rx="4.56447178" ry="4.69387755"></ellipse>
                <ellipse id="Oval-Copy-9" cx="218.94424" cy="4.69387755" rx="4.56447178" ry="4.69387755"></ellipse>
            </g>
        </g>
        <g id="Group-2-Copy-2" transform="translate(3.000000, 225.000000)" fill="#2E2E2E">
            <g id="Group">
                <ellipse id="Oval" cx="4.56447178" cy="4.69387755" rx="4.56447178" ry="4.69387755"></ellipse>
                <ellipse id="Oval-Copy-5" cx="123.664343" cy="4.69387755" rx="4.56447178" ry="4.69387755"></ellipse>
                <ellipse id="Oval-Copy" cx="28.384446" cy="4.69387755" rx="4.56447178" ry="4.69387755"></ellipse>
                <ellipse id="Oval-Copy-6" cx="147.484317" cy="4.69387755" rx="4.56447178" ry="4.69387755"></ellipse>
                <ellipse id="Oval-Copy-2" cx="52.2044202" cy="4.69387755" rx="4.56447178" ry="4.69387755"></ellipse>
                <ellipse id="Oval-Copy-7" cx="171.304291" cy="4.69387755" rx="4.56447178" ry="4.69387755"></ellipse>
                <ellipse id="Oval-Copy-3" cx="76.0243944" cy="4.69387755" rx="4.56447178" ry="4.69387755"></ellipse>
                <ellipse id="Oval-Copy-8" cx="195.124265" cy="4.69387755" rx="4.56447178" ry="4.69387755"></ellipse>
                <ellipse id="Oval-Copy-4" cx="99.8443686" cy="4.69387755" rx="4.56447178" ry="4.69387755"></ellipse>
                <ellipse id="Oval-Copy-9" cx="218.94424" cy="4.69387755" rx="4.56447178" ry="4.69387755"></ellipse>
            </g>
            <g id="Group-Copy" transform="translate(0.000000, 21.000000)">
                <ellipse id="Oval" cx="4.56447178" cy="4.69387755" rx="4.56447178" ry="4.69387755"></ellipse>
                <ellipse id="Oval-Copy-5" cx="123.664343" cy="4.69387755" rx="4.56447178" ry="4.69387755"></ellipse>
                <ellipse id="Oval-Copy" cx="28.384446" cy="4.69387755" rx="4.56447178" ry="4.69387755"></ellipse>
                <ellipse id="Oval-Copy-6" cx="147.484317" cy="4.69387755" rx="4.56447178" ry="4.69387755"></ellipse>
                <ellipse id="Oval-Copy-2" cx="52.2044202" cy="4.69387755" rx="4.56447178" ry="4.69387755"></ellipse>
                <ellipse id="Oval-Copy-7" cx="171.304291" cy="4.69387755" rx="4.56447178" ry="4.69387755"></ellipse>
                <ellipse id="Oval-Copy-3" cx="76.0243944" cy="4.69387755" rx="4.56447178" ry="4.69387755"></ellipse>
                <ellipse id="Oval-Copy-8" cx="195.124265" cy="4.69387755" rx="4.56447178" ry="4.69387755"></ellipse>
                <ellipse id="Oval-Copy-4" cx="99.8443686" cy="4.69387755" rx="4.56447178" ry="4.69387755"></ellipse>
                <ellipse id="Oval-Copy-9" cx="218.94424" cy="4.69387755" rx="4.56447178" ry="4.69387755"></ellipse>
            </g>
            <g id="Group-Copy-2" transform="translate(0.000000, 41.000000)">
                <ellipse id="Oval" cx="4.56447178" cy="4.69387755" rx="4.56447178" ry="4.69387755"></ellipse>
                <ellipse id="Oval-Copy-5" cx="123.664343" cy="4.69387755" rx="4.56447178" ry="4.69387755"></ellipse>
                <ellipse id="Oval-Copy" cx="28.384446" cy="4.69387755" rx="4.56447178" ry="4.69387755"></ellipse>
                <ellipse id="Oval-Copy-6" cx="147.484317" cy="4.69387755" rx="4.56447178" ry="4.69387755"></ellipse>
                <ellipse id="Oval-Copy-2" cx="52.2044202" cy="4.69387755" rx="4.56447178" ry="4.69387755"></ellipse>
                <ellipse id="Oval-Copy-7" cx="171.304291" cy="4.69387755" rx="4.56447178" ry="4.69387755"></ellipse>
                <ellipse id="Oval-Copy-3" cx="76.0243944" cy="4.69387755" rx="4.56447178" ry="4.69387755"></ellipse>
                <ellipse id="Oval-Copy-8" cx="195.124265" cy="4.69387755" rx="4.56447178" ry="4.69387755"></ellipse>
                <ellipse id="Oval-Copy-4" cx="99.8443686" cy="4.69387755" rx="4.56447178" ry="4.69387755"></ellipse>
                <ellipse id="Oval-Copy-9" cx="218.94424" cy="4.69387755" rx="4.56447178" ry="4.69387755"></ellipse>
            </g>
            <g id="Group-Copy-3" transform="translate(0.000000, 62.000000)">
                <ellipse id="Oval" cx="4.56447178" cy="4.69387755" rx="4.56447178" ry="4.69387755"></ellipse>
                <ellipse id="Oval-Copy-5" cx="123.664343" cy="4.69387755" rx="4.56447178" ry="4.69387755"></ellipse>
                <ellipse id="Oval-Copy" cx="28.384446" cy="4.69387755" rx="4.56447178" ry="4.69387755"></ellipse>
                <ellipse id="Oval-Copy-6" cx="147.484317" cy="4.69387755" rx="4.56447178" ry="4.69387755"></ellipse>
                <ellipse id="Oval-Copy-2" cx="52.2044202" cy="4.69387755" rx="4.56447178" ry="4.69387755"></ellipse>
                <ellipse id="Oval-Copy-7" cx="171.304291" cy="4.69387755" rx="4.56447178" ry="4.69387755"></ellipse>
                <ellipse id="Oval-Copy-3" cx="76.0243944" cy="4.69387755" rx="4.56447178" ry="4.69387755"></ellipse>
                <ellipse id="Oval-Copy-8" cx="195.124265" cy="4.69387755" rx="4.56447178" ry="4.69387755"></ellipse>
                <ellipse id="Oval-Copy-4" cx="99.8443686" cy="4.69387755" rx="4.56447178" ry="4.69387755"></ellipse>
                <ellipse id="Oval-Copy-9" cx="218.94424" cy="4.69387755" rx="4.56447178" ry="4.69387755"></ellipse>
            </g>
            <g id="Group-Copy-4" transform="translate(0.000000, 83.000000)">
                <ellipse id="Oval" cx="4.56447178" cy="4.69387755" rx="4.56447178" ry="4.69387755"></ellipse>
                <ellipse id="Oval-Copy-5" cx="123.664343" cy="4.69387755" rx="4.56447178" ry="4.69387755"></ellipse>
                <ellipse id="Oval-Copy" cx="28.384446" cy="4.69387755" rx="4.56447178" ry="4.69387755"></ellipse>
                <ellipse id="Oval-Copy-6" cx="147.484317" cy="4.69387755" rx="4.56447178" ry="4.69387755"></ellipse>
                <ellipse id="Oval-Copy-2" cx="52.2044202" cy="4.69387755" rx="4.56447178" ry="4.69387755"></ellipse>
                <ellipse id="Oval-Copy-7" cx="171.304291" cy="4.69387755" rx="4.56447178" ry="4.69387755"></ellipse>
                <ellipse id="Oval-Copy-3" cx="76.0243944" cy="4.69387755" rx="4.56447178" ry="4.69387755"></ellipse>
                <ellipse id="Oval-Copy-8" cx="195.124265" cy="4.69387755" rx="4.56447178" ry="4.69387755"></ellipse>
                <ellipse id="Oval-Copy-4" cx="99.8443686" cy="4.69387755" rx="4.56447178" ry="4.69387755"></ellipse>
                <ellipse id="Oval-Copy-9" cx="218.94424" cy="4.69387755" rx="4.56447178" ry="4.69387755"></ellipse>
            </g>
            <g id="Group-Copy-5" transform="translate(0.000000, 104.000000)">
                <ellipse id="Oval" cx="4.56447178" cy="4.69387755" rx="4.56447178" ry="4.69387755"></ellipse>
                <ellipse id="Oval-Copy-5" cx="123.664343" cy="4.69387755" rx="4.56447178" ry="4.69387755"></ellipse>
                <ellipse id="Oval-Copy" cx="28.384446" cy="4.69387755" rx="4.56447178" ry="4.69387755"></ellipse>
                <ellipse id="Oval-Copy-6" cx="147.484317" cy="4.69387755" rx="4.56447178" ry="4.69387755"></ellipse>
                <ellipse id="Oval-Copy-2" cx="52.2044202" cy="4.69387755" rx="4.56447178" ry="4.69387755"></ellipse>
                <ellipse id="Oval-Copy-7" cx="171.304291" cy="4.69387755" rx="4.56447178" ry="4.69387755"></ellipse>
                <ellipse id="Oval-Copy-3" cx="76.0243944" cy="4.69387755" rx="4.56447178" ry="4.69387755"></ellipse>
                <ellipse id="Oval-Copy-8" cx="195.124265" cy="4.69387755" rx="4.56447178" ry="4.69387755"></ellipse>
                <ellipse id="Oval-Copy-4" cx="99.8443686" cy="4.69387755" rx="4.56447178" ry="4.69387755"></ellipse>
                <ellipse id="Oval-Copy-9" cx="218.94424" cy="4.69387755" rx="4.56447178" ry="4.69387755"></ellipse>
            </g>
            <g id="Group-Copy-6" transform="translate(0.000000, 124.000000)">
                <ellipse id="Oval" cx="4.56447178" cy="4.69387755" rx="4.56447178" ry="4.69387755"></ellipse>
                <ellipse id="Oval-Copy-5" cx="123.664343" cy="4.69387755" rx="4.56447178" ry="4.69387755"></ellipse>
                <ellipse id="Oval-Copy" cx="28.384446" cy="4.69387755" rx="4.56447178" ry="4.69387755"></ellipse>
                <ellipse id="Oval-Copy-6" cx="147.484317" cy="4.69387755" rx="4.56447178" ry="4.69387755"></ellipse>
                <ellipse id="Oval-Copy-2" cx="52.2044202" cy="4.69387755" rx="4.56447178" ry="4.69387755"></ellipse>
                <ellipse id="Oval-Copy-7" cx="171.304291" cy="4.69387755" rx="4.56447178" ry="4.69387755"></ellipse>
                <ellipse id="Oval-Copy-3" cx="76.0243944" cy="4.69387755" rx="4.56447178" ry="4.69387755"></ellipse>
                <ellipse id="Oval-Copy-8" cx="195.124265" cy="4.69387755" rx="4.56447178" ry="4.69387755"></ellipse>
                <ellipse id="Oval-Copy-4" cx="99.8443686" cy="4.69387755" rx="4.56447178" ry="4.69387755"></ellipse>
                <ellipse id="Oval-Copy-9" cx="218.94424" cy="4.69387755" rx="4.56447178" ry="4.69387755"></ellipse>
            </g>
            <g id="Group-Copy-7" transform="translate(0.000000, 145.000000)">
                <ellipse id="Oval" cx="4.56447178" cy="4.69387755" rx="4.56447178" ry="4.69387755"></ellipse>
                <ellipse id="Oval-Copy-5" cx="123.664343" cy="4.69387755" rx="4.56447178" ry="4.69387755"></ellipse>
                <ellipse id="Oval-Copy" cx="28.384446" cy="4.69387755" rx="4.56447178" ry="4.69387755"></ellipse>
                <ellipse id="Oval-Copy-6" cx="147.484317" cy="4.69387755" rx="4.56447178" ry="4.69387755"></ellipse>
                <ellipse id="Oval-Copy-2" cx="52.2044202" cy="4.69387755" rx="4.56447178" ry="4.69387755"></ellipse>
                <ellipse id="Oval-Copy-7" cx="171.304291" cy="4.69387755" rx="4.56447178" ry="4.69387755"></ellipse>
                <ellipse id="Oval-Copy-3" cx="76.0243944" cy="4.69387755" rx="4.56447178" ry="4.69387755"></ellipse>
                <ellipse id="Oval-Copy-8" cx="195.124265" cy="4.69387755" rx="4.56447178" ry="4.69387755"></ellipse>
                <ellipse id="Oval-Copy-4" cx="99.8443686" cy="4.69387755" rx="4.56447178" ry="4.69387755"></ellipse>
                <ellipse id="Oval-Copy-9" cx="218.94424" cy="4.69387755" rx="4.56447178" ry="4.69387755"></ellipse>
            </g>
            <g id="Group-Copy-8" transform="translate(0.000000, 165.000000)">
                <ellipse id="Oval" cx="4.56447178" cy="4.69387755" rx="4.56447178" ry="4.69387755"></ellipse>
                <ellipse id="Oval-Copy-5" cx="123.664343" cy="4.69387755" rx="4.56447178" ry="4.69387755"></ellipse>
                <ellipse id="Oval-Copy" cx="28.384446" cy="4.69387755" rx="4.56447178" ry="4.69387755"></ellipse>
                <ellipse id="Oval-Copy-6" cx="147.484317" cy="4.69387755" rx="4.56447178" ry="4.69387755"></ellipse>
                <ellipse id="Oval-Copy-2" cx="52.2044202" cy="4.69387755" rx="4.56447178" ry="4.69387755"></ellipse>
                <ellipse id="Oval-Copy-7" cx="171.304291" cy="4.69387755" rx="4.56447178" ry="4.69387755"></ellipse>
                <ellipse id="Oval-Copy-3" cx="76.0243944" cy="4.69387755" rx="4.56447178" ry="4.69387755"></ellipse>
                <ellipse id="Oval-Copy-8" cx="195.124265" cy="4.69387755" rx="4.56447178" ry="4.69387755"></ellipse>
                <ellipse id="Oval-Copy-4" cx="99.8443686" cy="4.69387755" rx="4.56447178" ry="4.69387755"></ellipse>
                <ellipse id="Oval-Copy-9" cx="218.94424" cy="4.69387755" rx="4.56447178" ry="4.69387755"></ellipse>
            </g>
        </g>
        <g id="Group-2-Copy" transform="translate(242.000000, 0.000000)" fill="#2E2E2E">
            <g id="Group">
                <ellipse id="Oval" cx="4.56447178" cy="4.69387755" rx="4.56447178" ry="4.69387755"></ellipse>
                <ellipse id="Oval-Copy-5" cx="123.664343" cy="4.69387755" rx="4.56447178" ry="4.69387755"></ellipse>
                <ellipse id="Oval-Copy" cx="28.384446" cy="4.69387755" rx="4.56447178" ry="4.69387755"></ellipse>
                <ellipse id="Oval-Copy-6" cx="147.484317" cy="4.69387755" rx="4.56447178" ry="4.69387755"></ellipse>
                <ellipse id="Oval-Copy-2" cx="52.2044202" cy="4.69387755" rx="4.56447178" ry="4.69387755"></ellipse>
                <ellipse id="Oval-Copy-3" cx="76.0243944" cy="4.69387755" rx="4.56447178" ry="4.69387755"></ellipse>
                <ellipse id="Oval-Copy-4" cx="99.8443686" cy="4.69387755" rx="4.56447178" ry="4.69387755"></ellipse>
            </g>
            <g id="Group-Copy" transform="translate(0.000000, 21.000000)">
                <ellipse id="Oval" cx="4.56447178" cy="4.69387755" rx="4.56447178" ry="4.69387755"></ellipse>
                <ellipse id="Oval-Copy-5" cx="123.664343" cy="4.69387755" rx="4.56447178" ry="4.69387755"></ellipse>
                <ellipse id="Oval-Copy" cx="28.384446" cy="4.69387755" rx="4.56447178" ry="4.69387755"></ellipse>
                <ellipse id="Oval-Copy-6" cx="147.484317" cy="4.69387755" rx="4.56447178" ry="4.69387755"></ellipse>
                <ellipse id="Oval-Copy-2" cx="52.2044202" cy="4.69387755" rx="4.56447178" ry="4.69387755"></ellipse>
                <ellipse id="Oval-Copy-3" cx="76.0243944" cy="4.69387755" rx="4.56447178" ry="4.69387755"></ellipse>
                <ellipse id="Oval-Copy-4" cx="99.8443686" cy="4.69387755" rx="4.56447178" ry="4.69387755"></ellipse>
            </g>
            <g id="Group-Copy-2" transform="translate(0.000000, 41.000000)">
                <ellipse id="Oval" cx="4.56447178" cy="4.69387755" rx="4.56447178" ry="4.69387755"></ellipse>
                <ellipse id="Oval-Copy-5" cx="123.664343" cy="4.69387755" rx="4.56447178" ry="4.69387755"></ellipse>
                <ellipse id="Oval-Copy" cx="28.384446" cy="4.69387755" rx="4.56447178" ry="4.69387755"></ellipse>
                <ellipse id="Oval-Copy-6" cx="147.484317" cy="4.69387755" rx="4.56447178" ry="4.69387755"></ellipse>
                <ellipse id="Oval-Copy-2" cx="52.2044202" cy="4.69387755" rx="4.56447178" ry="4.69387755"></ellipse>
                <ellipse id="Oval-Copy-3" cx="76.0243944" cy="4.69387755" rx="4.56447178" ry="4.69387755"></ellipse>
                <ellipse id="Oval-Copy-4" cx="99.8443686" cy="4.69387755" rx="4.56447178" ry="4.69387755"></ellipse>
            </g>
            <g id="Group-Copy-3" transform="translate(0.000000, 62.000000)">
                <ellipse id="Oval" cx="4.56447178" cy="4.69387755" rx="4.56447178" ry="4.69387755"></ellipse>
                <ellipse id="Oval-Copy-5" cx="123.664343" cy="4.69387755" rx="4.56447178" ry="4.69387755"></ellipse>
                <ellipse id="Oval-Copy" cx="28.384446" cy="4.69387755" rx="4.56447178" ry="4.69387755"></ellipse>
                <ellipse id="Oval-Copy-6" cx="147.484317" cy="4.69387755" rx="4.56447178" ry="4.69387755"></ellipse>
                <ellipse id="Oval-Copy-2" cx="52.2044202" cy="4.69387755" rx="4.56447178" ry="4.69387755"></ellipse>
                <ellipse id="Oval-Copy-3" cx="76.0243944" cy="4.69387755" rx="4.56447178" ry="4.69387755"></ellipse>
                <ellipse id="Oval-Copy-4" cx="99.8443686" cy="4.69387755" rx="4.56447178" ry="4.69387755"></ellipse>
            </g>
            <g id="Group-Copy-4" transform="translate(0.000000, 83.000000)">
                <ellipse id="Oval" cx="4.56447178" cy="4.69387755" rx="4.56447178" ry="4.69387755"></ellipse>
                <ellipse id="Oval-Copy-5" cx="123.664343" cy="4.69387755" rx="4.56447178" ry="4.69387755"></ellipse>
                <ellipse id="Oval-Copy" cx="28.384446" cy="4.69387755" rx="4.56447178" ry="4.69387755"></ellipse>
                <ellipse id="Oval-Copy-6" cx="147.484317" cy="4.69387755" rx="4.56447178" ry="4.69387755"></ellipse>
                <ellipse id="Oval-Copy-2" cx="52.2044202" cy="4.69387755" rx="4.56447178" ry="4.69387755"></ellipse>
                <ellipse id="Oval-Copy-3" cx="76.0243944" cy="4.69387755" rx="4.56447178" ry="4.69387755"></ellipse>
                <ellipse id="Oval-Copy-4" cx="99.8443686" cy="4.69387755" rx="4.56447178" ry="4.69387755"></ellipse>
            </g>
            <g id="Group-Copy-5" transform="translate(0.000000, 104.000000)">
                <ellipse id="Oval" cx="4.56447178" cy="4.69387755" rx="4.56447178" ry="4.69387755"></ellipse>
                <ellipse id="Oval-Copy-5" cx="123.664343" cy="4.69387755" rx="4.56447178" ry="4.69387755"></ellipse>
                <ellipse id="Oval-Copy" cx="28.384446" cy="4.69387755" rx="4.56447178" ry="4.69387755"></ellipse>
                <ellipse id="Oval-Copy-6" cx="147.484317" cy="4.69387755" rx="4.56447178" ry="4.69387755"></ellipse>
                <ellipse id="Oval-Copy-2" cx="52.2044202" cy="4.69387755" rx="4.56447178" ry="4.69387755"></ellipse>
                <ellipse id="Oval-Copy-3" cx="76.0243944" cy="4.69387755" rx="4.56447178" ry="4.69387755"></ellipse>
                <ellipse id="Oval-Copy-4" cx="99.8443686" cy="4.69387755" rx="4.56447178" ry="4.69387755"></ellipse>
            </g>
            <g id="Group-Copy-6" transform="translate(0.000000, 124.000000)">
                <ellipse id="Oval" cx="4.56447178" cy="4.69387755" rx="4.56447178" ry="4.69387755"></ellipse>
                <ellipse id="Oval-Copy-5" cx="123.664343" cy="4.69387755" rx="4.56447178" ry="4.69387755"></ellipse>
                <ellipse id="Oval-Copy" cx="28.384446" cy="4.69387755" rx="4.56447178" ry="4.69387755"></ellipse>
                <ellipse id="Oval-Copy-6" cx="147.484317" cy="4.69387755" rx="4.56447178" ry="4.69387755"></ellipse>
                <ellipse id="Oval-Copy-2" cx="52.2044202" cy="4.69387755" rx="4.56447178" ry="4.69387755"></ellipse>
                <ellipse id="Oval-Copy-3" cx="76.0243944" cy="4.69387755" rx="4.56447178" ry="4.69387755"></ellipse>
                <ellipse id="Oval-Copy-4" cx="99.8443686" cy="4.69387755" rx="4.56447178" ry="4.69387755"></ellipse>
            </g>
            <g id="Group-Copy-7" transform="translate(0.000000, 145.000000)">
                <ellipse id="Oval" cx="4.56447178" cy="4.69387755" rx="4.56447178" ry="4.69387755"></ellipse>
                <ellipse id="Oval-Copy-5" cx="123.664343" cy="4.69387755" rx="4.56447178" ry="4.69387755"></ellipse>
                <ellipse id="Oval-Copy" cx="28.384446" cy="4.69387755" rx="4.56447178" ry="4.69387755"></ellipse>
                <ellipse id="Oval-Copy-6" cx="147.484317" cy="4.69387755" rx="4.56447178" ry="4.69387755"></ellipse>
                <ellipse id="Oval-Copy-2" cx="52.2044202" cy="4.69387755" rx="4.56447178" ry="4.69387755"></ellipse>
                <ellipse id="Oval-Copy-3" cx="76.0243944" cy="4.69387755" rx="4.56447178" ry="4.69387755"></ellipse>
                <ellipse id="Oval-Copy-4" cx="99.8443686" cy="4.69387755" rx="4.56447178" ry="4.69387755"></ellipse>
            </g>
            <g id="Group-Copy-8" transform="translate(0.000000, 165.000000)">
                <ellipse id="Oval" cx="4.56447178" cy="4.69387755" rx="4.56447178" ry="4.69387755"></ellipse>
                <ellipse id="Oval-Copy-5" cx="123.664343" cy="4.69387755" rx="4.56447178" ry="4.69387755"></ellipse>
                <ellipse id="Oval-Copy" cx="28.384446" cy="4.69387755" rx="4.56447178" ry="4.69387755"></ellipse>
                <ellipse id="Oval-Copy-6" cx="147.484317" cy="4.69387755" rx="4.56447178" ry="4.69387755"></ellipse>
                <ellipse id="Oval-Copy-2" cx="52.2044202" cy="4.69387755" rx="4.56447178" ry="4.69387755"></ellipse>
                <ellipse id="Oval-Copy-3" cx="76.0243944" cy="4.69387755" rx="4.56447178" ry="4.69387755"></ellipse>
                <ellipse id="Oval-Copy-4" cx="99.8443686" cy="4.69387755" rx="4.56447178" ry="4.69387755"></ellipse>
            </g>
            <g id="Group-Copy-9" transform="translate(0.000000, 186.000000)">
                <ellipse id="Oval" cx="4.56447178" cy="4.69387755" rx="4.56447178" ry="4.69387755"></ellipse>
                <ellipse id="Oval-Copy-5" cx="123.664343" cy="4.69387755" rx="4.56447178" ry="4.69387755"></ellipse>
                <ellipse id="Oval-Copy" cx="28.384446" cy="4.69387755" rx="4.56447178" ry="4.69387755"></ellipse>
                <ellipse id="Oval-Copy-6" cx="147.484317" cy="4.69387755" rx="4.56447178" ry="4.69387755"></ellipse>
                <ellipse id="Oval-Copy-2" cx="52.2044202" cy="4.69387755" rx="4.56447178" ry="4.69387755"></ellipse>
                <ellipse id="Oval-Copy-3" cx="76.0243944" cy="4.69387755" rx="4.56447178" ry="4.69387755"></ellipse>
                <ellipse id="Oval-Copy-4" cx="99.8443686" cy="4.69387755" rx="4.56447178" ry="4.69387755"></ellipse>
            </g>
            <g id="Group-Copy-10" transform="translate(0.000000, 206.000000)">
                <ellipse id="Oval" cx="4.56447178" cy="4.69387755" rx="4.56447178" ry="4.69387755"></ellipse>
                <ellipse id="Oval-Copy-5" cx="123.664343" cy="4.69387755" rx="4.56447178" ry="4.69387755"></ellipse>
                <ellipse id="Oval-Copy" cx="28.384446" cy="4.69387755" rx="4.56447178" ry="4.69387755"></ellipse>
                <ellipse id="Oval-Copy-6" cx="147.484317" cy="4.69387755" rx="4.56447178" ry="4.69387755"></ellipse>
                <ellipse id="Oval-Copy-2" cx="52.2044202" cy="4.69387755" rx="4.56447178" ry="4.69387755"></ellipse>
                <ellipse id="Oval-Copy-3" cx="76.0243944" cy="4.69387755" rx="4.56447178" ry="4.69387755"></ellipse>
                <ellipse id="Oval-Copy-4" cx="99.8443686" cy="4.69387755" rx="4.56447178" ry="4.69387755"></ellipse>
            </g>
        </g>
        <g id="Group-2-Copy-3" transform="translate(242.000000, 225.000000)" fill="#2E2E2E">
            <g id="Group">
                <ellipse id="Oval" cx="4.56447178" cy="4.69387755" rx="4.56447178" ry="4.69387755"></ellipse>
                <ellipse id="Oval-Copy-5" cx="123.664343" cy="4.69387755" rx="4.56447178" ry="4.69387755"></ellipse>
                <ellipse id="Oval-Copy" cx="28.384446" cy="4.69387755" rx="4.56447178" ry="4.69387755"></ellipse>
                <ellipse id="Oval-Copy-6" cx="147.484317" cy="4.69387755" rx="4.56447178" ry="4.69387755"></ellipse>
                <ellipse id="Oval-Copy-2" cx="52.2044202" cy="4.69387755" rx="4.56447178" ry="4.69387755"></ellipse>
                <ellipse id="Oval-Copy-3" cx="76.0243944" cy="4.69387755" rx="4.56447178" ry="4.69387755"></ellipse>
                <ellipse id="Oval-Copy-4" cx="99.8443686" cy="4.69387755" rx="4.56447178" ry="4.69387755"></ellipse>
            </g>
            <g id="Group-Copy" transform="translate(0.000000, 21.000000)">
                <ellipse id="Oval" cx="4.56447178" cy="4.69387755" rx="4.56447178" ry="4.69387755"></ellipse>
                <ellipse id="Oval-Copy-5" cx="123.664343" cy="4.69387755" rx="4.56447178" ry="4.69387755"></ellipse>
                <ellipse id="Oval-Copy" cx="28.384446" cy="4.69387755" rx="4.56447178" ry="4.69387755"></ellipse>
                <ellipse id="Oval-Copy-6" cx="147.484317" cy="4.69387755" rx="4.56447178" ry="4.69387755"></ellipse>
                <ellipse id="Oval-Copy-2" cx="52.2044202" cy="4.69387755" rx="4.56447178" ry="4.69387755"></ellipse>
                <ellipse id="Oval-Copy-3" cx="76.0243944" cy="4.69387755" rx="4.56447178" ry="4.69387755"></ellipse>
                <ellipse id="Oval-Copy-4" cx="99.8443686" cy="4.69387755" rx="4.56447178" ry="4.69387755"></ellipse>
            </g>
            <g id="Group-Copy-2" transform="translate(0.000000, 41.000000)">
                <ellipse id="Oval" cx="4.56447178" cy="4.69387755" rx="4.56447178" ry="4.69387755"></ellipse>
                <ellipse id="Oval-Copy-5" cx="123.664343" cy="4.69387755" rx="4.56447178" ry="4.69387755"></ellipse>
                <ellipse id="Oval-Copy" cx="28.384446" cy="4.69387755" rx="4.56447178" ry="4.69387755"></ellipse>
                <ellipse id="Oval-Copy-6" cx="147.484317" cy="4.69387755" rx="4.56447178" ry="4.69387755"></ellipse>
                <ellipse id="Oval-Copy-2" cx="52.2044202" cy="4.69387755" rx="4.56447178" ry="4.69387755"></ellipse>
                <ellipse id="Oval-Copy-3" cx="76.0243944" cy="4.69387755" rx="4.56447178" ry="4.69387755"></ellipse>
                <ellipse id="Oval-Copy-4" cx="99.8443686" cy="4.69387755" rx="4.56447178" ry="4.69387755"></ellipse>
            </g>
            <g id="Group-Copy-3" transform="translate(0.000000, 62.000000)">
                <ellipse id="Oval" cx="4.56447178" cy="4.69387755" rx="4.56447178" ry="4.69387755"></ellipse>
                <ellipse id="Oval-Copy-5" cx="123.664343" cy="4.69387755" rx="4.56447178" ry="4.69387755"></ellipse>
                <ellipse id="Oval-Copy" cx="28.384446" cy="4.69387755" rx="4.56447178" ry="4.69387755"></ellipse>
                <ellipse id="Oval-Copy-6" cx="147.484317" cy="4.69387755" rx="4.56447178" ry="4.69387755"></ellipse>
                <ellipse id="Oval-Copy-2" cx="52.2044202" cy="4.69387755" rx="4.56447178" ry="4.69387755"></ellipse>
                <ellipse id="Oval-Copy-3" cx="76.0243944" cy="4.69387755" rx="4.56447178" ry="4.69387755"></ellipse>
                <ellipse id="Oval-Copy-4" cx="99.8443686" cy="4.69387755" rx="4.56447178" ry="4.69387755"></ellipse>
            </g>
            <g id="Group-Copy-4" transform="translate(0.000000, 83.000000)">
                <ellipse id="Oval" cx="4.56447178" cy="4.69387755" rx="4.56447178" ry="4.69387755"></ellipse>
                <ellipse id="Oval-Copy-5" cx="123.664343" cy="4.69387755" rx="4.56447178" ry="4.69387755"></ellipse>
                <ellipse id="Oval-Copy" cx="28.384446" cy="4.69387755" rx="4.56447178" ry="4.69387755"></ellipse>
                <ellipse id="Oval-Copy-6" cx="147.484317" cy="4.69387755" rx="4.56447178" ry="4.69387755"></ellipse>
                <ellipse id="Oval-Copy-2" cx="52.2044202" cy="4.69387755" rx="4.56447178" ry="4.69387755"></ellipse>
                <ellipse id="Oval-Copy-3" cx="76.0243944" cy="4.69387755" rx="4.56447178" ry="4.69387755"></ellipse>
                <ellipse id="Oval-Copy-4" cx="99.8443686" cy="4.69387755" rx="4.56447178" ry="4.69387755"></ellipse>
            </g>
            <g id="Group-Copy-5" transform="translate(0.000000, 104.000000)">
                <ellipse id="Oval" cx="4.56447178" cy="4.69387755" rx="4.56447178" ry="4.69387755"></ellipse>
                <ellipse id="Oval-Copy-5" cx="123.664343" cy="4.69387755" rx="4.56447178" ry="4.69387755"></ellipse>
                <ellipse id="Oval-Copy" cx="28.384446" cy="4.69387755" rx="4.56447178" ry="4.69387755"></ellipse>
                <ellipse id="Oval-Copy-6" cx="147.484317" cy="4.69387755" rx="4.56447178" ry="4.69387755"></ellipse>
                <ellipse id="Oval-Copy-2" cx="52.2044202" cy="4.69387755" rx="4.56447178" ry="4.69387755"></ellipse>
                <ellipse id="Oval-Copy-3" cx="76.0243944" cy="4.69387755" rx="4.56447178" ry="4.69387755"></ellipse>
                <ellipse id="Oval-Copy-4" cx="99.8443686" cy="4.69387755" rx="4.56447178" ry="4.69387755"></ellipse>
            </g>
            <g id="Group-Copy-6" transform="translate(0.000000, 124.000000)">
                <ellipse id="Oval" cx="4.56447178" cy="4.69387755" rx="4.56447178" ry="4.69387755"></ellipse>
                <ellipse id="Oval-Copy-5" cx="123.664343" cy="4.69387755" rx="4.56447178" ry="4.69387755"></ellipse>
                <ellipse id="Oval-Copy" cx="28.384446" cy="4.69387755" rx="4.56447178" ry="4.69387755"></ellipse>
                <ellipse id="Oval-Copy-6" cx="147.484317" cy="4.69387755" rx="4.56447178" ry="4.69387755"></ellipse>
                <ellipse id="Oval-Copy-2" cx="52.2044202" cy="4.69387755" rx="4.56447178" ry="4.69387755"></ellipse>
                <ellipse id="Oval-Copy-3" cx="76.0243944" cy="4.69387755" rx="4.56447178" ry="4.69387755"></ellipse>
                <ellipse id="Oval-Copy-4" cx="99.8443686" cy="4.69387755" rx="4.56447178" ry="4.69387755"></ellipse>
            </g>
            <g id="Group-Copy-7" transform="translate(0.000000, 145.000000)">
                <ellipse id="Oval" cx="4.56447178" cy="4.69387755" rx="4.56447178" ry="4.69387755"></ellipse>
                <ellipse id="Oval-Copy-5" cx="123.664343" cy="4.69387755" rx="4.56447178" ry="4.69387755"></ellipse>
                <ellipse id="Oval-Copy" cx="28.384446" cy="4.69387755" rx="4.56447178" ry="4.69387755"></ellipse>
                <ellipse id="Oval-Copy-6" cx="147.484317" cy="4.69387755" rx="4.56447178" ry="4.69387755"></ellipse>
                <ellipse id="Oval-Copy-2" cx="52.2044202" cy="4.69387755" rx="4.56447178" ry="4.69387755"></ellipse>
                <ellipse id="Oval-Copy-3" cx="76.0243944" cy="4.69387755" rx="4.56447178" ry="4.69387755"></ellipse>
                <ellipse id="Oval-Copy-4" cx="99.8443686" cy="4.69387755" rx="4.56447178" ry="4.69387755"></ellipse>
            </g>
            <g id="Group-Copy-8" transform="translate(0.000000, 165.000000)">
                <ellipse id="Oval" cx="4.56447178" cy="4.69387755" rx="4.56447178" ry="4.69387755"></ellipse>
                <ellipse id="Oval-Copy-5" cx="123.664343" cy="4.69387755" rx="4.56447178" ry="4.69387755"></ellipse>
                <ellipse id="Oval-Copy" cx="28.384446" cy="4.69387755" rx="4.56447178" ry="4.69387755"></ellipse>
                <ellipse id="Oval-Copy-6" cx="147.484317" cy="4.69387755" rx="4.56447178" ry="4.69387755"></ellipse>
                <ellipse id="Oval-Copy-2" cx="52.2044202" cy="4.69387755" rx="4.56447178" ry="4.69387755"></ellipse>
                <ellipse id="Oval-Copy-3" cx="76.0243944" cy="4.69387755" rx="4.56447178" ry="4.69387755"></ellipse>
                <ellipse id="Oval-Copy-4" cx="99.8443686" cy="4.69387755" rx="4.56447178" ry="4.69387755"></ellipse>
            </g>
        </g>
    </g>
</svg>