<?xml version="1.0" encoding="utf-8"?>
<!-- Generator: Adobe Illustrator 16.2.1, SVG Export Plug-In . SVG Version: 6.00 Build 0)  -->
<!DOCTYPE svg PUBLIC "-//W3C//DTD SVG 1.1//EN" "http://www.w3.org/Graphics/SVG/1.1/DTD/svg11.dtd">
<svg version="1.1" id="Слой_1" xmlns="http://www.w3.org/2000/svg" xmlns:xlink="http://www.w3.org/1999/xlink" x="0px" y="0px"
	 width="32px" height="32px" viewBox="0 0 32 32" enable-background="new 0 0 32 32" xml:space="preserve">
<g>
	<g>
		<path fill="#19262D" d="M7,28c-1.104,0-2,0.896-2,2s0.896,2,2,2s2-0.896,2-2S8.104,28,7,28z M25,28c-1.104,0-2,0.896-2,2
			s0.896,2,2,2c1.104,0,2-0.896,2-2S26.104,28,25,28z"/>
	</g>
	<g>
		<path fill="#19262D" d="M7,28c-1.104,0-2,0.896-2,2s0.896,2,2,2s2-0.896,2-2S8.104,28,7,28z M25,28c-1.104,0-2,0.896-2,2
			s0.896,2,2,2c1.104,0,2-0.896,2-2S26.104,28,25,28z"/>
	</g>
</g>
<path fill="#475F6C" d="M16,0c6.627,0,12,5.373,12,12v2c0,6.627-5.373,12-12,12C9.373,26,4,20.627,4,14v-2C4,5.373,9.374,0,16,0z"/>
<path fill="#324D5B" d="M30,18v10c0,1.105-0.896,2-2,2H4c-1.104,0-2-0.895-2-2V18H30z"/>
<path fill="#5B717C" d="M16,17c7.938,0,10,2.012,10,3c0,0.989,0,4,0,4c0,1.105-0.896,1-2,1H8c-1.104,0-2,0.105-2-1c0,0,0-3.066,0-4
	S8.062,17,16,17z"/>
<g>
	<path fill="#324D5B" d="M5,12c-2.762,0-5,2.238-5,5c0,2.762,2.238,5,5,5s5-2.238,5-5C10,14.238,7.762,12,5,12z M27,12
		c-2.763,0-5,2.238-5,5c0,2.762,2.237,5,5,5c2.762,0,5-2.238,5-5C32,14.238,29.762,12,27,12z"/>
</g>
<circle fill="#324D5B" cx="5" cy="17" r="5"/>
<circle fill="#324D5B" cx="27" cy="17" r="5"/>
<g>
	<g>
		<path fill="#324D5B" d="M18.75,11.445l-1.473-1.474l1.444-1.444c0.354-0.354,0.354-0.926,0-1.279
			c-0.353-0.352-0.925-0.352-1.278,0L16,8.693l-1.444-1.445c-0.354-0.352-0.926-0.352-1.278,0c-0.354,0.354-0.354,0.926,0,1.279
			l1.444,1.444l-1.473,1.474c-0.354,0.353-0.354,0.925,0,1.277c0.353,0.354,0.925,0.354,1.278,0L16,11.249l1.473,1.473
			c0.354,0.354,0.926,0.354,1.277,0C19.104,12.37,19.104,11.798,18.75,11.445z"/>
	</g>
	<g>
		<path fill="#324D5B" d="M18.75,11.445l-1.473-1.474l1.444-1.444c0.354-0.354,0.354-0.926,0-1.279
			c-0.353-0.352-0.925-0.352-1.278,0L16,8.693l-1.444-1.445c-0.354-0.352-0.926-0.352-1.278,0c-0.354,0.354-0.354,0.926,0,1.279
			l1.444,1.444l-1.473,1.474c-0.354,0.353-0.354,0.925,0,1.277c0.353,0.354,0.925,0.354,1.278,0L16,11.249l1.473,1.473
			c0.354,0.354,0.926,0.354,1.277,0C19.104,12.37,19.104,11.798,18.75,11.445z"/>
	</g>
</g>
<circle fill="#5B717C" cx="5" cy="17" r="3.544"/>
<circle fill="#5B717C" cx="27" cy="17" r="3.543"/>
<path fill="#53656D" d="M6,24c0,0.863,0.55,0.986,1.315,1H8h16h0.685C25.451,24.986,26,24.863,26,24c0,0,0-0.977,0-2H6
	C6,23.021,6,24,6,24z"/>
</svg>
