<?xml version="1.0" encoding="UTF-8"?>
<svg width="491px" height="537px" viewBox="0 0 491 537" version="1.1" xmlns="http://www.w3.org/2000/svg" xmlns:xlink="http://www.w3.org/1999/xlink">
    <!-- Generator: Sketch 45.2 (43514) - http://www.bohemiancoding.com/sketch -->
    <title>parrot-captain</title>
    <desc>Created with Sketch.</desc>
    <defs>
        <linearGradient x1="50.0049432%" y1="1.43308758e-13%" x2="50.0049432%" y2="100%" id="linearGradient-1">
            <stop stop-color="#FF8D42" offset="0%"></stop>
            <stop stop-color="#FFCC1E" offset="100%"></stop>
        </linearGradient>
        <linearGradient x1="1.87199756%" y1="102.445768%" x2="91.7195603%" y2="25.0583807%" id="linearGradient-2">
            <stop stop-color="#FF6B21" offset="0%"></stop>
            <stop stop-color="#FF8A1F" offset="17%"></stop>
            <stop stop-color="#FFB31C" offset="42%"></stop>
            <stop stop-color="#FFD01B" offset="66%"></stop>
            <stop stop-color="#FFE219" offset="86%"></stop>
            <stop stop-color="#FFE819" offset="100%"></stop>
        </linearGradient>
        <linearGradient x1="46.6847162%" y1="-31.2787231%" x2="52.8301374%" y2="126.750498%" id="linearGradient-3">
            <stop stop-color="#FF8833" offset="0%"></stop>
            <stop stop-color="#FFE819" offset="100%"></stop>
        </linearGradient>
    </defs>
    <g id="Page-1" stroke="none" stroke-width="1" fill="none" fill-rule="evenodd">
        <g id="parrot-captain" transform="translate(3.000000, 3.000000)">
            <g id="colors" transform="translate(74.000000, 0.000000)">
                <path d="M320.66,252.83 C313.160315,255.34483 305.468202,257.244447 297.66,258.51 C296.18,246.51 301.11,237.51 308.45,232.77 C323.39,223 348.28,230.28 349.31,262.93 L332.39,263.85 C332.195788,261.62159 331.581651,259.450056 330.58,257.45 C328.16,252.86 323.96,251.65 320.58,252.84 L320.66,252.83 Z" id="Shape" fill="#FFFFEB" fill-rule="nonzero"></path>
                <path d="M332.4,263.85 C333.63,278.71 322.4,284.14 312.34,280 L312.26,280 C307.61544,277.97197 303.779792,274.453027 301.36,270 C307.2,269.12 312.63,268.57 317.99,267.84 C313.31,260.16 316.22,254.4 320.63,252.84 C323.97,251.65 328.17,252.84 330.63,257.45 C331.617788,259.452827 332.218318,261.624235 332.4,263.85 L332.4,263.85 Z" id="Shape" fill="#FFFFEB" fill-rule="nonzero"></path>
                <path d="M320.66,252.83 L320.66,252.83 C316.25,254.4 313.34,260.16 318.02,267.83 C312.66,268.56 307.23,269.11 301.39,269.99 C300.134784,267.789339 299.166893,265.436828 298.51,262.99 C298.16179,261.515237 297.891417,260.023175 297.7,258.52 C305.494963,257.249062 313.17362,255.346119 320.66,252.83 Z" id="Shape" fill="#FFFFEB" fill-rule="nonzero"></path>
                <path d="M283.8,184.76 C290.3,178.22 312.9,200.7 306.39,207.24 L298.17,215.55 C295.365118,218.368057 291.227959,219.396569 287.43,218.22 C280.96,216.53 274.68,210.29 272.96,203.83 C271.735934,200.0303 272.73959,195.865128 275.56,193.04 L283.8,184.76 Z" id="Shape" fill="#21D96D" fill-rule="nonzero"></path>
                <path d="M287.66,530.04 L186.51,530.04 C186.531155,525.307345 188.941935,520.905754 192.918453,518.339478 C196.894971,515.773201 201.898847,515.389686 206.22,517.32 C208.536324,518.353872 210.752374,519.599144 212.84,521.04 C207.253276,498.899294 198.981979,477.52422 188.21,457.39 C192.46,457.74 196.62,455.39 199.33,450.71 C203.65,459.25 212.18,458.89 219.64,453.62 C218.15,469.57 221.54,493.83 229.25,511.22 C229.74962,512.353409 230.391442,513.418632 231.16,514.39 L231.16,514.39 C235.247417,519.628209 242.346681,521.462528 248.46,518.86 C252.130792,517.285471 255.70387,515.492253 259.16,513.49 C264.99189,510.072618 272.203462,510.024164 278.080745,513.362873 C283.958028,516.701582 287.609126,522.920795 287.66,529.68 C287.66,529.8 287.66,529.92 287.66,530.04 Z" id="Shape" fill="url(#linearGradient-1)" fill-rule="nonzero"></path>
                <path d="M287.43,218.22 L287.22,218.96 L273.22,233.06 L271.4,234.89 C267.259096,238.908831 260.661616,238.868305 256.570396,234.798905 C252.479176,230.729505 252.40337,224.132336 256.4,219.97 L258.22,218.14 L272.22,204.04 L272.97,203.83 C274.66,210.29 280.96,216.53 287.43,218.22 Z" id="Shape" fill="#21D96D" fill-rule="nonzero"></path>
                <path d="M274.91,241.3 C286.91,240.66 295.38,240.24 308.46,232.77 C301.12,237.56 296.19,246.47 297.67,258.51 C297.861417,260.013175 298.13179,261.505237 298.48,262.98 C299.136893,265.426828 300.104784,267.779339 301.36,269.98 C303.779792,274.433027 307.61544,277.95197 312.26,279.98 C303.360039,276.897362 294.125293,274.883241 284.75,273.98 C274.073848,272.878259 263.294175,273.336395 252.75,275.34 L267.35,260.65 C272.187591,255.79737 274.899742,249.222022 274.89,242.37 C274.89,242.01 274.89,241.65 274.89,241.29 L274.91,241.3 Z" id="Shape" fill="#FFFFEB" fill-rule="nonzero"></path>
                <path d="M274.9,241.3 C274.9,241.66 274.9,242.02 274.9,242.38 C274.909742,249.232022 272.197591,255.80737 267.36,260.66 L252.76,275.35 L236.19,292.04 C228.27,277.04 218.32,261.98 207.8,247.04 L230.31,224.4 L230.31,224.4 L230.63,224.07 C237.824662,216.808582 248.617283,214.458102 258.18,218.07 L256.36,219.9 C252.36337,224.062336 252.439176,230.659505 256.530396,234.728905 C260.621616,238.798305 267.219096,238.838831 271.36,234.82 L273.18,232.99 C274.208435,235.645971 274.789641,238.454006 274.9,241.3 L274.9,241.3 Z" id="Shape" fill="#21D96D" fill-rule="nonzero"></path>
                <path d="M254.14,501.32 C261.77,492.67 276.04,499.93 273.43,511.16 C273.43,511.26 273.38,511.36 273.36,511.46 C268.55127,510.230425 263.451545,510.949202 259.17,513.46 C255.71387,515.462253 252.140792,517.255471 248.47,518.83 C242.356681,521.432528 235.257417,519.598209 231.17,514.36 C241.66,511.81 249.07,507.04 254.14,501.32 Z" id="Shape" fill="#FFCC1E" fill-rule="nonzero"></path>
                <path d="M222.79,111.09 C244.17,120.71 274.17,150.04 239.51,203.54 C230.66,192.04 220.37,185.31 208.66,183.09 C198.66,181.19 187.71,182.55 175.76,187.04 C172.06,188.546667 168.456667,189.88 164.95,191.04 C158.695093,193.200043 152.229045,194.691693 145.66,195.49 C142.166887,195.893196 138.641401,195.933411 135.14,195.61 C140.67,189.37 143.47,177.89 143.47,165.04 C144.47,146.04 150.73,132.41 159.58,123.16 C161.57537,121.073851 163.74673,119.163457 166.07,117.45 C171.082061,113.769633 176.695572,110.988255 182.66,109.23 C196.92,104.92 212.12,106.29 222.79,111.09 Z" id="Shape" fill="url(#linearGradient-2)" fill-rule="nonzero"></path>
                <path d="M230.31,224.44 L207.8,247.04 C201.56,238.19 195.12,229.4 188.8,220.68 C191.574408,219.551052 194.189784,218.065196 196.58,216.26 L196.58,216.26 C208.082498,217.778009 219.389963,220.520228 230.31,224.44 L230.31,224.44 Z" id="Shape" fill="#00BFFF" fill-rule="nonzero"></path>
                <path d="M208.66,183.09 C212.53,196.36 206.43,208.91 196.58,216.3 L196.58,216.3 C194.189784,218.105196 191.574408,219.591052 188.8,220.72 C179.91,224.34 169.64,224.09 161.02,217.79 C161.38,208.11 162.56,198.56 164.96,191.05 C168.466667,189.89 172.07,188.556667 175.77,187.05 C187.66,182.55 198.66,181.19 208.66,183.09 Z" id="Shape" fill="url(#linearGradient-3)" fill-rule="nonzero"></path>
                <path d="M149.75,5.49 C186.16,19.98 202.46,57.49 182.67,109.22 L182.67,109.22 C176.716076,110.981468 171.112961,113.762724 166.11,117.44 C167.79,113.3 169.43,108.82 171.01,103.85 C185.01,62.03 175.51,31.85 144.21,19.42 C129.1,13.42 111.88,13.5 95.72,19.69 C74.04,27.99 57.05,44.6 79.44,109.38 C85.51,127.26 84.44,141.69 76.35,152.38 C67.35,164.28 51.35,169.38 27.41,168.04 L27.18,168.04 C9.51,168.46 8.18,190.46 20.49,195.49 C18.2186931,194.71536 15.9977426,193.800261 13.84,192.75 C-12.24,178.54 2.76,151.21 28.26,153.04 C39.14,153.66 47.64,152.76 53.95,150.48 L53.95,150.48 C60.02,148.29 64.08,144.82 66.29,140.19 C69.38,133.71 68.88,124.97 65.29,114.29 C61.2203079,102.889749 58.053871,91.1869722 55.82,79.29 C54.305538,71.3002688 53.681726,63.1672359 53.96,55.04 C55.05,31.96 65.85,15.04 90.36,5.67 C109.49,-1.63 130.72,-2.08 149.75,5.49 Z" id="Shape" fill="#E6975C" fill-rule="nonzero"></path>
                <path d="M162.49,249.04 C166.08,290.25 105.91,294.04 101.08,259.26 C100.256947,253.285964 103.209579,247.424473 108.5,244.53 C115.491,240.550147 123.358073,238.361795 131.4,238.16 C134.337369,238.101322 136.748951,235.819627 136.97,232.89 C137.32,228.38 137.97,222.65 139.07,216.89 L139.07,216.89 C141.86,208.6 160.91,211.28 160.91,220.78 L160.91,220.78 C160.721679,230.226394 161.249859,239.673471 162.49,249.04 L162.49,249.04 Z M146.15,255.92 C147.190105,254.721435 147.566029,253.084084 147.152891,251.551864 C146.739753,250.019645 145.59166,248.79322 144.09,248.28 C139.714155,246.956002 135.084342,246.70222 130.59,247.54 C125.969946,248.263504 121.469085,249.609053 117.21,251.54 C115.830127,252.237921 114.928524,253.62015 114.845951,255.164275 C114.763377,256.708401 115.512428,258.1789 116.81,259.02 C125.41,264.68 139.75,263.04 146.15,255.92 Z" id="Shape" fill="#CC8E41" fill-rule="nonzero"></path>
                <path d="M161.01,217.79 C161.01,218.79 160.95,219.79 160.93,220.72 L160.93,220.72 C160.93,211.22 141.88,208.54 139.09,216.83 C140.55,208.83 142.72,200.71 145.71,195.49 C152.262125,194.688227 158.711236,193.196619 164.95,191.04 C162.55,198.56 161.37,208.11 161.01,217.79 Z" id="Shape" fill="#94D1D4" fill-rule="nonzero"></path>
                <path d="M153.34,61.04 C153.744709,66.0160161 152.662269,71.0001152 150.23,75.36 C148.445835,78.6484166 148.032524,82.5083815 149.08,86.1 C149.18,86.44 149.31,86.97 149.46,87.6 L149.46,87.74 C150.85,93.89 142.53,97.32 139,92.1 L136.69,88.7 L137.77,93.19 C138.206171,95.0096288 137.868608,96.9286524 136.837675,98.4902128 C135.806742,100.051773 134.174669,101.116168 132.33,101.43 L132.19,101.43 C130.288273,101.755489 128.338162,101.251626 126.832129,100.045653 C125.326096,98.8396798 124.408114,97.0468837 124.31,95.12 L124.11,91.12 L122.97,95.04 C121.23,100.82 112.79,100.45 111.75,94.51 C111.652513,93.9587662 111.605652,93.3997709 111.61,92.84 C111.616494,90.0291446 110.147334,87.4211005 107.74,85.97 C100.49113,81.7163141 95.728616,74.2376783 94.94,65.87 C93.66,51.04 105.79,37.97 121.91,36.63 C138.03,35.29 152.11,46.23 153.34,61.04 Z" id="Shape" fill="#FFF7DE" fill-rule="nonzero"></path>
                <path d="M144.09,248.28 C145.59166,248.79322 146.739753,250.019645 147.152891,251.551864 C147.566029,253.084084 147.190105,254.721435 146.15,255.92 C139.75,263 125.41,264.68 116.81,259.02 C115.512428,258.1789 114.763377,256.708401 114.845951,255.164275 C114.928524,253.62015 115.830127,252.237921 117.21,251.54 C121.469085,249.609053 125.969946,248.263504 130.59,247.54 C135.084342,246.70222 139.714155,246.956002 144.09,248.28 Z" id="Shape" fill="#B87421" fill-rule="nonzero"></path>
                <path d="M139.03,92.11 C142.56,97.33 150.88,93.9 149.49,87.75 L149.49,87.61 C149.34,86.98 149.21,86.45 149.11,86.11 C148.062524,82.5183815 148.475835,78.6584166 150.26,75.37 C152.683817,71.0040104 153.755838,66.0163273 153.34,61.04 C152.11,46.22 138.04,35.28 121.91,36.62 C105.78,37.96 93.66,51.04 94.94,65.9 C95.728616,74.2676783 100.49113,81.7463141 107.74,86 C110.147334,87.4511005 111.616494,90.0591446 111.61,92.87 C111.605652,93.4297709 111.652513,93.9887662 111.75,94.54 C112.75,100.48 121.23,100.85 122.97,95.07 L124.14,91.16 L124.34,95.16 C124.438114,97.0868837 125.356096,98.8796798 126.862129,100.085653 C128.368162,101.291626 130.318273,101.795489 132.22,101.47 L132.36,101.47 C134.204669,101.156168 135.836742,100.091773 136.867675,98.5302128 C137.898608,96.9686524 138.236171,95.0496288 137.8,93.23 L136.72,88.74 L139.03,92.11 Z M131.26,118.67 L131.19,118.67 C108.72,121.89 89.9,141.67 80.55,172.25 L80.55,172.25 C70.21,194.05 44.98,203.85 20.5,195.44 C8.14,190.44 9.5,168.44 27.19,167.99 L27.42,167.99 C51.32,169.35 67.32,164.23 76.36,152.33 C84.47,141.67 85.52,127.24 79.45,109.33 C57.06,44.55 74.05,27.94 95.73,19.64 C111.89,13.45 129.11,13.36 144.22,19.37 C175.52,31.83 185.02,61.98 171.02,103.8 C169.44,108.8 167.8,113.25 166.12,117.39 C163.79673,119.103457 161.62537,121.013851 159.63,123.1 C149.83,118.78 140.26,117.41 131.26,118.67 Z" id="Shape" fill="#59A2B3" fill-rule="nonzero"></path>
                <path d="M95.53,453.1 C100.04,457.41 105.53,458.33 111.32,456.59 C104.513644,476.010578 100.352939,496.259119 98.95,516.79 L82.43,516.79 L82.43,456.6 C87.0957447,458.356468 92.3620192,456.949448 95.53,453.1 L95.53,453.1 Z" id="Shape" fill="#CC8E41" fill-rule="nonzero"></path>
                <path d="M98.94,516.79 L98.94,516.79 C98.82,518.63 98.72,520.47 98.65,522.31 C98.5676138,524.394673 97.6741094,526.364688 96.16,527.8 C93.8061207,530.044159 90.3413201,530.669593 87.3513746,529.390053 C84.3614291,528.110513 82.4217134,525.172229 82.42,521.92 L82.42,516.79 L98.94,516.79 Z" id="Shape" fill="#7DB1B3" fill-rule="nonzero"></path>
                <path d="M98.11,393.37 C99.8236751,395.112161 101.959883,396.380104 104.31,397.05 C98.92,408.05 88.47,411.98 80.9,408.97 C78.5828031,408.048392 76.5773507,406.483584 75.12,404.46 C73.6655313,402.386835 73.0053399,399.859651 73.26,397.34 C73.4000137,394.737179 74.2281963,392.218123 75.66,390.04 C76.8260784,388.356741 78.3445575,386.947456 80.11,385.91 C83.61,383.79 88.26,382.66 93.66,382.33 C93.6137744,386.4558 95.2155098,390.429543 98.11,393.37 Z" id="Shape" fill="#00BFFF" fill-rule="nonzero"></path>
                <path d="M59.32,390.78 C64.3816796,388.101238 70.3769076,387.829729 75.66,390.04 C74.2171941,392.201502 73.3719292,394.706246 73.21,397.3 C72.9553399,399.819651 73.6155313,402.346835 75.07,404.42 C76.5273507,406.443584 78.5328031,408.008392 80.85,408.93 C78.9299071,411.005563 76.6367536,412.701682 74.09,413.93 C72.1869824,414.858425 70.1694689,415.530929 68.09,415.93 C55.39,418.41 46.46,403.64 55.09,394.03 C56.3094736,392.718993 57.739092,391.620586 59.32,390.78 L59.32,390.78 Z" id="Shape" fill="#00BFFF" fill-rule="nonzero"></path>
                <path d="M65.26,114.29 C68.89,124.97 69.39,133.71 66.26,140.19 C45.47,124.79 41.72,100.54 55.75,79.28 C57.9964049,91.1814681 61.1762274,102.887628 65.26,114.29 L65.26,114.29 Z" id="Shape" fill="#59A2B3" fill-rule="nonzero"></path>
                <path d="M66.3,140.19 C64.09,144.82 60.03,148.29 53.96,150.48 L53.96,150.48 C0.22,111.37 13.18,73.04 53.96,55.06 C53.6740628,63.1761337 54.2878034,71.298973 55.79,79.28 C41.76,100.54 45.51,124.79 66.3,140.19 Z" id="Shape" fill="#59A2B3" fill-rule="nonzero"></path>
                <path d="M277.11,341.74 C293.22,341.91 295.57,364.14 282.25,370.86 C279.562476,372.157851 276.571588,372.697248 273.6,372.42 C260.42,371.42 254.75,363.86 253.41,354.42 C253.41,354.42 253.41,354.42 253.41,354.42 C252.910835,350.560302 252.98497,346.648016 253.63,342.81 L253.63,342.81 C241.63,337.49 239.45,327.16 243.44,315.06 C231.24,310.64 229.57,299.41 236.2,292.06 L236.2,292.06 L252.8,275.37 C263.344175,273.366395 274.123848,272.908259 284.8,274.01 C286.454613,278.909526 287.541719,283.982688 288.04,289.13 C288.99716,299.952444 287.535193,310.852294 283.76,321.04 C280.9,328.95 278.06,335.33 277.11,341.74 Z" id="Shape" fill="#00BFFF" fill-rule="nonzero"></path>
                <path d="M124,382.96 C121.47,390.73 117,396.1 110.67,397.33 C108.539813,397.513276 106.394776,397.415774 104.29,397.04 C103.75,396.89 101.67,396.04 101.54,395.93 C101.41,395.82 100.54,395.32 100.26,395.16 C100.26,395.16 98.37,393.64 98.11,393.37 C95.2436744,390.431234 93.6611202,386.474848 93.71,382.37 C88.31,382.7 83.66,383.83 80.16,385.95 C78.3805604,386.970061 76.8449026,388.365803 75.66,390.04 C70.3685199,387.801515 64.3513527,388.058502 59.27,390.74 C51.7235572,387.752883 44.42144,384.182067 37.43,380.06 L35.06,376.81 C18.22,359.05 8.62,340.47 5.12,322.49 C8.72,320.39 11.77,316.41 13.06,310.33 C14.06,336.5 44.89,329.96 41.22,304.59 C43.75,309.76 49.81,313 56.89,310.67 C69.36,306.43 73.66,289.89 78.06,279.04 C72.52,294.73 76.18,309.21 95.53,324.31 C109.13,333.88 119.63,346.04 124.02,359.61 C126.459355,367.20328 126.452359,375.37091 124,382.96 L124,382.96 Z" id="Shape" fill="#00BFFF" fill-rule="nonzero"></path>
                <path d="M151.43,386.35 C151.43,402.04 146.56,419.04 135.84,434.81 C133.093634,438.850257 130.059074,442.686902 126.76,446.29 C121.76,451.46 116.41,455.06 111.32,456.59 C105.54,458.33 100.04,457.41 95.53,453.1 C92.3620192,456.949448 87.0957447,458.356468 82.43,456.6 C77.4735327,454.907208 74.1524,450.237495 74.18,445 L74.18,414.04 L74.18,413.96 C76.7267536,412.731682 79.0199071,411.035563 80.94,408.96 C88.51,411.96 98.94,408.06 104.35,397.04 C106.41836,397.632932 108.597535,397.72887 110.71,397.32 C117.01,396.09 121.51,390.72 124.04,382.95 C126.490154,375.352659 126.490154,367.177341 124.04,359.58 C119.65,346.01 109.15,333.85 95.55,324.28 C76.2,309.18 72.55,294.7 78.08,279.01 C78.0744053,278.976901 78.0744053,278.943099 78.08,278.91 C78.9,276.69 79.82,274.55 80.83,272.47 L81.16,271.79 C82.7761417,268.529594 84.6277109,265.391284 86.7,262.4 C93.1,251.28 94.46,241.4 91.7,230.03 C90.9320983,225.70799 88.139631,222.015687 84.19,220.1 C81.0634819,218.574817 77.5276672,218.10127 74.11,218.75 L74.11,218.04 C73.9601764,202.549114 76.1068266,187.121539 80.48,172.26 C89.83,141.65 108.65,121.9 131.12,118.68 L131.19,118.68 C140.19,117.42 149.76,118.79 159.55,123.17 C150.7,132.42 144.44,146.02 143.44,165.05 C143.44,177.9 140.64,189.38 135.11,195.62 C138.611404,195.943339 142.136883,195.903124 145.63,195.5 C142.63,200.72 140.47,208.84 139.01,216.84 C139.01,216.84 139.01,216.84 139.01,216.84 C137.95,222.64 137.26,228.37 136.91,232.84 C136.684429,235.767473 134.275468,238.046688 131.34,238.11 C123.298073,238.311795 115.431,240.500147 108.44,244.48 C103.149579,247.374473 100.196947,253.235964 101.02,259.21 C102.67,271.07 110.77,278.44 120.58,281.37 C111.92,300.81 116.72,320.74 136.78,344.66 C146.21,355.29 151.43,370.11 151.43,386.35 Z" id="Shape" fill="#00BFFF" fill-rule="nonzero"></path>
                <path d="M253.41,354.44 L253.41,354.44 C253.242132,358.333592 252.774076,362.208426 252.01,366.03 C245.64,400.15 236.17,426.82 230.01,440.68 C228.244615,444.751009 225.649325,448.408937 222.39,451.42 C221.52274,452.201736 220.611234,452.932944 219.66,453.61 C212.2,458.88 203.66,459.24 199.35,450.7 C196.64,455.43 192.48,457.7 188.23,457.38 C184.803509,456.97506 181.676145,455.231644 179.53,452.53 C171.38,443.7 160.53,438.53 148.28,435.35 C156.886138,435.37315 165.462915,434.345548 173.82,432.29 C201.987562,425.230797 224.706965,404.462316 234.26,377.04 C243.15,345.76 235.17,324.26 227.65,308.71 C209.55,271.79 189.56,253.1 162.23,247.07 C161.185659,238.327482 160.751276,229.522859 160.93,220.72 C160.93,219.72 160.93,218.72 161.01,217.79 C169.63,224.09 179.9,224.34 188.79,220.72 C195.12,229.44 201.56,238.23 207.79,247.08 C218.31,261.98 228.26,277.02 236.18,292.08 L236.18,292.08 C229.55,299.46 231.18,310.69 243.42,315.08 C239.42,327.18 241.59,337.51 253.61,342.83 L253.61,342.83 C252.971618,346.669003 252.904223,350.581287 253.41,354.44 L253.41,354.44 Z" id="Shape" fill="#00BFFF" fill-rule="nonzero"></path>
                <path d="M86.72,262.41 C84.6477109,265.401284 82.7961417,268.539594 81.18,271.8 L80.85,272.48 C79.85,274.56 78.92,276.7 78.1,278.92 C78.0944053,278.953099 78.0944053,278.986901 78.1,279.02 C73.66,289.89 69.4,306.43 56.98,310.71 C49.9,313.04 43.84,309.8 41.31,304.63 C44.98,330 14.15,336.54 13.15,310.37 C11.86,316.45 8.81,320.43 5.21,322.53 C-0.62,292.65 10.41,264.42 33.12,244.33 C36.12,241.803333 39.1833333,239.39 42.31,237.09 L42.39,237.03 C50.9316129,230.718473 59.9903931,225.138693 69.47,220.35 C69.77,220.2 70.08,220.05 70.4,219.92 C70.72,219.79 70.93,219.69 71.2,219.59 L71.4,219.52 C71.7,219.413333 72,219.313333 72.3,219.22 C72.57,219.14 72.84,219.06 73.11,219 L73.56,218.89 L74.22,218.76 C77.6376672,218.11127 81.1734819,218.584817 84.3,220.11 C88.249631,222.025687 91.0420983,225.71799 91.81,230.04 C94.48,241.46 93.12,251.29 86.72,262.41 Z" id="Shape" fill="#00BFFF" fill-rule="nonzero"></path>
                <path d="M86.72,262.41 C84.7006285,265.434841 82.851104,268.569685 81.18,271.8 L80.85,272.48 C79.8036179,274.568928 78.8852557,276.719566 78.1,278.92 C78.0944053,278.953099 78.0944053,278.986901 78.1,279.02" id="Shape" stroke="#2C2C3D" stroke-width="6" stroke-linecap="round" stroke-linejoin="round"></path>
                <path d="M234.26,377.04 C224.705956,404.471144 201.977498,425.244788 173.8,432.3 C165.442915,434.355548 156.866138,435.38315 148.26,435.36 L147.17,435.36 C146.37,435.36 145.57,435.36 144.76,435.36 C141.826667,435.286667 138.853333,435.116667 135.84,434.85 C146.56,419.04 151.43,402.04 151.43,386.35 C151.43,370.11 146.21,355.29 136.84,344.71 C116.78,320.79 111.98,300.86 120.64,281.42 C139.57,287.07 164.85,276.18 162.49,249.04 C162.4,248.4 162.31,247.74 162.23,247.04 C189.56,253.04 209.55,271.76 227.65,308.68 C235.17,324.26 243.15,345.76 234.26,377.04 Z" id="Shape" fill="#52C8FF" fill-rule="nonzero"></path>
            </g>
            <g id="shadows" transform="translate(74.000000, 0.000000)" fill-rule="nonzero">
                <path d="M332.4,263.85 L349.32,262.94 C349.32,239.67 329.77,218.66 306.11,234.52 C300.01,239.27 296.74,246.93 297.73,258.96 C299.02,284.79 336.27,290.92 332.4,263.85 Z" id="Shape" fill="#994500" opacity="0.35"></path>
                <path d="M274.9,241.3 C276.48,251.11 282.44,256.57 297.67,252.83 C296.58,261.88 299.27,270.49 307.55,278.45 C290.85,271.58 272.55,270.11 252.21,275.93 C252.21,275.93 269.32,257.54 269.98,257.7 C270.64,257.86 274.9,241.3 274.9,241.3 Z" id="Shape" fill="#994500" opacity="0.15"></path>
                <path d="M244.34,232.91 L244.34,232.91 C245.366519,233.934288 245.943399,235.32486 245.943399,236.775 C245.943399,238.22514 245.366519,239.615712 244.34,240.64 L220.5,264.64 L214.09,255.59 L236.66,232.93 C238.781932,230.819776 242.207106,230.810856 244.34,232.91 L244.34,232.91 Z" id="Shape" fill="#FFFFFF" opacity="0.55"></path>
                <path d="M231.58,283.68 L259.09,256.04 C262.48827,252.715035 264.269863,248.074862 263.97,243.33 C263.839314,241.438898 263.296636,239.599254 262.38,237.94 L272.49,233.82 C276.16,242.5 276.63,251.62 265.08,262.41 L235.52,292.04 L231.58,283.68 Z" id="Shape" fill="#0083BA" opacity="0.4"></path>
                <path d="M287.86,218.32 C279.86,215.58 275.07,210.64 272.96,203.83 L267.55,208.91 C267.897628,210.79601 268.499798,212.626069 269.34,214.35 C270.845202,217.237523 270.338003,220.76376 268.08,223.11 L256.41,234.93 C261.41,238.86 266.84,238 272.49,234.93 L283.74,222.13 L287.86,218.32 Z" id="Shape" fill="#0083BA" opacity="0.4"></path>
                <path d="M284.77,183.58 C281.28,188.58 280.71,194.49 284.37,199.72 C285.354373,201.170367 285.16524,203.116334 283.92,204.35 L277.01,211.35 C272.71,207.9 272.01,201.62 273.39,193.81 L284.77,183.58 Z" id="Shape" fill="#FFFFFF" opacity="0.55"></path>
                <ellipse id="Oval" fill="#FFFFFF" opacity="0.25" transform="translate(105.266596, 377.679824) rotate(-60.000000) translate(-105.266596, -377.679824) " cx="105.266596" cy="377.679824" rx="13.06" ry="9.72"></ellipse>
                <ellipse id="Oval" fill="#FFFFFF" opacity="0.25" transform="translate(84.384074, 394.611737) rotate(-37.130000) translate(-84.384074, -394.611737) " cx="84.3840739" cy="394.611737" rx="11.65" ry="10.13"></ellipse>
                <ellipse id="Oval" fill="#FFFFFF" opacity="0.25" transform="translate(62.493973, 398.928556) rotate(-27.280000) translate(-62.493973, -398.928556) " cx="62.4939733" cy="398.928556" rx="12.32" ry="10.13"></ellipse>
                <ellipse id="Oval" fill="#FFFFFF" opacity="0.25" transform="translate(90.389472, 36.371505) rotate(-42.180000) translate(-90.389472, -36.371505) " cx="90.3894715" cy="36.3715048" rx="12.37" ry="7.06"></ellipse>
                <ellipse id="Oval" fill="#FFFFFF" transform="translate(112.078363, 59.913530) rotate(-60.000000) translate(-112.078363, -59.913530) " cx="112.078363" cy="59.9135304" rx="14.03" ry="10.13"></ellipse>
                <g id="Group" opacity="0.47" transform="translate(150.000000, 105.000000)" fill="#FFFFFF">
                    <ellipse id="Oval" transform="translate(31.424212, 29.399701) rotate(-37.120000) translate(-31.424212, -29.399701) " cx="31.424212" cy="29.3997015" rx="27.33" ry="15.6"></ellipse>
                    <circle id="Oval" cx="62.58" cy="29.41" r="6"></circle>
                </g>
                <circle id="Oval" fill="#FFFFFF" opacity="0.25" cx="79.52" cy="51.3" r="3.75"></circle>
                <path d="M53.94,62.74 C19.84,85.93 18.6,114.95 53.94,150.48 C68.86,145.26 70.24,132.85 66.29,117.61 C59.82,100.87 56.14,82.3 53.94,62.74 Z" id="Shape" fill="#1B2526" opacity="0.3"></path>
                <path d="M81.66,141.87 C106.04,108.37 134.07,93.99 168.98,115.46 L159.58,123.16 C129.66,111.93 105.43,121.32 87.66,154.38 C79.94,183.08 63.11,199.52 33.06,198.2 L13.81,192.71 C11.02,176.07 15.14,166.48 30.62,168.5 C56.52,169.33 75.05,162.12 81.66,141.87 Z" id="Shape" fill="#1B2526" opacity="0.3"></path>
                <path d="M18.34,154.37 C19.6113805,159.566071 22.3135659,164.301824 26.14,168.04 C16.33,169.4 9.71,174.59 13.83,192.71 C2.83,187.51 -0.83,178.98 1.31,167.84 C5.51,159.43 11.28,155.21 18.34,154.37 Z" id="Shape" fill="#994500" opacity="0.3"></path>
                <path d="M27.9,155.71 C56.46,160.71 79.82,150.48 76.49,126.88 C75.5944538,120.396038 73.8390094,114.060296 71.27,108.04 C55.19,61.63 58.46,28.66 88.15,14.04 C122.48,-0.96 170.15,8.71 186.79,51.54 C187.57,36.62 179.08,24.76 165.94,14.42 C132.22,-6.9 100.66,-3.41 70.61,17.22 C54.02,32.04 50.83,54.58 56.02,82.04 C63.61,104.2 69.4,125.15 66.29,140.19 C60.26,152.04 45.13,154.92 27.9,155.71 Z" id="Shape" fill="#FFFFFF" opacity="0.4"></path>
                <path d="M163.07,201.12 C180.15,185.21 209.83,198.27 194.84,217.52 C206.13,209.89 211.77,199.01 208.65,183.09 C194.34,180.36 179.51,182.09 163.81,191.42 L163.07,201.12 Z" id="Shape" fill="#994500" opacity="0.2"></path>
                <path d="M82.66,463.04 C94.66,468.41 100.66,478.14 102.5,490.9 L110.66,456.74 C103.75,457.74 99.07,456.06 95.53,453.1 C91.46,456.8 87.07,457.75 82.43,456.59 L82.66,463.04 Z" id="Shape" fill="#994500" opacity="0.3"></path>
                <path d="M163.07,251.17 C162.75,249.763333 162.453333,248.363333 162.18,246.97 C162.18,246.71 162.18,246.45 162.12,246.19 L162.06,246.27 C160.148146,236.808778 159.766631,227.102092 160.93,217.52 L150.29,212.04 C148.469752,225.167199 148.134303,238.457689 149.29,251.66 C148.67,251.66 148.03,251.66 147.36,251.58 C139.9,264.58 125.89,263.06 111.93,256.41 C111.93,266.58 116.93,282.91 132.93,282.91 C152.77,281.796667 162.593333,271.436667 162.4,251.83 L163.07,251.17 Z" id="Shape" fill="#994500" opacity="0.4"></path>
                <path d="M265.19,319.04 L265.19,319.04 C269.746457,322.067387 271.333159,328.015376 268.89,332.91 C262.36,346.31 261.52,361.54 266.63,370.09 C256.38,361.88 248.58,351.47 265.19,319.04 Z" id="Shape" fill="#FFFFFF" opacity="0.25"></path>
                <path d="M256,296.71 L256,296.71 C259.975047,300.010847 260.836064,305.77105 258,310.09 C251.23,320.48 247.35,330.61 252,339.97 C243.89,331.43 239.48,320.57 256,296.71 Z" id="Shape" fill="#FFFFFF" opacity="0.25"></path>
                <path d="M148.43,140.91 C138.57,127.91 125.57,124.52 110.65,127.04 C124.87,116.593333 141.203333,115.3 159.65,123.16 L148.43,140.91 Z" id="Shape" fill="#FFFFFF" opacity="0.25"></path>
                <circle id="Oval" fill="#FFFFFF" opacity="0.2" cx="105.33" cy="183.58" r="13"></circle>
                <polygon id="Shape" fill="#FFFFFF" opacity="0.4" points="150.29 212 154.5 193.99 145.7 195.48 140.04 212"></polygon>
                <path d="M232.66,374.65 C214.19,394.99 169.66,398.04 151.41,366.04 C151.41,381.42 153.5,403.04 135.84,434.81 C160.4,438.92 180.04,429.63 197.56,423.81 C206.23,420.9 231.15,389.93 232.66,374.65 Z" id="Shape" fill="#47BCFF"></path>
                <path d="M145.4,359.11 C142.852529,354.245321 139.649292,349.753388 135.88,345.76 C138.643396,350.488537 141.829769,354.956823 145.4,359.11 L145.4,359.11 Z" id="Shape" fill="#0083BA" opacity="0.3"></path>
                <polygon id="Shape" fill="#0083BA" opacity="0.35" points="188.79 220.72 207.25 246.3 230.31 224.44 197.76 215.36"></polygon>
                <ellipse id="Oval" fill="#FFFFFF" opacity="0.2" transform="translate(43.315885, 269.401761) rotate(-51.570000) translate(-43.315885, -269.401761) " cx="43.315885" cy="269.401761" rx="31.69" ry="16.83"></ellipse>
                <circle id="Oval" fill="#FFFFFF" opacity="0.2" cx="19.56" cy="306.27" r="6.12"></circle>
                <ellipse id="Oval" fill="#0083BA" opacity="0.4" transform="translate(295.845670, 195.442209) rotate(-45.000000) translate(-295.845670, -195.442209) " cx="295.84567" cy="195.442209" rx="4.84" ry="9.5"></ellipse>
                <ellipse id="Oval" fill="#FFFFFF" opacity="0.25" cx="87.15" cy="494.33" rx="6.25" ry="15.04"></ellipse>
                <path d="M250.34,376.23 C245.43,403.3 238.23,428.23 225.58,447.99 L215.23,456.09 L205.67,456.76 C208.092657,453.499331 210.142123,449.977336 211.78,446.26 C213.482013,442.439903 212.759619,437.974434 209.93996,434.885823 C207.120301,431.797212 202.738933,430.672098 198.78,432.02 C183.38,437.15 165.37,438.59 144.55,436.07 C198.61,435.62 224,403.28 233.44,377.69 C238.66,384.04 245.27,382.65 250.34,376.23 Z" id="Shape" fill="#0083BA" opacity="0.3"></path>
            </g>
            <g id="lines">
                <path d="M157.36,352.69 C164.23,357.69 169.72,363.23 171.62,370.27" id="Shape" stroke="#20396B" stroke-width="6" stroke-linecap="round" stroke-linejoin="round"></path>
                <path d="M134.6,367.75 C142,371.84 150.6,377.57 154.15,385.95" id="Shape" stroke="#20396B" stroke-width="6" stroke-linecap="round" stroke-linejoin="round"></path>
                <path d="M60.86,308.56 C58.44,327.56 82.77,330.83 87.1,310.38 C88.1,336.55 118.93,330 115.27,304.63 C117.8,309.8 123.85,313.04 130.94,310.71" id="Shape" stroke="#0093D1" stroke-width="6" opacity="0" stroke-linecap="round" stroke-linejoin="round"></path>
                <path d="M213.03,92.11 C216.56,97.33 224.89,93.9 223.5,87.75 L223.5,87.61 C223.35,86.98 223.21,86.46 223.12,86.11 C222.072524,82.5183815 222.485835,78.6584166 224.27,75.37 C226.690352,71.0029425 227.758879,66.0153225 227.34,61.04 C226.11,46.22 212.04,35.28 195.91,36.62 C179.78,37.96 167.66,51.04 168.94,65.9 C169.728616,74.2676783 174.49113,81.7463141 181.74,86 C184.147334,87.4511005 185.616494,90.0591446 185.61,92.87 L185.61,92.87 C185.606799,93.4297267 185.653652,93.9886187 185.75,94.54 C186.75,100.48 195.23,100.85 196.97,95.08 L198.14,91.17 L198.34,95.17 C198.438521,97.0974386 199.356173,98.890863 200.861722,100.098359 C202.367271,101.305856 204.317143,101.812272 206.22,101.49 L206.36,101.49 C208.204669,101.176168 209.836742,100.111773 210.867675,98.5502128 C211.898608,96.9886524 212.236171,95.0696288 211.8,93.25 L210.72,88.75 L213.03,92.11 Z" id="Shape" stroke="#20396B" stroke-width="6" stroke-linecap="round" stroke-linejoin="round"></path>
                <path d="M201.4,194.04 L204.2,194.85 C218.32,196.54 216.37,177.1 217.51,165.09 C220.51,107.68 271.45,99.74 296.79,111.14 C318.17,120.76 348.17,150.09 313.51,203.59 C297.15,182.33 275.75,177.33 249.76,187.09 C234.84,193.18 221.38,196.64 209.94,195.73 C208.00645,195.588531 206.087126,195.294279 204.2,194.85 L204.15,194.85" id="Shape" stroke="#20396B" stroke-width="6" stroke-linecap="round" stroke-linejoin="round"></path>
                <path d="M238.95,191.04 C233.76,207.28 234.26,233.04 236.49,249.04 C240.08,290.25 179.91,294.04 175.08,259.26 C174.255108,253.288233 177.203443,247.427372 182.49,244.53 C189.484767,240.550488 197.354977,238.362219 205.4,238.16 C208.333504,238.096241 210.739341,235.815888 210.96,232.89 C211.81,222.14 214.53,204.49 219.69,195.49" id="Shape" stroke="#20396B" stroke-width="6" stroke-linecap="round" stroke-linejoin="round"></path>
                <path d="M195.66,249.79 C194.001811,250.118257 192.405616,250.70544 190.93,251.53 C189.640648,252.241779 188.805271,253.56392 188.716053,255.033988 C188.626835,256.504056 189.296189,257.917518 190.49,258.78 C199.04,264.72 213.69,263.09 220.18,255.92 C221.220444,254.722819 221.597751,253.086773 221.186697,251.554846 C220.775643,250.022918 219.630003,248.795517 218.13,248.28 C213.754087,246.956389 209.124367,246.702612 204.63,247.54" id="Shape" stroke="#20396B" stroke-width="6" stroke-linecap="round" stroke-linejoin="round"></path>
                <path d="M213.07,216.85 C215.84,208.54 234.92,211.2 234.92,220.71" id="Shape" stroke="#20396B" stroke-width="6" stroke-linecap="round" stroke-linejoin="round"></path>
                <path d="M282.66,183.09 C290.51,210.04 257.26,234.04 235.01,217.79" id="Shape" stroke="#20396B" stroke-width="6" stroke-linecap="round" stroke-linejoin="round"></path>
                <path d="M283.83,120.29 C288.157506,121.579462 292.264262,123.518202 296.01,126.04" id="Shape" stroke="#20396B" stroke-width="6" stroke-linecap="round" stroke-linejoin="round"></path>
                <path d="M148.18,414.04 L148.18,445.04 C148.18,456.28 162.31,461.75 169.53,453.14 C170.667771,451.775732 171.672351,450.305695 172.53,448.75" id="Shape" stroke="#20396B" stroke-width="6" stroke-linecap="round" stroke-linejoin="round"></path>
                <path d="M148.18,218.76 L148.18,218.04 C148.18,146.37 188.67,103.04 233.62,123.16" id="Shape" stroke="#20396B" stroke-width="6" stroke-linecap="round" stroke-linejoin="round"></path>
                <path d="M177.34,161.62 C177.34,147.73 198.17,147.73 198.17,161.62" id="Shape" stroke="#20396B" stroke-width="6" stroke-linecap="round" stroke-linejoin="round"></path>
                <path d="M94.49,195.45 C82.13,190.45 83.49,168.45 101.18,168 L101.4,168 C125.3,169.37 141.31,164.24 150.35,152.35 C158.46,141.69 159.5,127.25 153.43,109.35 C131.05,44.57 148.03,27.96 169.72,19.66 C185.88,13.47 203.1,13.38 218.2,19.39 C249.5,31.85 259,62 245,103.82 C243.42,108.82 241.78,113.27 240.1,117.4" id="Shape" stroke="#20396B" stroke-width="4" stroke-linecap="round" stroke-linejoin="round"></path>
                <path d="M154.54,172.26 C143.26,196.04 114.26,205.54 87.84,192.71 C61.76,178.54 76.76,151.21 102.26,153.04 C138.26,155.04 148.18,140.54 139.26,114.29 C120.66,60.39 122.11,21.86 164.36,5.69 C183.49,-1.63 204.72,-2.08 223.75,5.49 C260.16,19.98 276.46,57.49 256.66,109.22" id="Shape" stroke="#20396B" stroke-width="6" stroke-linecap="round" stroke-linejoin="round"></path>
                <path d="M129.79,79.28 C115.79,100.54 119.51,124.79 140.3,140.18" id="Shape" stroke="#20396B" stroke-width="6" stroke-linecap="round" stroke-linejoin="round"></path>
                <path d="M127.96,55.04 C87.17,73.04 74.21,111.35 127.96,150.46" id="Shape" stroke="#20396B" stroke-width="6" stroke-linecap="round" stroke-linejoin="round"></path>
                <path d="M169.53,453.1 C178.01,461.21 190.01,457.33 200.76,446.29 C232.01,412.04 231.51,368.04 210.84,344.71" id="Shape" stroke="#20396B" stroke-width="6" stroke-linecap="round" stroke-linejoin="round"></path>
                <path d="M209.84,434.81 C222.557569,436.122778 235.405593,435.274132 247.84,432.3 C276.003145,425.234566 298.715136,404.462229 308.26,377.04" id="Shape" stroke="#20396B" stroke-width="6" stroke-linecap="round" stroke-linejoin="round"></path>
                <path d="M327.41,354.44 C327.41,354.44 327.41,354.44 327.41,354.44 C327.242092,358.333589 326.774036,362.20842 326.01,366.03 C319.64,400.15 310.17,426.82 304.01,440.68 C302.244615,444.751009 299.649325,448.408937 296.39,451.42 C287.39,459.56 275.61,460.63 271.78,446.53" id="Shape" stroke="#20396B" stroke-width="6" stroke-linecap="round" stroke-linejoin="round"></path>
                <path d="M310.19,292.04 C297.58,268.11 279.8,244.14 262.79,220.71" id="Shape" stroke="#20396B" stroke-width="6" stroke-linecap="round" stroke-linejoin="round"></path>
                <path d="M222.26,435.36 C234.53,438.56 245.36,443.71 253.51,452.54 C259.83,459.8 268.7,458.79 273.34,450.71" id="Shape" stroke="#20396B" stroke-width="6" stroke-linecap="round" stroke-linejoin="round"></path>
                <path d="M86,530.04 L0,530.04" id="Shape" stroke="#20396B" stroke-width="6" stroke-linecap="round" stroke-linejoin="round"></path>
                <path d="M96,530 L95.9,530" id="Shape" stroke="#20396B" stroke-width="6" stroke-linecap="round" stroke-linejoin="round"></path>
                <path d="M484.1,530 L484,530" id="Shape" stroke="#20396B" stroke-width="6" stroke-linecap="round" stroke-linejoin="round"></path>
                <path d="M149.1,347 L149,347" id="Shape" stroke="#20396B" stroke-width="6" stroke-linecap="round" stroke-linejoin="round"></path>
                <path d="M309.1,235 L309,235" id="Shape" stroke="#20396B" stroke-width="4" stroke-linecap="round" stroke-linejoin="round"></path>
                <path d="M473.65,530.04 L106,530.04" id="Shape" stroke="#20396B" stroke-width="6" stroke-linecap="round" stroke-linejoin="round"></path>
                <path d="M260.51,530.04 L260.51,530.04 C260.531155,525.307345 262.941935,520.905754 266.918453,518.339478 C270.894971,515.773201 275.898847,515.389686 280.22,517.32 C282.537827,518.350882 284.754147,519.596306 286.84,521.04 C281.252609,498.899506 272.981342,477.524513 262.21,457.39" id="Shape" stroke="#20396B" stroke-width="6" stroke-linecap="round" stroke-linejoin="round"></path>
                <path d="M293.66,453.62 C292.17,469.62 295.56,493.83 303.27,511.22 C306.502657,518.595529 315.064894,522.000812 322.48,518.86 C326.151127,517.286192 329.724248,515.492953 333.18,513.49 C345.76,506.17 361.72,515.13 361.69,529.68 C361.69,529.8 361.69,529.92 361.69,530.04" id="Shape" stroke="#20396B" stroke-width="6" stroke-linecap="round" stroke-linejoin="round"></path>
                <path d="M305.15,514.39 C315.63,511.81 323.06,507.08 328.15,501.32 C335.78,492.67 350.05,499.93 347.44,511.16 L347.37,511.47" id="Shape" stroke="#20396B" stroke-width="6" stroke-linecap="round" stroke-linejoin="round"></path>
                <path d="M156.43,456.59 L156.43,521.92 C156.43,526.404552 160.065448,530.04 164.55,530.04 L164.55,530.04 C168.888825,530.055023 172.46695,526.644554 172.66,522.31 C173.627853,499.900274 177.893702,477.755601 185.32,456.59" id="Shape" stroke="#20396B" stroke-width="6" stroke-linecap="round" stroke-linejoin="round"></path>
                <path d="M156.43,516.79 L172.94,516.79" id="Shape" stroke="#20396B" stroke-width="6" stroke-linecap="round" stroke-linejoin="round"></path>
                <path d="M267.66,468.26 C275.547519,472.423921 284.982481,472.423921 292.87,468.26" id="Shape" stroke="#20396B" stroke-width="4" stroke-linecap="round" stroke-linejoin="round"></path>
                <path d="M294.19,481.04 C287.23,485.04 280.27,485.04 273.31,481.04" id="Shape" stroke="#20396B" stroke-width="4" stroke-linecap="round" stroke-linejoin="round"></path>
                <path d="M296.93,493.82 C291.209661,497.446455 283.910339,497.446455 278.19,493.82" id="Shape" stroke="#20396B" stroke-width="4" stroke-linecap="round" stroke-linejoin="round"></path>
                <path d="M301.14,506.61 C294.39,510.44 288.14,510.15 282.38,506.61" id="Shape" stroke="#20396B" stroke-width="4" stroke-linecap="round" stroke-linejoin="round"></path>
                <path d="M133.33,390.78 L130.9,389.78 C69.69,364.48 59.16,282.33 111,241.11 C121.079748,233.102723 131.949226,226.143442 143.44,220.34 C148.068457,217.938135 153.556197,217.849265 158.26,220.1 C162.207501,222.01828 164.999023,225.709334 165.77,230.03" id="Shape" stroke="#20396B" stroke-width="6" stroke-linecap="round" stroke-linejoin="round"></path>
                <path d="M179.19,363.04 C167.74,370.15 163.88,385.04 172.11,393.37 C175.369961,396.717425 180.085029,398.217845 184.68,397.37 C190.97,396.14 195.47,390.77 198,383 C200.454897,375.403406 200.454897,367.226594 198,359.63 C193.62,346.06 183.12,333.9 169.52,324.33 C143.52,304.06 145.84,284.91 160.71,262.45" id="Shape" stroke="#20396B" stroke-width="6" stroke-linecap="round" stroke-linejoin="round"></path>
                <path d="M178.32,397.04 C171.32,411.34 155.83,413.68 149.12,404.46 C147.670698,402.38474 147.014246,399.858288 147.27,397.34 C148.11,387.34 156.17,383.08 167.72,382.34" id="Shape" stroke="#20396B" stroke-width="6" stroke-linecap="round" stroke-linejoin="round"></path>
                <path d="M149.71,390.04 C142.15,387.04 134.11,388.58 129.21,394.04 C120.55,403.66 129.47,418.42 142.21,415.95 C147.082578,415.017782 151.535153,412.567465 154.93,408.95" id="Shape" stroke="#20396B" stroke-width="6" stroke-linecap="round" stroke-linejoin="round"></path>
                <path d="M347.2,233.04 C350.871141,242.581104 348.596079,253.38863 341.39,260.64 L310.19,292.04 C303.56,299.42 305.19,310.66 317.43,315.04" id="Shape" stroke="#20396B" stroke-width="6" stroke-linecap="round" stroke-linejoin="round"></path>
                <path d="M281.8,247.04 L304.64,224.04 C311.834662,216.778582 322.627283,214.428102 332.19,218.04" id="Shape" stroke="#20396B" stroke-width="6" stroke-linecap="round" stroke-linejoin="round"></path>
                <path d="M363.11,193.78 C364.665089,197.50413 367.636497,200.457551 371.37,201.99" id="Shape" stroke="#20396B" stroke-width="4" stroke-linecap="round" stroke-linejoin="round"></path>
                <path d="M346.21,204.04 L332.21,218.14 L330.39,219.97 C326.39337,224.132336 326.469176,230.729505 330.560396,234.798905 C334.651616,238.868305 341.249096,238.908831 345.39,234.89 L347.21,233.06 L361.21,218.96" id="Shape" stroke="#20396B" stroke-width="6" stroke-linecap="round" stroke-linejoin="round"></path>
                <path d="M380.39,207.24 L372.16,215.55 C360.89,226.88 338.29,204.42 349.56,193.08 L357.79,184.76 C364.3,178.22 386.89,200.7 380.39,207.24 Z" id="Shape" stroke="#20396B" stroke-width="6" stroke-linecap="round" stroke-linejoin="round"></path>
                <path d="M358.75,274.04 C360.404613,278.939526 361.491719,284.012688 361.99,289.16 C362.95862,299.968801 361.513813,310.857795 357.76,321.04 C353.58,332.67 349.44,340.92 351.19,350.83" id="Shape" stroke="#20396B" stroke-width="6" stroke-linecap="round" stroke-linejoin="round"></path>
                <path d="M304.32,224.44 C293.391558,220.533929 282.077509,217.805148 270.57,216.3" id="Shape" stroke="#20396B" stroke-width="6" stroke-linecap="round" stroke-linejoin="round"></path>
                <path d="M406.4,263.85 L423.32,262.94 C421.79,214.25 367.18,221.94 371.67,258.52 C371.86223,260.023049 372.132596,261.515069 372.48,262.99 C373.138555,265.436265 374.10636,267.78857 375.36,269.99 C381.2,269.12 386.63,268.56 391.99,267.83 C383.75,254.33 398.99,246.83 404.59,257.43 C405.59075,259.430405 406.204838,261.601764 406.4,263.83 C408.14,284.83 385.08,286.99 375.4,269.99" id="Shape" stroke="#20396B" stroke-width="6" stroke-linecap="round" stroke-linejoin="round"></path>
                <path d="M348.91,241.3 C360.91,240.66 369.38,240.24 382.46,232.77" id="Shape" stroke="#20396B" stroke-width="6" stroke-linecap="round" stroke-linejoin="round"></path>
                <path d="M371.66,258.51 C379.526096,257.222948 387.274837,255.299976 394.83,252.76" id="Shape" stroke="#20396B" stroke-width="6" stroke-linecap="round" stroke-linejoin="round"></path>
                <path d="M326.79,275.35 C337.334175,273.346395 348.113848,272.888259 358.79,273.99 C368.192804,274.884054 377.455112,276.898329 386.38,279.99" id="Shape" stroke="#20396B" stroke-width="6" stroke-linecap="round" stroke-linejoin="round"></path>
                <path d="M336.66,319.04 C326.34,334.46 317.74,370.09 347.57,372.42 C350.544921,372.69961 353.539654,372.160143 356.23,370.86 C369.55,364.14 367.23,341.92 351.09,341.74" id="Shape" stroke="#20396B" stroke-width="6" stroke-linecap="round" stroke-linejoin="round"></path>
                <path d="M327.08,296.71 C313.66,316.04 309.8,334.94 327.66,342.83" id="Shape" stroke="#20396B" stroke-width="6" stroke-linecap="round" stroke-linejoin="round"></path>
                <circle id="Oval" fill="#20396B" fill-rule="nonzero" transform="translate(187.628566, 65.951085) rotate(-1.960000) translate(-187.628566, -65.951085) " cx="187.628566" cy="65.9510855" r="7.11"></circle>
                <circle id="Oval" fill="#20396B" fill-rule="nonzero" transform="translate(210.230589, 62.010430) rotate(-1.960000) translate(-210.230589, -62.010430) " cx="210.230589" cy="62.0104303" r="7.11"></circle>
                <path d="M228.45,108.8 C222.6,114.54 215.1,116.87 205.1,118.7" id="Shape" stroke="#20396B" stroke-width="6" stroke-linecap="round" stroke-linejoin="round"></path>
                <path d="" id="Shape" stroke="#20396B" stroke-width="4" stroke-linecap="round" stroke-linejoin="round"></path>
                <path d="M294.52,249.11 L304.08,239.51" id="Shape" stroke="#20396B" stroke-width="4" stroke-linecap="round" stroke-linejoin="round"></path>
                <path d="M201.4,194.04 C198.465431,193.302869 196.336639,190.763692 196.122842,187.745522 C195.909046,184.727353 197.658645,181.913444 200.46,180.77" id="Shape" stroke="#20396B" stroke-width="6" stroke-linecap="round" stroke-linejoin="round"></path>
                <path d="M227.66,319.92 C227.993584,322.935742 230.526035,325.227825 233.56,325.26 L233.56,325.26 C235.345425,325.26382 237.037542,324.46299 238.166558,323.079848 C239.295574,321.696707 239.741305,319.87849 239.38,318.13" id="Shape" stroke="#00A2E6" stroke-width="4" stroke-linecap="round" stroke-linejoin="round"></path>
                <path d="M258.82,350.65 C258.633618,352.45608 259.219501,354.256775 260.432963,355.607394 C261.646425,356.958014 263.374343,357.732649 265.19,357.74 L265.19,357.74 C268.414636,357.737545 271.138742,355.347002 271.56,352.15" id="Shape" stroke="#00A2E6" stroke-width="4" stroke-linecap="round" stroke-linejoin="round"></path>
                <path d="M273.54,299.56 C274.511434,302.022285 277.169363,303.370571 279.73,302.7 L279.73,302.7 C281.182849,302.325595 282.401402,301.338532 283.069291,299.995076 C283.737181,298.651621 283.788527,297.084289 283.21,295.7" id="Shape" stroke="#00A2E6" stroke-width="4" stroke-linecap="round" stroke-linejoin="round"></path>
                <path d="M268.45,398.04 C268.043023,399.317621 268.184302,400.706824 268.840151,401.876358 C269.496,403.045891 270.607638,403.890938 271.91,404.21 L271.91,404.21 C274.205099,404.767341 276.563206,403.564919 277.46,401.38" id="Shape" stroke="#00A2E6" stroke-width="4" stroke-linecap="round" stroke-linejoin="round"></path>
            </g>
        </g>
    </g>
</svg>