<?xml version="1.0" encoding="UTF-8"?>
<svg width="575px" height="367px" viewBox="0 0 575 367" version="1.1" xmlns="http://www.w3.org/2000/svg" xmlns:xlink="http://www.w3.org/1999/xlink">
    <!-- Generator: Sketch 45.2 (43514) - http://www.bohemiancoding.com/sketch -->
    <title>snail-unicorn</title>
    <desc>Created with Sketch.</desc>
    <defs>
        <linearGradient x1="16.4096151%" y1="-10.020617%" x2="106.002341%" y2="97.0412007%" id="linearGradient-1">
            <stop stop-color="#E0A3FF" offset="0%"></stop>
            <stop stop-color="#7373FF" offset="100%"></stop>
        </linearGradient>
        <linearGradient x1="7.15790592%" y1="-8.59098298%" x2="104.281908%" y2="81.4512915%" id="linearGradient-2">
            <stop stop-color="#80FFD5" offset="0%"></stop>
            <stop stop-color="#70D2FF" offset="100%"></stop>
        </linearGradient>
        <linearGradient x1="104.780978%" y1="83.469964%" x2="19.0247003%" y2="-11.815958%" id="linearGradient-3">
            <stop stop-color="#667FFF" offset="0%"></stop>
            <stop stop-color="#59ACFF" offset="100%"></stop>
        </linearGradient>
        <linearGradient x1="7.322253%" y1="2.08165074%" x2="82.1144968%" y2="65.9521244%" id="linearGradient-4">
            <stop stop-color="#FF59C8" offset="0%"></stop>
            <stop stop-color="#FF4D5B" offset="100%"></stop>
        </linearGradient>
        <linearGradient x1="100.507876%" y1="86.6490029%" x2="14.7108841%" y2="-1.60736673%" id="linearGradient-5">
            <stop stop-color="#FFBA59" offset="0%"></stop>
            <stop stop-color="#FFF36E" offset="100%"></stop>
        </linearGradient>
        <linearGradient x1="18719.9465%" y1="27174%" x2="32541.6964%" y2="39774%" id="linearGradient-6">
            <stop stop-color="#FF59C8" offset="0%"></stop>
            <stop stop-color="#FF4D5B" offset="100%"></stop>
        </linearGradient>
        <linearGradient x1="26.0926861%" y1="59.3940386%" x2="94.1796618%" y2="12.898663%" id="linearGradient-7">
            <stop stop-color="#80FFFF" offset="0%"></stop>
            <stop stop-color="#70D2FF" offset="100%"></stop>
        </linearGradient>
        <linearGradient x1="15.864726%" y1="58.3825829%" x2="84.4349315%" y2="-3.77967097%" id="linearGradient-8">
            <stop stop-color="#FF66CC" offset="0%"></stop>
            <stop stop-color="#FF4D5B" offset="100%"></stop>
        </linearGradient>
        <linearGradient x1="13899.7122%" y1="29120%" x2="16272.508%" y2="26587%" id="linearGradient-9">
            <stop stop-color="#FF66CC" offset="0%"></stop>
            <stop stop-color="#FF4D5B" offset="100%"></stop>
        </linearGradient>
        <linearGradient x1="98.4262016%" y1="37.8795299%" x2="9.10250957%" y2="54.6278159%" id="linearGradient-10">
            <stop stop-color="#FFB266" offset="0%"></stop>
            <stop stop-color="#FFF04D" offset="100%"></stop>
        </linearGradient>
        <linearGradient x1="18760%" y1="4992.03888%" x2="20260%" y2="4950.40243%" id="linearGradient-11">
            <stop stop-color="#80FFFF" offset="0%"></stop>
            <stop stop-color="#70D2FF" offset="100%"></stop>
        </linearGradient>
        <linearGradient x1="91.6711373%" y1="-11.8419743%" x2="14.3307403%" y2="68.4247189%" id="linearGradient-12">
            <stop stop-color="#FFB266" offset="0%"></stop>
            <stop stop-color="#FFF36E" offset="100%"></stop>
        </linearGradient>
        <linearGradient x1="55315%" y1="657.050714%" x2="54915%" y2="1182.59114%" id="linearGradient-13">
            <stop stop-color="#E0A3FF" offset="0%"></stop>
            <stop stop-color="#7373FF" offset="100%"></stop>
        </linearGradient>
        <linearGradient x1="0%" y1="49.9968295%" x2="100%" y2="49.9968295%" id="linearGradient-14">
            <stop stop-color="#0054FC" stop-opacity="0" offset="0%"></stop>
            <stop stop-color="#0054FC" stop-opacity="0.3" offset="100%"></stop>
        </linearGradient>
        <linearGradient x1="9394.21311%" y1="42029%" x2="12825.6379%" y2="43979%" id="linearGradient-15">
            <stop stop-color="#0054FC" stop-opacity="0" offset="0%"></stop>
            <stop stop-color="#0054FC" stop-opacity="0.3" offset="100%"></stop>
        </linearGradient>
        <linearGradient x1="0%" y1="50%" x2="90%" y2="50%" id="linearGradient-16">
            <stop stop-color="#41C4B5" offset="0%"></stop>
            <stop stop-color="#70D2FF" offset="100%"></stop>
        </linearGradient>
        <linearGradient x1="53668%" y1="29620%" x2="56205%" y2="29620%" id="linearGradient-17">
            <stop stop-color="#41C4B5" offset="0%"></stop>
            <stop stop-color="#70D2FF" offset="100%"></stop>
        </linearGradient>
        <linearGradient x1="-92.5736515%" y1="27.6605831%" x2="-34.1566802%" y2="37.1415027%" id="linearGradient-18">
            <stop stop-color="#667FFF" offset="0%"></stop>
            <stop stop-color="#2A61BF" offset="100%"></stop>
        </linearGradient>
        <linearGradient x1="-154.147092%" y1="-2.45709828%" x2="-45.3190897%" y2="26.1310452%" id="linearGradient-19">
            <stop stop-color="#E0A3FF" offset="0%"></stop>
            <stop stop-color="#4250CF" offset="100%"></stop>
        </linearGradient>
        <linearGradient x1="53291%" y1="29055%" x2="53381%" y2="29055%" id="linearGradient-20">
            <stop stop-color="#41C4B5" offset="0%"></stop>
            <stop stop-color="#70D2FF" offset="100%"></stop>
        </linearGradient>
    </defs>
    <g id="Page-1" stroke="none" stroke-width="1" fill="none" fill-rule="evenodd">
        <g id="snail-unicorn" transform="translate(0.000000, -1.000000)" fill-rule="nonzero">
            <g id="colors" transform="translate(4.000000, 3.000000)">
                <path d="M438.31,134.09 C458.31,120.46 468.54,139.36 449.16,155.09 C449.37,145.6 445.49,137.7 438.31,134.09 Z" id="Shape" fill="url(#linearGradient-1)"></path>
                <path d="M439.65,180.24 C441.200874,195.117715 435.798437,209.878473 425.01,220.24 L425.01,220.24 C422.915212,210.895599 419.796363,201.810693 415.71,193.15 C410.874935,182.90115 404.64963,173.368021 397.21,164.82 C387.39,152.88 376.36,143.7 364.75,137.42 L364.75,137.42 C382.11,128.86 398.36,130.07 411.27,136.96 C427.13,145.35 437.96,162.33 439.65,180.24 Z" id="Shape" fill="url(#linearGradient-2)"></path>
                <path d="M438.31,134.09 C445.49,137.7 449.37,145.6 449.16,155.09 C448.98,162.95 445.96,171.87 439.65,180.28 C437.96,162.37 427.13,145.39 411.27,136.96 C414.225348,135.410338 417.331529,134.167195 420.54,133.25 L420.54,133.25 C421.36,133.02 422.17,132.82 422.96,132.66 C423.27,132.66 423.58,132.54 423.89,132.48 C429.58,131.45 434.43,132.14 438.31,134.09 Z" id="Shape" fill="url(#linearGradient-3)"></path>
                <path d="M199.51,215.24 C203.813217,213.993732 208.233087,213.192861 212.7,212.85 C235.4,211.19 256.15,222.46 275.02,242.05 C278.046667,245.176667 281.02,248.51 283.94,252.05 C289.607236,258.987785 294.888548,266.232062 299.76,273.75 C285.078655,269.718574 270.745691,264.511756 256.9,258.18 C244.432719,252.431648 232.368519,245.84662 220.79,238.47 C210.27,231.81 200.6,224.9 191.46,218.08 C194.088843,216.985439 196.776292,216.03732 199.51,215.24 L199.51,215.24 Z" id="Shape" fill="url(#linearGradient-4)"></path>
                <path d="M403.52,293.67 C409.620567,296.382223 413.19428,302.799973 412.287228,309.414376 C411.380176,316.028779 406.210714,321.247553 399.60522,322.217358 C392.999726,323.187162 386.548338,319.674537 383.778322,313.599994 C381.008306,307.52545 382.586486,300.35131 387.65,296 C393.004777,295.757769 398.321575,294.977168 403.52,293.67 L403.52,293.67 Z" id="Shape" fill="#00AFFF"></path>
                <ellipse id="Oval" fill="#00AFFF" cx="279.25" cy="301.54" rx="14.53" ry="14.54"></ellipse>
                <path d="M256.92,258.18 C256.997043,258.917447 257.033764,259.65855 257.03,260.4 C257.030858,272.541369 248.224475,282.890614 236.239481,284.832979 C224.254488,286.775343 212.630197,279.737224 208.796316,268.217059 C204.962434,256.696894 210.051153,244.096727 220.81,238.47 C232.388519,245.84662 244.452719,252.431648 256.92,258.18 L256.92,258.18 Z" id="Shape" fill="#00AFFF"></path>
                <path d="M170.35,253.8 C177.038168,253.8 182.46,259.221832 182.46,265.91 C182.46,272.598168 177.038168,278.02 170.35,278.02 C163.661832,278.02 158.24,272.598168 158.24,265.91 C158.24,259.221832 163.661832,253.8 170.35,253.8 Z" id="Shape" fill="#00AFFF"></path>
                <path d="M181.23,210.33 C179.658919,220.018439 171.494099,227.267941 161.687816,227.681406 C151.881532,228.094871 143.13545,221.558388 140.754402,212.036584 C138.373354,202.51478 143.013327,192.630944 151.86,188.38 C156.69,191.75 161.53,195.33 166.45,199.05 C171.37,202.77 176.19,206.48 181.23,210.33 Z" id="Shape" fill="#00AFFF"></path>
                <path d="M151.93,334.79 L137.76,334.79 C99.96,334.79 77.58,316.79 67.76,292.54 C63.6268107,282.036618 61.5885253,270.826048 61.76,259.54 C61.935786,255.348142 61.8389151,251.149291 61.47,246.97 L61.47,246.97 C60.58,237.97 57.84,230.35 51.15,223.17 L50.3,222.28 C48.5249946,220.315677 47.0000586,218.139116 45.76,215.8 C36.29,196.86 41.4,179.31 56.47,169.88 C57.47,169.23 58.61,168.61 59.75,168.04 C68.75,163.52 80.61,161.57 94.62,163.3 C128.72,170.24 143.39,209.47 106.75,240.3 C93.38,252.18 81.09,260.63 85.57,276.35 C88.64,287.07 102.05,295.05 127,295.05 C143.35,294.76 150.68,304.94 150.5,323.8 C150.466089,327.511839 150.947344,331.210435 151.93,334.79 Z M94.15,204.51 C95.2436349,201.843196 95.5893694,198.928655 95.15,196.08 L94.4,190.93 C93.9894042,188.335499 91.5695875,186.552945 88.97,186.93 L66.79,190.19 C64.1924556,190.595586 62.4072585,193.018991 62.79,195.62 L63.48,200.27 C63.914753,203.257299 65.1520589,206.070614 67.06,208.41 C70.5568171,212.826788 76.1363449,215.054013 81.7134627,214.259341 C87.2905806,213.464668 92.0259804,209.76769 94.15,204.55 L94.15,204.51 Z" id="Shape" fill="#BFEBFF"></path>
                <circle id="Oval" fill="#FFF7DE" cx="127.29" cy="110.79" r="13.46"></circle>
                <path d="M95.19,196.08 C95.6293694,198.928655 95.2836349,201.843196 94.19,204.51 L94.19,204.51 C90.3388948,200.807679 84.99767,199.084609 79.7090121,199.838458 C74.4203542,200.592306 69.7732847,203.739114 67.11,208.37 C65.2020589,206.030614 63.964753,203.217299 63.53,200.23 L62.84,195.58 C62.4572585,192.978991 64.2424556,190.555586 66.84,190.15 L89.02,186.89 C91.6195875,186.512945 94.0394042,188.295499 94.45,190.89 L95.19,196.08 Z" id="Shape" fill="#BA81B6"></path>
                <path d="M94.14,204.51 L94.14,204.51 C92.0159804,209.72769 87.2805806,213.424668 81.7034627,214.219341 C76.1263449,215.014013 70.5468171,212.786788 67.05,208.37 C69.7132847,203.739114 74.3603542,200.592306 79.6490121,199.838458 C84.93767,199.084609 90.2788948,200.807679 94.13,204.51 L94.14,204.51 Z" id="Shape" fill="#E39DDE"></path>
                <path d="M67.04,300.41 C68.5626626,298.063465 68.7959292,295.106246 67.66,292.55 L67.66,292.55 C77.5,316.81 99.88,334.8 137.66,334.8 L96.88,334.8 C59.85,334.79 55.64,318.14 67.04,300.41 Z" id="Shape" fill="#52C8FF"></path>
                <path d="M67.69,292.54 L67.69,292.54 C66.6186008,290.105592 64.4073755,288.362847 61.79,287.89 C54.93,286.64 48.56,284.43 46.04,278.52 C40.12,264.68 60.58,255.95 61.45,246.96 C61.8260188,251.142174 61.9295708,255.344381 61.76,259.54 C61.566244,270.821416 63.5807208,282.031826 67.69,292.54 L67.69,292.54 Z" id="Shape" fill="#52C8FF"></path>
                <path d="M13.46,121.61 C18.9049715,121.610002 23.8136074,124.890508 25.8963724,129.921393 C27.9791373,134.952278 26.8257228,140.742448 22.9741161,144.591193 C19.1225093,148.439939 13.3314839,149.58905 8.30214813,147.502546 C3.27281238,145.416043 -0.0040452983,140.50497 -8.47032947e-22,135.06 C-9.8641415e-07,131.491105 1.41842115,128.068528 3.94294867,125.545877 C6.46747619,123.023225 9.89110591,121.607347 13.46,121.61 L13.46,121.61 Z" id="Shape" fill="#FFF7DE"></path>
                <path d="M383.32,295.99 C384.169653,294.0385 384.839106,292.013404 385.32,289.94 C386.538829,284.670157 386.691827,279.209824 385.77,273.88 C383.175311,258.748242 378.068198,244.156975 370.66,230.71 L370.66,230.71 C368.38,226.476667 365.9,222.313333 363.22,218.22 C342.38,186.37 310.16,159.6 275.69,147.05 L279.21,144.35 C305.15,123.86 336.62,122.17 364.7,137.4 C376.31,143.68 387.34,152.86 397.16,164.8 C404.59963,173.348021 410.824935,182.88115 415.66,193.13 C419.746363,201.790693 422.865212,210.875599 424.96,220.22 C433.36,258.8 417.96,288.91 383.53,296.11 L383.32,295.99 Z" id="Shape" fill="url(#linearGradient-5)"></path>
                <path d="M387.65,296 C382.586486,300.35131 381.008306,307.52545 383.778322,313.599994 C386.548338,319.674537 392.999726,323.187162 399.60522,322.217358 C406.210714,321.247553 411.380176,316.028779 412.287228,309.414376 C413.19428,302.799973 409.620567,296.382223 403.52,293.67 C414.117381,291.058712 423.99129,286.096124 432.41,279.15 C439.07,273.64 449.14,279.35 447.41,287.82 C445.73,295.88 438.46,302.55 427.29,302.46 C439.07,320.46 428.73,334.79 404.07,334.79 L377.37,334.79 C367.83,334.79 359.2,336.54 351.7,345.79 C344.2,354.67 331.45,356.17 322.37,345.79 C310.37,331.53 286.13,330.7 274.7,345.79 C268.58,354.04 257.58,353.92 252.7,345.79 C245.7,331.25 232.89,330.99 222.04,345.79 C203.09,371.62 160.4,364.68 151.93,334.79 C150.929539,331.209585 150.431443,327.507519 150.45,323.79 C150.63,304.93 143.3,294.79 126.95,295.04 C101.95,295.04 88.59,287.04 85.52,276.34 C81.04,260.62 93.33,252.17 106.7,240.29 C143.34,209.46 128.7,170.23 94.57,163.29 C102.589425,164.335318 110.463577,166.291274 118.04,169.12 C129.76,173.93 140.76,180.61 151.86,188.38 C143.013327,192.630944 138.373354,202.51478 140.754402,212.036584 C143.13545,221.558388 151.881532,228.094871 161.687816,227.681406 C171.494099,227.267941 179.658919,220.018439 181.23,210.33 C184.563333,212.89 187.98,215.473333 191.48,218.08 C200.62,224.9 210.29,231.81 220.81,238.47 C210.051153,244.096727 204.962434,256.696894 208.796316,268.217059 C212.630197,279.737224 224.254488,286.775343 236.239481,284.832979 C248.224475,282.890614 257.030858,272.541369 257.03,260.4 C257.033764,259.65855 256.997043,258.917447 256.92,258.18 C270.759227,264.51075 285.085465,269.717555 299.76,273.75 C302.353333,277.71 304.903333,281.803333 307.41,286.03 C314.705777,298.611697 326.703035,307.777817 340.76,311.51 C358.1,315.91 376.04,312.35 383.28,295.99 L383.53,296.1 C384.93,296.1 386.29,296.07 387.65,296 Z M293.76,301.54 C293.76,293.50978 287.25022,287 279.22,287 C271.18978,287 264.68,293.50978 264.68,301.54 C264.68,309.57022 271.18978,316.08 279.22,316.08 C287.25022,316.08 293.76,309.57022 293.76,301.54 L293.76,301.54 Z M182.45,265.91 C182.454044,261.010145 179.505021,256.590699 174.978918,254.713737 C170.452814,252.836774 165.241663,253.872219 161.776941,257.336941 C158.312219,260.801663 157.276774,266.012814 159.153737,270.538918 C161.030699,275.065021 165.450145,278.014044 170.35,278.01 C177.03036,278.004486 182.444486,272.59036 182.45,265.91 Z" id="Shape" fill="#52C8FF"></path>
                <path d="M414.15,135.54 C413.24,136.04 412.28,136.49 411.27,136.92 C412.263333,136.42 413.223333,135.96 414.15,135.54 Z" id="Shape" fill="#B0F4FF"></path>
                <path d="M385.81,273.88 C383.215311,258.748242 378.108198,244.156975 370.7,230.71 L370.7,230.71 C368.42,226.483333 365.94,222.32 363.26,218.22 C346.406219,192.59623 323.586757,171.444476 296.76,156.58 L296.76,156.58 C291.794955,153.861437 286.687613,151.411248 281.46,149.24 C279.56,148.446667 277.65,147.703333 275.73,147.01 C259.23,141.01 242.22,138.25 225.73,139.76 C189.48,143.51 161.98,165.01 166.48,199.02 C171.31,202.67 176.22,206.45 181.26,210.3 C184.593333,212.86 188.01,215.443333 191.51,218.05 C194.122722,216.960596 196.793428,216.015834 199.51,215.22 C203.813217,213.973732 208.233087,213.172861 212.7,212.83 C224.56,211.96 235.9,214.63 246.7,220.17 C256.57,225.17 266.01,232.68 275.01,242.03 C278.043333,245.163333 281.016667,248.496667 283.93,252.03 C289.601255,258.974016 294.885918,266.224987 299.76,273.75 C302.353333,277.71 304.903333,281.803333 307.41,286.03 C314.705777,298.611697 326.703035,307.777817 340.76,311.51 C358.1,315.91 376.04,312.35 383.28,295.99 C384.126834,294.054633 384.796247,292.046394 385.28,289.99 C386.532123,284.709464 386.712345,279.231416 385.81,273.88 L385.81,273.88 Z" id="Shape" fill="url(#linearGradient-6)"></path>
                <path d="M483.76,92.29 C483.41,92.35 483.05,92.42 482.69,92.51 C483.06,92.42 483.41,92.35 483.76,92.29 Z" id="Shape" fill="#B0F4FF"></path>
                <path d="M515.54,97.37 C504.75,91.8 494.06,90.3 483.77,92.29 C483.41,92.35 483.06,92.42 482.7,92.51 L482.54,92.51 C468.67,95.57 455.54,104.96 443.99,119.21 C440.11,123.75 433.24,129.97 424.48,132.03 C440.82,123.13 456.48,103.38 472.04,83.51 C474.966004,80.2765487 478.39312,77.5348563 482.19,75.39 C498.16,69.87 513.37,80.99 515.54,97.37 Z" id="Shape" fill="url(#linearGradient-7)"></path>
                <path d="M530.95,3.04 C522.13,16.63 511.39,28.36 496.68,36.23 C473.49,39.31 457.93,46.93 443.95,83.54 C438.3,100.79 433.1,124.54 418.07,133.73 C416.8,134.17 415.49,134.73 414.15,135.29 C440.87,120.96 423.07,80.62 425.95,65.79 C427.65,53.08 432.81,42.43 439.48,32.7 C456.64,8.83 488.21,-4.97 530.95,3.04 Z" id="Shape" fill="url(#linearGradient-8)"></path>
                <path d="M94.57,163.04 C80.57,161.31 68.69,163.26 59.7,167.78 L59.58,167.53 L59.83,161.16 L83.34,137.65 L94.57,163.04 Z" id="Shape" fill="url(#linearGradient-9)"></path>
                <polygon id="Shape" fill="url(#linearGradient-10)" points="83.34 137.65 59.83 161.16 60.87 135.13 75.68 120.32"></polygon>
                <path d="M75.68,120.32 L60.87,135.13 L62.03,106.06 C62.1002771,104.418751 63.2904275,103.041497 64.9041463,102.734008 C66.5178651,102.426519 68.1310925,103.2696 68.8,104.77 L75.68,120.32 Z" id="Shape" fill="url(#linearGradient-11)"></path>
                <path d="M478.45,77.03 C479.657795,76.4071948 480.907483,75.8692277 482.19,75.42 C478.39312,77.5648563 474.966004,80.3065487 472.04,83.54 C456.43,103.41 440.82,123.16 424.48,132.06 L423.9,132.19 L422.97,132.37 C422.18,132.53 421.37,132.73 420.55,132.96 L420.55,132.96 C419.74,133.18 418.92,133.44 418.08,133.73 C433.08,124.51 438.31,100.79 443.96,83.54 C457.96,46.93 473.5,39.31 496.69,36.23 C511.91,34.62 522.33,36.48 533.6,37.09 C544.940123,37.8266339 556.320419,36.5226415 567.2,33.24 C550.84,87.51 504.29,57.58 478.45,77.03 Z" id="Shape" fill="url(#linearGradient-12)"></path>
                <path d="M414.15,135.29 C413.21,135.71 412.25,136.17 411.27,136.67 C424.95,127.02 427.04,112.27 420.37,96.87 C405.45,63.29 407.58,33.22 430.22,10.54 C435.14,17.27 438.62,24.54 439.48,32.7 C432.81,42.43 427.65,53.08 425.95,65.79 C423.07,80.62 440.87,120.96 414.15,135.29 Z" id="Shape" fill="url(#linearGradient-13)"></path>
            </g>
            <g id="shadows" transform="translate(7.000000, 3.000000)">
                <path d="M188.48,218.08 C220.97,203.69 256.16,213.97 296.78,273.75 C258.47,263.49 222.56,244.24 188.48,218.08 Z" id="Shape" fill="#0054FC" opacity="0.4"></path>
                <path d="M400.1,276.15 C394.913473,279.929453 389.081502,282.731916 382.89,284.42 C383.71,274.73 382.11,264.19 378.54,253.42 C364.54,211.12 320.54,164.5 272.73,147.09 L279.04,142.28 C283.1,143.56 287.066667,144.923333 290.94,146.37 C326.23,159.47 353.94,179.11 373.23,206.08 C383.52,220.49 406.42,212.68 405.23,195.02 C404.843884,189.704021 403.674596,184.474238 401.76,179.5 L401.76,179.5 C399.359459,173.318801 396.097184,167.50798 392.07,162.24 C394.86,165.49 397.55,168.93 400.07,172.53 C408.154252,183.830527 414.491883,196.283297 418.87,209.47 C424.31,234.08 420.35,258.8 400.1,276.15 Z" id="Shape" fill="#FC7100" opacity="0.17"></path>
                <path d="M345.57,305.24 C326.13,304.46 313.23,296.79 303.57,285.65 C301.076302,281.815605 298.802632,277.842526 296.76,273.75 C292.56,267.316667 288.38,261.463333 284.22,256.19 C251.22,214.19 219.54,207.19 188.46,218.08 L178.21,210.33 C179.21,209.9 180.21,209.48 181.14,209.08 C226.64,190.24 266.76,204.71 303.04,243.54 C323.51,265.46 360.62,251.83 361.76,222.42 C366.532606,231.55502 370.439648,241.116727 373.43,250.98 C381.4,281.45 376.33,302.56 345.57,305.24 Z" id="Shape" fill="#BF37A6" opacity="0.3"></path>
                <path d="M58.62,249.39 C57.54,264.7 59.62,278.49 64.7,290.88 C74.7,313.65 90.88,329.54 116.61,334.8 C80.37,339.56 48.24,329.58 60.61,306.75 L65.08,296.16 L61.2,288.78 L54.01,286.78 C36.44,278.68 39.55,267.78 53.3,255.4 L58.62,249.39 Z" id="Shape" fill="#0054FC" opacity="0.25"></path>
                <path d="M90.44,289.98 C111.79,305.23 105.69,331.72 84.09,318.8 C102.14,332.8 124.3,336.8 148.93,334.8 C148.26,312.96 142.48,297.71 126.93,295.12 C114.15,295.24 103.45,294.98 90.44,289.98 Z" id="Shape" fill="url(#linearGradient-14)"></path>
                <path d="M42.76,215.79 C50.43,222.92 57.2,227.35 65.37,229.79 C67.3075807,230.367726 68.8517883,231.837621 69.5242957,233.744377 C70.1968031,235.651133 69.9164212,237.764556 68.77,239.43 C64.77,245.25 61.48,252.54 61.48,258.43 C60.08,242.81 51.1,223.49 42.76,215.79 Z" id="Shape" fill="#0054FC" opacity="0.12"></path>
                <path d="M229.28,325.4 C236.73,323.4 239.4,333.4 231.95,335.4 C241.49,335.46 249.03,339.4 252.85,350.56 C261.15,354.86 267.64,354.31 271.35,346.28 C266.423333,344.546667 265.68,340.48 269.12,334.08 L262.35,341.18 L259.48,341.81 C251.68,328.48 241.82,322.32 229.28,325.4 Z" id="Shape" fill="#0054FC" opacity="0.15"></path>
                <path d="M158.13,327.04 C155.97,322.26 152.47,320.42 148.21,319.61 C145.84,302.35 137.88,294.86 125.52,295.09 C134.25,294.48 133.95,285.09 124.62,285.09 C147.43,285.24 156.01,296.81 158.13,327.04 Z" id="Shape" fill="#0054FC" opacity="0.15"></path>
                <path d="M214.12,351.4 C206.2,359.4 194.56,362.29 179.98,361.17 C176.799128,360.572124 173.68192,359.674796 170.67,358.49 C172.42,352.92 171.53,349.55 169.55,346.94 C181.47663,354.085894 196.622836,352.881265 207.27,343.94 C202.25,350.08 208.89,356.13 214.12,351.4 Z" id="Shape" fill="#0054FC" opacity="0.15"></path>
                <path d="M215.06,350.41 C214.785692,350.750053 214.48474,351.067724 214.16,351.36 C214.47,351.05 214.76,350.73 215.06,350.41 Z" id="Shape" fill="#0054FC" opacity="0.25"></path>
                <path d="M422.84,300.16 C420.99,302.43 423.72,303.27 421.51,302.74 C426.76,313.24 416.39,330.99 401.04,332.37 L371.76,334.79 L365.35,336.24 C359.102285,337.66858 353.44393,340.981214 349.14,345.73 C344.842588,350.762752 338.356205,353.376724 331.77,352.73 C331.433629,352.702922 331.099512,352.652804 330.77,352.58 L330.54,352.58 L330.01,352.49 C326.981108,351.980518 324.237011,350.397248 322.28,348.03 C316.79,341.54 309.06,337.5 299.81,335.13 C307.66,335.13 308.22,326.44 301.49,325.19 C300.93,325.19 300.39,325.07 299.81,325.04 C297.837897,324.82248 295.853567,324.735624 293.87,324.78 C293.2,324.78 292.54,324.78 291.87,324.86 L291.87,324.86 C278.52,325.64 269.14,332.25 261.76,341.76 L259.52,341.76 L257.43,339.76 L243.68,326.24 L242.63,325.24 C244.080453,325.631524 245.557787,325.915627 247.05,326.09 C278.34,329.78 279.75,277.15 256.66,261.95 C255.816826,261.387475 254.938346,260.87976 254.03,260.43 L257.72,259.43 L258.72,260.43 C271.143062,265.57107 283.82714,270.057228 296.72,273.87 C307.72,295.35 322.36,311.62 347.03,313.22 C348.48,313.32 350.03,313.36 351.51,313.35 C366.88,312.17 376.33,306.35 380.42,296.43 L380.51,296.22 L382.76,296.24 C400.68,297.13 415.2,291.24 430.27,279.24 C438.04,281.24 439.76,296.93 422.84,300.16 Z" id="Shape" fill="url(#linearGradient-15)"></path>
                <path d="M115.04,169.12 C141.9,196.45 136.04,223.88 106.23,251.37 C97,258.28 89.92,265.43 92.14,273.59 C98.55,280 90.49,288.05 84.09,281.64 C79.17,268.5 82.09,257.96 92.77,249.97 C115.08,231.58 129.34,212.85 124.1,193.3 C121.31,182.62 114.74,174.41 105.77,167.76 L115.04,169.12 Z" id="Shape" fill="#FFFFFF" opacity="0.35"></path>
                <g id="Group" opacity="0.25" transform="translate(193.000000, 151.000000)" fill="#FFFFFF">
                    <path d="M117.25,57.81 C116.494544,57.811796 115.7408,57.7380965 115,57.59 C113.52218,57.2884023 112.116468,56.7043865 110.86,55.87 C109.606767,55.0301115 108.529888,53.9532334 107.69,52.7 C107.271757,52.0698132 106.916704,51.3999023 106.63,50.7 C106.341059,50.0063381 106.120026,49.2863056 105.97,48.55 C105.520961,46.3204711 105.750864,44.0075116 106.63,41.91 C106.914574,41.2091018 107.269737,40.538983 107.69,39.91 C108.526433,38.6511715 109.603812,37.570394 110.86,36.73 C111.492377,36.3154512 112.161925,35.9605909 112.86,35.67 C113.555527,35.3887381 114.275145,35.1711792 115.01,35.02 C116.491653,34.7202013 118.018347,34.7202013 119.5,35.02 C120.235213,35.1697609 120.95496,35.3873586 121.65,35.67 C122.349041,35.9585392 123.018778,36.3134997 123.65,36.73 C124.912528,37.5660206 125.993979,38.6474721 126.83,39.91 C127.2465,40.5412219 127.601461,41.2109587 127.89,41.91 C128.172587,42.6050594 128.390183,43.3248007 128.54,44.06 C128.847278,45.540895 128.847278,47.069105 128.54,48.55 C128.388874,49.2848682 128.171314,50.004491 127.89,50.7 C127.599305,51.3980257 127.244449,52.0675639 126.83,52.7 C125.990429,53.956864 124.909502,55.0343913 123.65,55.87 C123.020981,56.2902035 122.350869,56.6453632 121.65,56.93 C120.260008,57.5132029 118.767381,57.8124085 117.26,57.81 L117.25,57.81 Z" id="Shape"></path>
                    <path d="M92.1,39.24 C90.1207164,39.204734 88.1843875,38.6569114 86.48,37.65 C63.55,24.15 35.03,19.84 15.48,26.92 C11.607241,28.3115495 7.28628131,27.5313019 4.14478462,24.8731689 C1.00328793,22.215036 -0.48147768,18.0828514 0.249784623,14.0331689 C0.981046926,9.98348654 3.81724101,6.63154947 7.69,5.24 C33.69,-4.19 69.19,0.73 98.15,17.77 C102.647424,20.4166057 104.799076,25.7596767 103.390917,30.7844583 C101.982758,35.80924 97.3678122,39.25602 92.15,39.18 L92.1,39.24 Z" id="Shape"></path>
                </g>
                <path d="M362.76,171.46 C359.78845,171.731018 356.83659,170.765152 354.6,168.79 C349.506366,164.481675 343.770429,160.99625 337.6,158.46 C334.036276,156.911254 331.569505,153.578929 331.128896,149.71828 C330.688288,145.857631 332.340781,142.055182 335.463896,139.74328 C338.587012,137.431377 342.706276,136.961254 346.27,138.51 C354.542583,141.950853 362.220349,146.675632 369.02,152.51 C372.292277,155.380563 373.536518,159.926443 372.182232,164.063331 C370.827946,168.200218 367.136326,171.130254 362.8,171.51 L362.76,171.46 Z" id="Shape" fill="#FFFFFF" opacity="0.35"></path>
                <path d="M40.89,214.09 C36.6587074,207.268906 35.384365,199.019976 37.36,191.24 C46.36,190.11 54.22,193.88 55.24,199.94 C56.26,206 49.9,212.31 40.89,214.09 Z" id="Shape" fill="#FF91F8" opacity="0.4"></path>
                <path d="M126.29,198.16 C123.404277,200.174882 120.097127,201.505266 116.62,202.05 C107.22,203.63 98.75,199.81 97.69,193.51 C96.63,187.21 103.38,180.83 112.76,179.24 C114.688169,178.911535 116.647894,178.807509 118.6,178.93 C122.928611,184.484758 125.594901,191.152215 126.29,198.16 L126.29,198.16 Z" id="Shape" fill="#FF91F8" opacity="0.4"></path>
                <g id="Group" opacity="0.17" transform="translate(119.000000, 228.000000)" fill="#FFFFFF">
                    <circle id="Oval" cx="66.46" cy="85.67" r="5.57"></circle>
                    <circle id="Oval" cx="22.38" cy="16.66" r="11.06"></circle>
                    <circle id="Oval" cx="74.28" cy="58.75" r="7.82"></circle>
                    <circle id="Oval" cx="103.8" cy="78.76" r="6.48"></circle>
                    <circle id="Oval" cx="43.97" cy="12.02" r="1.87"></circle>
                    <circle id="Oval" cx="25.49" cy="36.85" r="4.22"></circle>
                    <circle id="Oval" cx="119.41" cy="69.32" r="4.22"></circle>
                    <circle id="Oval" cx="4.23" cy="34.51" r="4.22"></circle>
                    <circle id="Oval" cx="70.68" cy="24.95" r="4.22"></circle>
                    <circle id="Oval" cx="59.54" cy="6.68" r="6.61"></circle>
                    <circle id="Oval" cx="84.72" cy="75.31" r="3.4"></circle>
                    <circle id="Oval" cx="52.25" cy="94.92" r="1.7"></circle>
                    <circle id="Oval" cx="78.11" cy="101.2" r="3.99"></circle>
                    <circle id="Oval" cx="41.22" cy="62.88" r="3.4"></circle>
                </g>
                <path d="M427.22,10.54 C422.95,28.73 418.28,47.37 422.95,65.79 C425.55,52.29 430.49,40.86 437.52,31.29 L427.22,10.54 Z" id="Shape" fill="#0054FC" opacity="0.2"></path>
                <path d="M443.44,72.24 C451.77,28.93 491.27,23.1 527.96,3.07 C518.01,17.69 507.47,28.94 495.96,34.97 C472.87,39.24 452.85,50.6 443.44,72.24 Z" id="Shape" fill="#BF37A6" opacity="0.35"></path>
                <path d="M564.21,33.24 C537.27,72.17 475.14,43.8 466.31,82.52 C473.44,72.97 487.49,69.52 502.31,69.26 C536.97,71.31 558.54,60.24 564.21,33.24 Z" id="Shape" fill="#FC7100" opacity="0.31"></path>
                <path d="M467.01,97.1 C448.49,114.48 431.85,129.05 423.27,131.57 L418.7,132.2 C424.78,126.65 428.7,119.35 431.7,111.31 C439.98,111.14 450.92,103.56 467.01,97.1 Z" id="Shape" fill="#FC7100" opacity="0.3"></path>
                <path d="M431.76,111.31 C428.76,119.31 424.76,126.65 418.76,132.2 L415.28,132.67 L412.72,133.02 C422.02,124.73 424.58,114.24 419.05,101.1 C421.99,107.31 425.24,110.26 429.11,111.1 C429.982684,111.269003 430.87159,111.339445 431.76,111.31 L431.76,111.31 Z" id="Shape" fill="#0054FC" opacity="0.2"></path>
                <path d="M452.76,103.18 C472.81,79.93 500.64,79.07 512.57,95.55 C492.28,87.72 470.76,91.1 452.76,103.18 Z" id="Shape" fill="#0054FC" opacity="0.2"></path>
                <g id="Group" opacity="0.7" transform="translate(422.000000, 0.000000)" fill="#FFFFFF">
                    <path d="M12.52,103.18 C19.78,100.72 23.65,96.94 25.52,92.38 C29.8464299,80.859159 36.4321127,70.3193466 44.89,61.38 C55.8249929,49.7419133 71.4625797,43.713585 87.38,45 L87.69,45 C104.69,46.84 113.96,42.25 119.75,34.69 C108.52,37.98 99.05,33.52 89.58,33.95 C57.83,35.39 33.46,45.29 23.9,72.17 C22.0545882,75.7541237 20.4380193,79.451524 19.06,83.24 L12.52,103.18 Z" id="Shape" opacity="0.5"></path>
                    <path d="M0.95,65.79 C6.08866952,65.1819686 10.7433518,62.465228 13.8,58.29 C14.7951311,56.8479973 15.5734116,55.2678521 16.11,53.6 C18.6394687,46.1341429 22.5772527,39.2226532 27.71,33.24 C38.59,23.56 50.09,16.39 62.86,14.24 C64.5862808,13.9567809 66.2856261,13.5285995 67.94,12.96 C76.2066667,10.1 81.8133333,6.01666667 84.76,0.71 C44.07,2.48 11.76,17.32 0.95,65.79 Z" id="Shape" opacity="0.35"></path>
                </g>
                <path d="M91.57,164.04 C82.29,163.29 73.46,163.58 65.35,165.57 C65.35,165.02 65.29,164.47 65.29,163.94 C71.49,160.7 73.98,153.88 74.17,144.87 L80.45,138.87 L91.57,164.04 Z" id="Shape" fill="#0054FC" opacity="0.07"></path>
                <path d="M80.45,138.89 L74.17,144.89 C74.1338443,137.826456 73.3460751,130.786815 71.82,123.89 C71.75,123.54 71.68,123.19 71.6,122.83 L71.6,122.83 L72.83,121.67 L80.45,138.89 Z" id="Shape" fill="#FC7100" opacity="0.2"></path>
                <ellipse id="Oval" fill="#FFFFFF" opacity="0.3" transform="translate(71.816679, 172.206926) rotate(-13.240000) translate(-71.816679, -172.206926) " cx="71.8166785" cy="172.206926" rx="20.36" ry="7.02"></ellipse>
                <circle id="Oval" fill="#FFFFFF" cx="5.19" cy="130.26" r="5"></circle>
                <circle id="Oval" fill="#FFFFFF" cx="119.02" cy="105.27" r="5"></circle>
                <circle id="Oval" fill="#FFFFFF" cx="16.19" cy="140.26" r="3.5"></circle>
                <circle id="Oval" fill="#FFFFFF" cx="130.02" cy="116.27" r="3.5"></circle>
                <ellipse id="Oval" fill="#FFFFFF" opacity="0.45" cx="61.2" cy="136.61" rx="5.31" ry="20.26"></ellipse>
                <path d="M406.54,179.67 C406.64,179.8 406.96,180.23 407.44,180.95 C407.113771,180.542391 406.813192,180.1149 406.54,179.67 Z" id="Shape" fill="url(#linearGradient-16)" opacity="0.55"></path>
                <path d="M419.64,210.63 C418.517414,205.807903 417.06056,201.069787 415.28,196.45 C413.242781,191.01155 410.613644,185.813639 407.44,180.95 C408.284475,182.041848 409.360218,182.933178 410.59,183.56 C418.92,187.67 429.99,174.44 420.59,153.77 C419.04966,150.428952 417.20169,147.238525 415.07,144.24 C416.07,144.8 417.07,145.38 418.07,146 C423.968323,149.800244 428.650708,155.215011 431.56,161.6 C435.64,179.52 429.27,200.24 419.64,210.63 Z" id="Shape" fill="url(#linearGradient-17)" opacity="0.55"></path>
                <path d="M427.43,154.24 C432.1,159.07 442.67,147.89 434.52,135.29 C452.26,142.4 444.04,171.72 436.32,177.48 C432.76,161.07 427.43,154.24 427.43,154.24 Z" id="Shape" fill="url(#linearGradient-18)" opacity="0.25"></path>
                <path d="M443.59,141.24 C448.09,141.91 454.36,134.9 452.72,129.4 C461.59,137.57 452.72,153.18 446.15,155.04 C446.26,144.91 443.59,141.24 443.59,141.24 Z" id="Shape" fill="url(#linearGradient-19)" opacity="0.25"></path>
                <path d="M403.67,171.15 C403.77,171.28 404.09,171.71 404.57,172.43 C404.243792,172.022376 403.943213,171.594886 403.67,171.15 Z" id="Shape" fill="url(#linearGradient-20)" opacity="0.55"></path>
                <path d="M427.43,154.24 C432.1,159.07 442.67,147.89 434.52,135.29 C452.26,142.4 444.04,171.72 436.32,177.48 C432.76,161.07 427.43,154.24 427.43,154.24 Z" id="Shape" fill="url(#linearGradient-18)" opacity="0.25"></path>
            </g>
            <g id="lines" fill="#2E2E80">
                <path d="M120.94,286 C107.54,284.44 101.6,279.74 100.59,276.18 C98.81,269.93 101.72,266.37 114.22,255.5 C114.62371,255.142734 114.806155,254.597231 114.698609,254.068975 C114.591063,253.540719 114.209865,253.109965 113.698609,252.938975 C113.187353,252.767984 112.62371,252.882734 112.22,253.24 C100.68,263.24 95.22,268.47 97.67,277.01 C99.39,283.01 107.95,287.51 120.56,289.01 L120.76,289.01 C121.588427,289.056944 122.298056,288.423427 122.345,287.595 C122.391944,286.766573 121.758427,286.056944 120.93,286.01 L120.94,286 Z" id="Shape"></path>
                <path d="M381.38,326.24 L381.38,326.24 C380.552897,326.245514 379.886345,326.919509 379.890015,327.746622 C379.893685,328.573735 380.566192,329.241789 381.393311,329.239963 C382.22043,329.238137 382.889982,328.567121 382.89,327.74 C382.890036,327.338686 382.729258,326.954092 382.443613,326.672206 C382.157968,326.390319 381.771279,326.234649 381.37,326.24 L381.38,326.24 Z" id="Shape"></path>
                <path d="M300.76,326.29 C288.48143,326.44374 276.947592,332.205133 269.45,341.93 C268.958719,342.727329 268.144645,343.271262 267.22,343.42 L267.22,343.42 C267.1,343.42 266.94,343.42 266.71,343.1 C259.96,329.67 250.13,326.86 244.86,326.37 C244.18,326.31 243.48,326.28 242.79,326.28 C236.16,326.28 226.26,329 216.79,341.98 C216.335601,342.648479 216.492593,343.556795 217.145007,344.033974 C217.79742,344.511153 218.71061,344.385573 219.21,343.75 C227.98,331.75 236.89,329.28 242.83,329.28 C243.43,329.28 244.04,329.28 244.63,329.36 C249.29,329.79 258.02,332.36 264.13,344.55 C264.161944,344.615952 264.198711,344.679458 264.24,344.74 C264.8719,345.731267 265.94579,346.353974 267.12,346.41 L267.31,346.41 C269.173855,346.272425 270.867161,345.274188 271.89,343.71 C278.841219,334.716861 289.524273,329.397437 300.89,329.27 C301.287872,329.259532 301.665272,329.091365 301.939105,328.802528 C302.212938,328.51369 302.360751,328.127864 302.35,327.73 C302.343067,327.323657 302.168222,326.938315 301.866995,326.665506 C301.565768,326.392697 301.165041,326.256765 300.76,326.29 Z" id="Shape"></path>
                <path d="M375.51,326.52 C363.58,327.52 354.21,332.43 346.88,341.42 C345.469127,343.249596 343.336156,344.379889 341.03,344.52 C338.49,344.52 336.39,342.75 335.1,341.29 C327.906388,333.004986 317.848177,327.743713 306.94,326.56 C306.111573,326.466112 305.363888,327.061573 305.27,327.89 C305.176112,328.718427 305.771573,329.466112 306.6,329.56 C316.751672,330.652754 326.116295,335.538644 332.82,343.24 C334.54,345.19 337.36,347.51 341.09,347.51 C344.25867,347.350288 347.204069,345.830199 349.17,343.34 C356.08,334.86 364.53,330.47 375.75,329.51 C376.285898,329.463555 376.756311,329.134741 376.984038,328.647417 C377.211765,328.160093 377.162209,327.588296 376.854038,327.147417 C376.545867,326.706537 376.025898,326.463555 375.49,326.51 L375.51,326.52 Z" id="Shape"></path>
                <path d="M213.12,346.05 C207.823165,350.767772 200.95262,353.332633 193.86,353.24 C190.532975,353.241342 187.226258,352.721715 184.06,351.7 C172.72,347.99 165.95,338.7 165.95,326.93 C166.08,313.03 162.58,302.46 155.56,295.49 C149.56,289.57 141.56,286.56 131.62,286.56 C130.791573,286.56 130.12,287.231573 130.12,288.06 C130.12,288.888427 130.791573,289.56 131.62,289.56 C140.71,289.56 148.05,292.27 153.44,297.62 C159.87,303.99 163.07,313.84 162.95,326.91 C162.83,339.98 170.49,350.41 183.12,354.55 C186.589811,355.670603 190.213723,356.240846 193.86,356.24 C201.707015,356.327427 209.302349,353.473379 215.15,348.24 C215.678307,347.670818 215.684832,346.792518 215.16504,346.215549 C214.645249,345.63858 213.771031,345.553742 213.15,346.02 L213.12,346.05 Z" id="Shape"></path>
                <path d="M189.7,183.05 C190.528427,183.05 191.2,182.378427 191.2,181.55 C191.2,180.721573 190.528427,180.05 189.7,180.05 C188.871573,180.05 188.2,180.721573 188.2,181.55 L188.2,181.55 C188.2,181.947825 188.358035,182.329356 188.63934,182.61066 C188.920644,182.891965 189.302175,183.05 189.7,183.05 L189.7,183.05 Z" id="Shape"></path>
                <path d="M312.23,259.96 L312.23,259.96 C311.402897,259.965514 310.736345,260.639509 310.740015,261.466622 C310.743685,262.293735 311.416192,262.961789 312.243311,262.959963 C313.07043,262.958137 313.739982,262.287121 313.74,261.46 C313.740036,261.058686 313.579258,260.674092 313.293613,260.392206 C313.007968,260.110319 312.621279,259.954649 312.22,259.96 L312.23,259.96 Z" id="Shape"></path>
                <path d="M573.34,34.42 C572.56219,33.6234976 571.407264,33.3232169 570.34,33.64 C564.846263,35.2400133 559.2258,36.3674514 553.54,37.01 C555.115216,35.6328677 556.530758,34.0831519 557.76,32.39 C558.39236,31.5236309 558.514483,30.3857128 558.080365,29.4048884 C557.646247,28.424064 556.721843,27.7493438 555.655365,27.6348884 C554.588887,27.520433 553.54236,27.9836309 552.91,28.85 C549.352322,33.9130254 543.651389,37.0441079 537.47,37.33 C534.75,37.18 532.07,36.95 529.37,36.73 C523.92,36.27 518.37,35.8 512,35.84 C521.42,28.9 529.81,19.68 537.44,7.92 C537.984466,7.07554038 538.070033,6.01458375 537.667937,5.09378299 C537.265841,4.17298223 536.429477,3.51461535 535.44,3.34 C505.6,-2.25 479.22,2.21 459.15,16.26 C453.971515,19.896204 449.268322,24.166032 445.15,28.97 C443.359958,22.8295811 440.462316,17.0681868 436.6,11.97 C436.082803,11.2639425 435.283063,10.8189491 434.410432,10.7516758 C433.537802,10.6844026 432.679306,11.0015583 432.06,11.62 C409.29,34.43 405.66,65.43 421.58,101.27 C426.75,113.2 426,123.74 419.58,131.72 C419.25,122.39 415.65,111.13 410.21,107.56 C407.604595,105.790322 404.142755,105.957502 401.72,107.97 C399.09,109.89 397.72,112.11 397.51,114.56 C397.23,118.88 400.92,123.16 405.17,127.34 C387.74,115.46 376.72,113.71 373.28,113.47 C372.451573,113.41201 371.73299,114.036573 371.675,114.865 C371.61701,115.693427 372.241573,116.41201 373.07,116.47 C375.97,116.67 384.61,118.03 398.4,126.47 C388.789495,123.331996 378.668656,122.05586 368.58,122.71 C368.044102,122.74394 367.567018,123.061201 367.328462,123.542272 C367.089906,124.023344 367.12612,124.595141 367.423462,125.042272 C367.720804,125.489404 368.234102,125.74394 368.77,125.71 C377.27,125.18 392,125.71 406.23,133.03 C395.38,130.03 382.67,130.47 368.78,136.95 C360.937496,132.821351 352.504986,129.927314 343.78,128.37 C321.53,124.47 299.91,130.19 281.31,144.88 L279.06,146.6 C262.19,140.69 245.25,138.27 229.27,139.73 C206.53,142.08 188.01,150.96 177.14,164.73 C170.215093,173.520069 166.578911,184.453372 166.86,195.64 C151.55,184.24 137.86,175.37 123.18,169.34 L123.07,169.34 C119.78,168.14 116.51,167.11 113.3,166.24 C118.548608,163.545219 122.986752,159.503955 126.16,154.53 C130.881456,147.176142 133.636037,138.73335 134.16,130.01 C142.513264,128.45965 148.309294,120.799882 147.530845,112.339704 C146.752395,103.879525 139.655917,97.4060401 131.16,97.4060401 C122.664083,97.4060401 115.567605,103.879525 114.789155,112.339704 C114.010706,120.799882 119.806736,128.45965 128.16,130.01 C127.16,144.26 118.26,163.07 100.43,163.24 L75.51,106.88 C74.2602449,104.141636 71.3027971,102.609941 68.3451448,103.16924 C65.3874924,103.72854 63.1935523,106.234376 63.03,109.24 L60.64,169.24 C60.2133333,169.48 59.7933333,169.723333 59.38,169.97 C47.72,171.14 32.97,168.78 25.96,152.13 C33.3284164,147.672397 36.081698,138.331454 32.3090143,130.589966 C28.5363305,122.848478 19.482791,119.26139 11.4317273,122.318211 C3.38066355,125.375032 -1.01080866,134.066911 1.30507729,142.361514 C3.62096324,150.656118 11.8798888,155.815956 20.35,154.26 C25.96,167.75 36.82,175.31 51.6,176.15 C51.24,176.52 50.88,176.89 50.54,177.27 C40.54,188.49 39.21,204.51 47.07,220.22 C48.435028,222.794519 50.1145518,225.18952 52.07,227.35 L52.89,228.21 C58.89,234.67 61.49,241.53 62.38,249.91 C61.99,252.34 58.98,255.51 56.05,258.57 C50.17,264.74 42.84,272.42 47.23,282.71 C50.46,290.28 58.54,292.64 65.23,293.85 C66.8825017,294.138243 68.27582,295.245366 68.93,296.79 C69.6389016,298.420223 69.4850029,300.297037 68.52,301.79 C62.12,311.79 60.74,320.69 64.52,327.64 C66.1849548,330.596698 68.5992623,333.06274 71.52,334.79 L39.87,334.79 C38.2131458,334.79 36.87,336.133146 36.87,337.79 C36.87,339.446854 38.2131458,340.79 39.87,340.79 L153.76,340.79 C157.76,352.36 166.93,361.32 179.53,365.45 C184.154865,366.970124 188.991721,367.746451 193.86,367.75 C207.470247,367.870307 220.319412,361.482882 228.44,350.56 C233.36,343.84 238.73,340.38 243.53,340.82 C248.7,341.29 252.07,346.12 253.98,350.09 L254.11,350.33 C256.686143,354.795459 261.351311,357.649533 266.5,357.91 C272.271449,358.053915 277.73518,355.312675 281.07,350.6 C285.908694,344.439413 293.296453,340.826555 301.13,340.79 C309.913133,340.480469 318.365962,344.155613 324.13,350.79 C328.84,356.17 334.92,359.11 341.21,359.04 C347.770788,358.848105 353.921037,355.802198 358.05,350.7 C364.71,342.49 372.19,340.81 381.39,340.81 L531.76,340.81 C533.416854,340.81 534.76,339.466854 534.76,337.81 C534.76,336.153146 533.416854,334.81 531.76,334.81 L430.97,334.81 C433.454177,333.096047 435.5078,330.830216 436.97,328.19 C440.09,322.42 439.79,315.39 436.19,308.06 C444.37,306.61 452.26,301.33 454.32,291.45 C455.398364,286.466246 453.156352,281.353168 448.76,278.77 C444.269295,276.016194 438.519825,276.447304 434.49,279.84 C427.439658,285.667759 419.307233,290.044927 410.56,292.72 C417.847322,287.716901 423.736634,280.936103 427.67,273.02 C434.55,259.31 436.05,242.52 432.29,224.13 C442.728203,213.554295 448.005944,198.934512 446.73,184.13 C452.037733,176.966341 455.256811,168.472129 456.03,159.59 C467.03,150.17 468.56,139.59 464.29,133.84 C460.94,129.34 453.17,126.77 442.02,133.74 C441.52,133.54 441.02,133.37 440.5,133.2 C444.150179,130.724196 447.4499,127.767565 450.31,124.41 C462.53,109.41 475.92,100.6 489.59,98.41 C493.583945,97.9706743 497.416215,100.115782 499.13,103.75 C499.60189,104.747378 500.583184,105.405223 501.685055,105.46287 C502.786926,105.520518 503.831509,104.968662 504.404899,104.025972 C504.978289,103.083281 504.987929,101.901923 504.43,100.95 C503.954458,99.9991204 503.395607,99.0922418 502.76,98.24 C508.135941,99.0375032 513.340901,100.727425 518.16,103.24 C519.152844,103.752473 520.348222,103.670738 521.26207,103.027894 C522.175918,102.385049 522.656806,101.287617 522.51,100.18 C521.366069,90.4677778 515.579616,81.914863 506.99,77.24 C506.03635,76.7435189 505.054701,76.3027785 504.05,75.92 C508.28,75.46 512.69,75.31 517.18,75.15 C538.72,74.4 563.18,73.55 574.07,37.34 C574.367861,36.3061835 574.08932,35.1920213 573.34,34.42 Z M120.84,113.79 C120.835955,109.558417 123.381885,105.741254 127.290197,104.119093 C131.19851,102.496933 135.699181,103.389376 138.692794,106.380127 C141.686407,109.370878 142.583155,113.870694 140.964733,117.780556 C139.346311,121.690418 135.531585,124.239998 131.3,124.24 C125.529284,124.234499 120.851021,119.560708 120.84,113.79 L120.84,113.79 Z M7,138.06 C7,132.283102 11.6831015,127.6 17.46,127.6 C23.2368985,127.6 27.92,132.283102 27.92,138.06 C27.92,143.836898 23.2368985,148.52 17.46,148.52 C11.6853865,148.514487 7.00551276,143.834613 7,138.06 Z M413.51,154.59 C412.954028,155.646818 411.992392,156.432273 410.845849,156.766052 C409.699307,157.099832 408.466342,156.953266 407.43,156.36 C406.270672,155.860005 405.359985,154.916385 404.901471,153.740034 C404.442957,152.563683 404.474842,151.25267 404.99,150.1 C406.44,146.61 410.46,144.32 414.31,142.88 L415.19,143.39 C415.4,147.19 415.24,151.61 413.51,154.6 L413.51,154.59 Z M400.58,114.8 C400.68,113.25 401.66,111.8 403.58,110.44 C404.37754,109.790971 405.362766,109.415814 406.39,109.37 C407.204371,109.388946 407.99464,109.650048 408.66,110.12 C413.71,113.43 417.07,125.89 416.66,134.63 C414.57023,132.207506 412.336169,129.913336 409.97,127.76 C405.22,123.24 400.33,118.61 400.57,114.8 L400.58,114.8 Z M181.98,168.53 C191.84,156.04 208.9,147.96 229.98,145.78 C262.1,142.85 298.51,156.54 329.87,183.35 C343.998168,195.423724 356.240354,209.54336 366.19,225.24 C366.407564,229.291498 365.766915,233.343264 364.31,237.13 C364.011766,237.903199 364.396801,238.771766 365.17,239.07 C365.943199,239.368234 366.811766,238.983199 367.11,238.21 C368.141104,235.568259 368.81375,232.80032 369.11,229.98 C370.576667,232.48 371.966667,234.996667 373.28,237.53 C373.04,246.41 370.34,252.37 364.9,256.09 C364.456991,256.391889 364.208689,256.907189 364.248628,257.441792 C364.288568,257.976394 364.61068,258.449079 365.093628,258.681792 C365.576577,258.914504 366.146991,258.871889 366.59,258.57 C371.75,255.04 374.77,249.9 375.84,242.72 C381.113428,253.707516 384.816316,265.381712 386.84,277.4 C387.696652,282.33731 387.56067,287.395844 386.44,292.28 C384.59,299.9 380.67,305.56 374.79,309.11 C367.28,313.63 356.89,314.54 345.53,311.66 C332.65,308.4 321.16,299.61 314,287.55 C311.48,283.31 308.95,279.26 306.4,275.37 C306.34231,275.269752 306.278871,275.172923 306.21,275.08 C303.41,270.81 300.6,266.75 297.77,262.91 C300.147187,263.570601 302.602733,263.906977 305.07,263.91 C305.73,263.91 306.36,263.91 306.98,263.84 C307.808427,263.776487 308.428513,263.053427 308.365,262.225 C308.301487,261.396573 307.578427,260.776487 306.75,260.84 C302.422767,261.167951 298.090667,260.27034 294.25,258.25 C292.41,255.89 290.57,253.63 288.72,251.45 C291.191293,252.053768 293.726022,252.359279 296.27,252.36 C303.853441,252.423668 311.177745,249.603328 316.76,244.47 C317.240622,244.1383 317.485047,243.557814 317.386457,242.982225 C317.287867,242.406637 316.864186,241.940588 316.30057,241.78775 C315.736954,241.634913 315.135869,241.823072 314.76,242.27 C306.23,250.2 293.54,250.81 284.76,246.84 C277.556056,238.665002 269.343787,231.437265 260.32,225.33 C245.97,215.91 231.22,211.77 216.26,212.91 C212.896204,208.218536 212.143053,202.140614 214.26,196.77 C214.33,196.57 214.41,196.37 214.49,196.18 C214.771529,195.43118 214.415861,194.593199 213.68166,194.275491 C212.94746,193.957782 212.093132,194.272165 211.74,194.99 C211.62,195.26 211.51,195.54 211.43,195.77 C209.188777,201.50576 209.72782,207.955813 212.89,213.24 C209.227315,213.719136 205.60902,214.491619 202.07,215.55 C192.34,208.94 187.92,198.61 189.92,186.82 C190.009316,186.284102 189.80595,185.741261 189.386506,185.395962 C188.967063,185.050662 188.395266,184.955363 187.886506,185.145962 C187.377747,185.336561 187.009316,185.784102 186.92,186.32 C184.85,198.57 189.04,209.39 198.49,216.69 C197.63,216.99 196.77,217.32 195.91,217.69 C191.29,214.22 186.77,210.77 182.39,207.42 C179.303333,205.06 176.26,202.726667 173.26,200.42 C171.95,188.24 174.87,177.54 181.98,168.53 Z M256.98,230.35 C270.28,239.08 283.55,252.9 296.59,271.55 C256.65,259.31 227.26,240.74 201.67,221.96 C220.66,215.63 238.76,218.39 257.01,230.34 L256.98,230.35 Z M68.98,109.44 C68.9689756,109.313633 69.0094973,109.188175 69.0923579,109.092132 C69.1752185,108.996089 69.293382,108.937617 69.42,108.93 C69.539309,108.889608 69.6699624,108.899907 69.7814685,108.958495 C69.8929747,109.017083 69.9755778,109.118834 70.01,109.24 L76.81,124.61 L68.03,133.39 L68.98,109.44 Z M66.83,163.49 L77.42,152.9 C77.9707177,152.30898 77.9544678,151.387981 77.3832436,150.816756 C76.8120194,150.245532 75.8910195,150.229282 75.3,150.78 L67.01,159.07 L67.86,137.81 L78.12,127.55 L84.38,141.7 L79.38,146.7 C78.9786936,147.073941 78.8135016,147.637111 78.9492289,148.168578 C79.0849562,148.700045 79.4999554,149.115044 80.0314222,149.250771 C80.5628889,149.386498 81.1260588,149.221306 81.5,148.82 L85.76,144.64 L93.76,162.86 C83.76,162.22 74.56,163.41 66.76,166.38 L66.83,163.49 Z M52.76,280.35 C50.12,274.16 54.07,269.35 60.4,262.71 C61.2,261.87 61.99,261.04 62.75,260.2 C62.75,260.96 62.75,261.73 62.7,262.51 C62.6083314,271.072779 63.7020379,279.607055 65.95,287.87 C58.37,286.46 54.41,284.24 52.76,280.35 Z M100.87,334.79 L100.8,334.79 C84.09,334.79 73.37,331.31 69.8,324.79 C67.22,320.06 68.45,313.25 73.25,305.57 C80.8221909,318.970273 92.8270819,329.313221 107.2,334.82 L100.87,334.79 Z M141.68,334.79 C118.95,334.79 100.92,328.24 88.09,315.33 C75.45,302.61 68.56,283.87 68.69,262.63 C68.857149,258.367732 68.7536075,254.099151 68.38,249.85 C68.3880303,249.723461 68.3880303,249.596539 68.38,249.47 C67.38,239.88 64.38,231.74 57.28,224.09 L56.48,223.25 C54.8913607,221.490294 53.5244942,219.542425 52.41,217.45 C45.64,203.9 46.59,190.71 55.03,181.26 C62.44,172.96 76.93,166.68 97.83,169.18 L97.99,169.18 C113.17,172.27 124.7,182.44 128.08,195.72 C131.94,210.89 124.91,227.37 108.73,240.99 C107.38,242.19 106.03,243.36 104.73,244.5 C93.1,254.61 82.11,264.15 86.67,280.11 C90.46,293.38 106.61,300.99 131.04,300.98 C137.39,300.87 142.04,302.41 145.38,305.7 C149.52,309.81 151.57,316.87 151.48,326.7 C151.477534,329.383408 151.721897,332.061356 152.21,334.7 L141.68,334.79 Z M438.31,284.46 C440.37716,282.691631 443.352681,282.468973 445.66,283.91 C447.88206,285.159916 449.011032,287.727614 448.43,290.21 C446.88,297.67 440.24,302.46 431.48,302.46 L431.27,302.46 C430.166975,302.462573 429.150697,303.058586 428.61,304.02 C428.079198,304.990296 428.125314,306.173944 428.73,307.1 C433.25,314.01 434.3,320.48 431.68,325.32 C428.43,331.32 419.8,334.79 408.02,334.79 L381.37,334.79 C372.37,334.79 362.03,336.23 353.37,346.85 C350.371805,350.593062 345.89262,352.845431 341.1,353.02 L340.97,353.02 C336.42,353.02 332.14,350.88 328.62,346.86 C321.685878,338.879609 311.526485,334.446352 300.96,334.79 C291.289895,334.868636 282.187071,339.366631 276.25,347 C274.129609,350.142413 270.560146,351.994919 266.77,351.92 C263.668446,351.746181 260.860125,350.030402 259.29,347.35 C255.63,339.85 250.23,335.41 244.05,334.85 C237.05,334.21 229.79,338.53 223.57,347.02 C212.73,361.81 194.57,364.07 181.37,359.75 C166.37,354.84 157.37,342.52 157.37,326.82 C157.48,315.31 154.83,306.82 149.49,301.5 C145.03,297.08 138.77,294.9 130.87,295.04 C109.69,295.04 95.28,288.86 92.33,278.52 C88.82,266.24 97.1,259.04 108.56,249.09 C109.89,247.93 111.25,246.75 112.56,245.59 C130.56,230.48 138.26,211.78 133.8,194.3 C131.986229,187.306162 128.296832,180.940483 123.13,175.89 C138,182.36 152.13,192.03 168.56,204.45 C171.893333,206.963333 175.27,209.536667 178.69,212.17 C183.5,215.86 188.48,219.67 193.61,223.49 C222.13,244.77 254.98,266.24 301.79,279.33 C304.123333,282.923333 306.456667,286.666667 308.79,290.56 C316.79,303.98 329.59,313.77 344,317.43 C348.572988,318.616835 353.275596,319.231533 358,319.26 C364.967237,319.434809 371.849361,317.698716 377.9,314.24 C382.73203,311.342379 386.645998,307.137203 389.19,302.11 C407.82,301.74 424.76,295.68 438.33,284.46 L438.31,284.46 Z M422.31,270.32 C416.25,282.39 405.81,290.81 391.94,294.89 C392.05,294.48 392.17,294.06 392.27,293.64 C393.581102,287.983716 393.751083,282.122763 392.77,276.4 C391.945861,271.28141 390.807036,266.218479 389.36,261.24 C394.691156,261.140863 399.860992,259.394296 404.16,256.24 C404.622036,255.933952 404.877674,255.39808 404.824817,254.846402 C404.771961,254.294724 404.419223,253.817141 403.907481,253.60439 C403.395739,253.39164 402.808386,253.478392 402.38,253.83 C398.353755,256.803232 393.453764,258.354486 388.45,258.24 C379.45,229.54 360.16,201.33 333.76,178.76 C326.272827,172.34189 318.291446,166.523875 309.89,161.36 C312.02257,159.846328 314.257979,158.483029 316.58,157.28 C317.078689,157.044055 317.407611,156.553408 317.436435,156.002472 C317.465259,155.451537 317.189331,154.929245 316.717986,154.64255 C316.24664,154.355855 315.655961,154.351035 315.18,154.63 C312.350792,156.08374 309.650972,157.776564 307.11,159.69 C305.636667,158.823333 304.156667,157.983333 302.67,157.17 C307.808089,151.701415 314.360213,147.762526 321.6,145.79 C322.398051,145.566325 322.863675,144.738051 322.64,143.94 C322.416325,143.141949 321.588051,142.676325 320.79,142.9 C312.757879,145.089123 305.519737,149.530553 299.93,155.7 C295.263333,153.246667 290.553333,151.06 285.8,149.14 C310.55,129.99 340.32,128.37 367.15,142.88 L367.43,143.03 C378.64,149.14 389.32,158.03 398.91,169.7 C406.182563,178.034971 412.26077,187.340751 416.97,197.35 C429.76,224.97 431.76,251.56 422.32,270.32 L422.31,270.32 Z M430.59,216.96 C428.493185,209.376628 425.760154,201.98373 422.42,194.86 C417.491757,184.363318 411.127446,174.603136 403.51,165.86 C395.557249,156.017848 386.060576,147.530956 375.39,140.73 C388.83,135.62 400.89,136.73 410.75,141.12 C406.42,143.12 403.5,145.82 402.21,148.94 C400.556113,152.8019 402.275903,157.278672 406.09,159.04 C407.219411,159.596269 408.461034,159.887007 409.72,159.89 C412.388984,159.902606 414.845333,158.435726 416.1,156.08 C417.86,153.08 418.29,149.01 418.26,145.3 C423.23059,148.695717 427.560746,152.944619 431.05,157.85 C436.382314,165.141492 439.712733,173.701978 440.71,182.68 C440.611309,183.20146 440.652718,183.739768 440.83,184.24 C441.597375,196.038114 437.951197,207.700181 430.6,216.96 L430.59,216.96 Z M459.47,137.37 C461.61,140.24 460.52,145.84 455.63,151.5 C454.93499,147.142544 453.0918,143.048868 450.29,139.64 C449.560135,138.788726 448.76434,137.996274 447.91,137.27 C453.69,134.45 457.76,135.1 459.48,137.38 L459.47,137.37 Z M445.76,143.52 C451.19,149.95 452.31,162.26 445.36,175.12 C443.574447,167.688 440.39857,160.661033 436,154.41 C432.094156,148.91869 427.253915,144.156298 421.7,140.34 C423.647134,139.581179 425.654066,138.98579 427.7,138.56 L427.9,138.56 C435.37,137.01 441.63,138.69 445.76,143.52 Z M516.98,69.24 C500.98,69.8 484.48,70.37 473.63,85.04 C472.959602,85.8991544 472.807828,87.054285 473.233533,88.0574576 C473.659238,89.0606302 474.595464,89.7540588 475.679163,89.8688471 C476.762862,89.9836355 477.823582,89.5017289 478.45,88.61 C480.046132,86.4312327 481.945314,84.4916421 484.09,82.85 C490.85,79.47 497.98,79.39 504.2,82.65 C509.317513,85.3883262 513.237095,89.9279152 515.2,95.39 C491.2,85.96 466.71,94.77 445.75,120.58 C442.95651,123.871699 439.671066,126.711888 436.01,129 C440.65,122.27 442.56,114.79 444.51,107 C446.05,100.88 447.64,94.55 450.7,88.1 C451.188477,87.1277081 451.112197,85.9671431 450.50066,85.0671518 C449.889123,84.1671605 448.838211,83.6688497 447.754363,83.7649405 C446.670514,83.8610313 445.723662,84.5364579 445.28,85.53 C441.97,92.53 440.28,99.13 438.69,105.53 C436.48,114.3 434.49,122.12 428.54,128.73 C432.29,120.15 431.91,109.9 427.15,98.92 C412.93,66.92 415.28,39.2 433.89,18.55 C437.267741,23.5586889 439.488112,29.2565002 440.39,35.23 C433.516228,45.2097102 428.952326,56.5955519 427.03,68.56 C426.851367,69.6175062 427.250476,70.6899818 428.076987,71.3734355 C428.903498,72.0568892 430.031844,72.2474881 431.036987,71.8734355 C432.042131,71.4993829 432.771367,70.6175063 432.95,69.56 C436.24,49.44 446.76,32.24 462.66,21.18 C480.37,8.78 503.53,4.42 529.88,8.47 C520.93,21.31 511.26,30.31 499.74,36.58 C476.48,39.25 458.41,52.99 450.12,74.38 C449.523532,75.937443 450.302557,77.6835325 451.86,78.28 C453.417443,78.8764675 455.163532,78.097443 455.76,76.54 C466.07,49.97 488.56,43.79 501.05,42.47 C512.15,41.3 520.69,42.02 528.95,42.71 C540.22,43.66 550.95,44.56 566.63,40.83 C556.34,67.84 537.19,68.5 516.98,69.24 Z" id="Shape"></path>
                <circle id="Oval" cx="131.29" cy="113.79" r="5.55"></circle>
                <circle id="Oval" cx="17.46" cy="138.07" r="5.55"></circle>
                <path d="M126.03,286.24 L126.03,286.24 C125.202897,286.245514 124.536345,286.919509 124.540015,287.746622 C124.543685,288.573735 125.216192,289.241789 126.043311,289.239963 C126.87043,289.238137 127.539982,288.567121 127.54,287.74 C127.540036,287.338686 127.379258,286.954092 127.093613,286.672206 C126.807968,286.390319 126.421279,286.234649 126.02,286.24 L126.03,286.24 Z" id="Shape"></path>
                <path d="M98.36,213.07 C99.4233523,211.697979 100.294708,210.187405 100.95,208.58 L100.95,208.58 C102.241257,205.439636 102.659345,202.008554 102.16,198.65 L101.41,193.5 C100.776963,189.252763 96.8300359,186.316035 92.58,186.93 L70.41,190.18 C66.1627629,190.813037 63.2260345,194.759964 63.84,199.01 L64.52,203.66 C65.7851972,213.147541 73.8192182,220.270444 83.39,220.39 C89.2514312,220.394344 94.7867629,217.693103 98.39,213.07 L98.36,213.07 Z M71.28,196.07 L93.45,192.82 L93.71,192.82 C94.5977785,192.820504 95.3510491,193.471636 95.48,194.35 L96.23,199.5 C96.3663828,200.457075 96.3965661,201.426293 96.32,202.39 C88.1571601,197.66277 77.817403,199.151695 71.32,205.99 C70.8896853,204.960891 70.5874216,203.882817 70.42,202.78 L69.76,198.14 C69.6169884,197.162603 70.2927642,196.25411 71.27,196.11 L71.28,196.07 Z M84.68,214.28 C81.113588,214.604443 77.5751464,213.414075 74.93,211 C79.6649308,205.072848 88.202502,203.870744 94.39,208.26 C94.1566667,208.626667 93.9033333,208.986667 93.63,209.34 C91.4612846,212.170111 88.2179316,213.976398 84.67,214.33 L84.68,214.28 Z" id="Shape"></path>
                <path d="M570.69,334.79 L551.76,334.79 C550.103146,334.79 548.76,336.133146 548.76,337.79 C548.76,339.446854 550.103146,340.79 551.76,340.79 L570.64,340.79 C572.296854,340.79 573.64,339.446854 573.64,337.79 C573.64,336.133146 572.296854,334.79 570.64,334.79 L570.69,334.79 Z" id="Shape"></path>
                <path d="M29.87,334.79 L14,334.79 C12.3431458,334.79 11,336.133146 11,337.79 C11,339.446854 12.3431458,340.79 14,340.79 L29.87,340.79 C31.5268542,340.79 32.87,339.446854 32.87,337.79 C32.87,336.133146 31.5268542,334.79 29.87,334.79 Z" id="Shape"></path>
                <path d="M541.83,334.79 L541.83,334.79 C540.173146,334.79 538.83,336.133146 538.83,337.79 C538.83,339.446854 540.173146,340.79 541.83,340.79 C543.486854,340.79 544.83,339.446854 544.83,337.79 C544.830004,336.992615 544.512562,336.228034 543.947788,335.665136 C543.383014,335.102239 542.617381,334.787342 541.82,334.79 L541.83,334.79 Z" id="Shape"></path>
                <path d="M4.02,334.79 L4.02,334.79 C2.80661327,334.79 1.7127044,335.520927 1.2483614,336.64195 C0.784018402,337.762973 1.04068567,339.053326 1.89867966,339.91132 C2.75667364,340.769314 4.04702713,341.025982 5.1680503,340.561639 C6.28907347,340.097296 7.02,339.003387 7.02,337.79 C7.02000443,336.992615 6.70256156,336.228034 6.13778776,335.665136 C5.57301396,335.102239 4.80738068,334.787342 4.01,334.79 L4.02,334.79 Z" id="Shape"></path>
                <path d="M407.38,249.97 L407.38,249.97 C406.552897,249.975514 405.886345,250.649509 405.890015,251.476622 C405.893685,252.303735 406.566192,252.971789 407.393311,252.969963 C408.22043,252.968137 408.889982,252.297121 408.89,251.47 C408.890036,251.068686 408.729258,250.684092 408.443613,250.402206 C408.157968,250.120319 407.771279,249.964649 407.37,249.97 L407.38,249.97 Z" id="Shape"></path>
            </g>
        </g>
    </g>
</svg>