<?xml version="1.0" encoding="UTF-8"?>
<svg width="731px" height="459px" viewBox="0 0 731 459" version="1.1" xmlns="http://www.w3.org/2000/svg" xmlns:xlink="http://www.w3.org/1999/xlink">
    <!-- Generator: Sketch 45.2 (43514) - http://www.bohemiancoding.com/sketch -->
    <title>artgoat</title>
    <desc>Created with Sketch.</desc>
    <defs></defs>
    <g id="Page-1" stroke="none" stroke-width="1" fill="none" fill-rule="evenodd">
        <g id="artgoat" transform="translate(2.000000, 3.000000)">
            <g id="bg" transform="translate(22.000000, 12.000000)">
                <g id="colors" fill-rule="nonzero">
                    <path d="M618.96,440.65 L565.04,440.65 C565.04,428.98 551.04,428.98 551.04,440.65 L336.67,440.65 C336.67,429.11 322.92,429.11 322.92,440.65 L91.53,440.65 C91.53,428.98 77.78,428.98 77.78,440.65 L0.04,440.65 C4.96,436.983333 10.05,433.43 15.31,429.99 C91.42,380.08 201.45,353.25 314.03,349.51 C333.78,348.85 353.61,348.9 373.35,349.67 C490.3,354.19 604.04,383.67 679.35,438.05 C680.55,438.91 681.733333,439.776667 682.9,440.65 L618.96,440.65 Z" id="Shape" fill="#DEFBE9"></path>
                    <path d="M657.1,177.76 C658.345593,179.794784 658.390249,182.344892 657.216661,184.422038 C656.043073,186.499185 653.8357,187.776897 651.45,187.76 L548.72,187.76 C542.2,187.76 539.6,179.24 545.06,175.69 C549.06,173.12 554.84,172.48 562.06,174.41 C555.23,137.92 610.25,127.63 617.06,164.11 C621.74,148.01 642.24,153.97 637.55,170.11 C646.24,169.14 653.43,171.91 657.1,177.76 Z" id="Shape" fill="#FFFFFF"></path>
                    <path d="M624.65,322.34 L614,316.34 C612.327482,315.395512 610.23728,315.633585 608.82,316.93 L603.24,322.03 C602.787788,322.439928 602.157868,322.59118 601.568831,322.43127 C600.979793,322.271359 600.512836,321.822329 600.33,321.24 L598.13,314.24 C597.657358,312.725634 596.409391,311.58071 594.86,311.24 L581.56,308.3 C586.32,306.566667 591.103333,304.9 595.91,303.3 C604.297511,300.437985 613.546017,303.80524 618.13,311.39 C620.336667,314.976667 622.51,318.626667 624.65,322.34 Z" id="Shape" fill="#FFFFFF"></path>
                    <circle id="Oval" fill="#FFF9E8" cx="571.1" cy="59.36" r="20.13"></circle>
                    <path d="M550.96,295.76 L532.14,287.07 C529.960554,286.063749 527.382188,286.558505 525.73,288.3 L515.79,298.82 C515.233647,299.396189 514.434089,299.669573 513.641428,299.554637 C512.848766,299.439701 512.159786,298.950479 511.79,298.24 L506.04,286.95 C505.124238,285.15879 503.319482,283.995047 501.31,283.9 L474.55,282.69 C484.17,277.27 493.91,272.003333 503.77,266.89 C513.469638,261.83563 525.380639,264.225324 532.38,272.63 C538.66,280.203333 544.853333,287.913333 550.96,295.76 Z" id="Shape" fill="#FFFFFF"></path>
                    <path d="M306.44,26.3 C313.44,31.82 309.21,43.18 300.29,43.18 L227.29,43.18 C224.784872,43.1854137 222.566641,41.5628348 221.813034,39.1737408 C221.059428,36.7846468 221.945173,34.1829613 224,32.75 C227.17,30.59 231.86,29.75 237.78,31.25 C233.59,-6.02 281.18,-11.37 285.38,25.9 C293.85,21.6 301.47,22.38 306.44,26.3 Z" id="Shape" fill="#FFFFFF"></path>
                    <path d="M180.1,270.76 L142.39,272.14 C140.237352,272.215623 138.47453,273.875757 138.27,276.02 L137.14,287.7 C137.061592,288.655218 136.480867,289.496568 135.615538,289.90863 C134.750209,290.320691 133.730995,290.241216 132.94,289.7 L120.94,281.49 C119.555031,280.547481 117.749385,280.492883 116.31,281.35 L87.31,298.6 C95.31,286.206667 103.536667,274.096667 111.99,262.27 C118.841005,252.666265 131.457122,249.13242 142.3,253.78 C155.053333,259.193333 167.653333,264.853333 180.1,270.76 Z" id="Shape" fill="#FFFFFF"></path>
                    <path d="M154.58,133.36 C157.227255,135.468988 158.246564,139.024267 157.118908,142.215533 C155.991252,145.406799 152.964566,147.532397 149.58,147.51 L49.16,147.51 C47.0025965,147.504484 45.0579549,146.208396 44.2226096,144.219271 C43.3872643,142.230146 43.8234213,139.934228 45.33,138.39 C48.891645,134.743307 54.2808407,133.564052 59.04,135.39 C55.57,123.15 70.83,118.67 74.36,131.2 C75.03,86.66 134.77,87.56 134.1,132.1 C142.61,129.24 149.88,129.68 154.58,133.36 Z" id="Shape" fill="#FFFFFF"></path>
                    <path d="M313.99,349.51 C201.41,353.25 91.38,380.08 15.27,429.99 C36.1747661,384.532403 60.2612548,340.606641 87.35,298.54 L116.35,281.29 C117.789385,280.432883 119.595031,280.487481 120.98,281.43 L132.98,289.64 C133.770995,290.181216 134.790209,290.260691 135.655538,289.84863 C136.520867,289.436568 137.101592,288.595218 137.18,287.64 L138.31,275.96 C138.51453,273.815757 140.277352,272.155623 142.43,272.08 L180.14,270.73 L180.14,270.73 C227.19,293.14 272.04,318.97 313.99,349.51 Z" id="Shape" fill="#F1F8F8"></path>
                    <path d="M679.31,438.05 C604,383.65 490.26,354.19 373.31,349.67 C405.306543,324.813183 439.139999,302.415776 474.52,282.67 L501.28,283.88 C503.289482,283.975047 505.094238,285.13879 506.01,286.93 L511.76,298.22 C512.129786,298.930479 512.818766,299.419701 513.611428,299.534637 C514.404089,299.649573 515.203647,299.376189 515.76,298.8 L525.7,288.28 C527.352188,286.538505 529.930554,286.043749 532.11,287.05 L550.93,295.74 L550.93,295.74 C555.69,301.86 560.393333,308.07 565.04,314.37 C570.5,312.25 575.993333,310.196667 581.52,308.21 L594.82,311.15 C596.369391,311.49071 597.617358,312.635634 598.09,314.15 L600.29,321.15 C600.472836,321.732329 600.939793,322.181359 601.528831,322.34127 C602.117868,322.50118 602.747788,322.349928 603.2,321.94 L608.78,316.84 C610.19728,315.543585 612.287482,315.305512 613.96,316.25 L624.61,322.25 C645.972052,359.293032 664.266456,398.022318 679.31,438.05 L679.31,438.05 Z" id="Shape" fill="#F1F8F8"></path>
                </g>
                <g id="shadows" transform="translate(0.000000, 7.000000)" fill-rule="nonzero">
                    <path d="M27.04,433.65 C140.44,356.55 326.66,335.97 526.23,363.3 C313.99,317.88 125.37,346.76 0.04,433.65 L27.04,433.65 Z" id="Shape" fill="#FFFFFF" opacity="0.4"></path>
                    <path d="M47.69,404.22 C76.75,340.78 105.23,280.74 129.69,244.69 L113.23,253.69 C80.91,291.04 49.35,352.56 18.02,421.25 L47.69,404.22 Z" id="Shape" fill="#FFFFFF" opacity="0.6"></path>
                    <path d="M400.69,343.88 C447.69,307 492.23,274 525,259.77 L508.82,257.96 C467.88,276.52 421.93,306.65 373.31,342.96 L400.69,343.88 Z" id="Shape" fill="#FFFFFF" opacity="0.6"></path>
                    <path d="M516.04,361.95 C485.04,410.37 421.56,429.51 341.44,433.65 L551.04,433.65 C551.04,422.01 565.04,422.01 565.04,433.65 L682.86,433.65 C642.88,401.39 583.32,379.6 516.04,361.95 Z" id="Shape" fill="#C3E0DA" opacity="0.2"></path>
                    <path d="M578.75,326.47 C598.44,331.02 613.3,326.58 623.18,312.81 L631.04,324.81 C650.79,363.5 669.04,400.88 677.69,430.24 L620.48,396.97 L596.13,352.23 L578.75,326.47 Z" id="Shape" fill="#D3D9D9" opacity="0.2"></path>
                    <path d="M132.35,112.21 C123.503333,130.343333 108.146667,139.776667 86.28,140.51 L151.04,140.51 C157.26,137.16 159.85,132.77 155.32,126.36 L134.32,124.36 L132.35,112.21 Z" id="Shape" fill="#CED6E8" opacity="0.15"></path>
                    <path d="M277.41,0.51 C279.21,17.33 273.83,30.31 255.2,36.18 L302.87,36.18 C313.46,27.99 311.53,21.68 301.13,16.62 L285.04,19.05 L277.41,0.51 Z" id="Shape" fill="#CED6E8" opacity="0.15"></path>
                    <path d="M611.93,144.75 C612.69,166.88 601.32,178.01 580.69,180.75 L651.44,180.75 C657.33,179.93 660.19,176.93 654.97,168.12 C648.97,162.53 643.55,163.03 638.19,164.23 C638.19,148 631.69,144.28 619.19,151.9 C615.6,151.63 612.9,149.76 611.93,144.75 Z" id="Shape" fill="#CED6E8" opacity="0.15"></path>
                </g>
                <g id="lines" stroke-linecap="round" stroke-linejoin="round" transform="translate(2.000000, 0.000000)">
                    <path d="M13.27,429.99 C41.4566667,369.03 73.7133333,313.103333 110.04,262.21 C116.891005,252.606265 129.507122,249.07242 140.35,253.72 C201.27,279.81 259.01,310.9 312,349.51" id="Shape" stroke="#D3DEE8" stroke-width="6"></path>
                    <path d="M594.13,359.21 C584.07,343.83 573.706667,328.893333 563.04,314.4 C552.44,300.033333 541.53,286.11 530.31,272.63 C523.310639,264.225324 511.399638,261.83563 501.7,266.89 C455.54,290.89 411.7,318.02 371.27,349.67" id="Shape" stroke="#D3DEE8" stroke-width="6"></path>
                    <g id="Shape"></g>
                    <path d="M563.04,314.4 C573.206667,310.46 583.483333,306.726667 593.87,303.2 C602.257511,300.337985 611.506017,303.70524 616.09,311.29 C640.272732,351.607319 660.749902,394.034354 677.27,438.05" id="Shape" stroke="#D3DEE8" stroke-width="6"></path>
                    <path d="M0.73,438.65 C164.95,319.19 513.91,319.19 678.13,438.65" id="Shape" stroke="#D3DEE8" stroke-width="6"></path>
                    <g id="Shape"></g>
                    <path d="M86.86,406.24 C101.300413,400.023159 116.160458,394.83033 131.33,390.7" id="Shape" stroke="#D3DEE8" stroke-width="3"></path>
                    <polyline id="Shape" stroke="#D3DEE8" stroke-width="6" points="109.25 341.09 118.59 324.91 134.71 334.36"></polyline>
                    <polyline id="Shape" stroke="#D3DEE8" stroke-width="6" points="112.97 355.18 122.32 339 138.43 348.45"></polyline>
                    <polyline id="Shape" stroke="#D3DEE8" stroke-width="6" points="116.69 369.27 126.04 353.09 142.15 362.54"></polyline>
                    <path d="M132.27,376.7 L118.59,324.91" id="Shape" stroke="#D3DEE8" stroke-width="6"></path>
                    <polyline id="Shape" stroke="#D3DEE8" stroke-width="6" points="153.3 342.66 164.16 327.46 179.29 338.42"></polyline>
                    <polyline id="Shape" stroke="#D3DEE8" stroke-width="6" points="155.65 357.04 166.51 341.84 181.64 352.8"></polyline>
                    <path d="M170.57,366.72 L164.16,327.46" id="Shape" stroke="#D3DEE8" stroke-width="6"></path>
                    <polyline id="Shape" stroke="#D3DEE8" stroke-width="6" points="69.75 373.33 76.39 358.11 91.56 364.85"></polyline>
                    <polyline id="Shape" stroke="#D3DEE8" stroke-width="6" points="74.44 385.4 81.08 370.18 96.25 376.91"></polyline>
                    <path d="M89.2,391.05 L76.39,358.11" id="Shape" stroke="#D3DEE8" stroke-width="6"></path>
                    <polyline id="Shape" stroke="#D3DEE8" stroke-width="6" points="520.62 327.52 536.44 317.59 546.27 333.47"></polyline>
                    <polyline id="Shape" stroke="#D3DEE8" stroke-width="6" points="517.33 341.72 533.15 331.78 542.98 347.67"></polyline>
                    <polyline id="Shape" stroke="#D3DEE8" stroke-width="6" points="514.03 355.92 529.86 345.98 539.69 361.86"></polyline>
                    <path d="M524.22,370.31 L536.44,317.59" id="Shape" stroke="#D3DEE8" stroke-width="6"></path>
                    <polyline id="Shape" stroke="#D3DEE8" stroke-width="6" points="610.67 371.09 628.02 364.16 634.84 381.55"></polyline>
                    <polyline id="Shape" stroke="#D3DEE8" stroke-width="6" points="604.88 384.47 622.23 377.53 629.05 394.93"></polyline>
                    <path d="M612.22,400.66 L628.02,364.16" id="Shape" stroke="#D3DEE8" stroke-width="6"></path>
                    <path d="M142.15,403.72 C149.383811,401.848423 156.733056,400.455407 164.15,399.55" id="Shape" stroke="#D3DEE8" stroke-width="3"></path>
                    <path d="M539.69,389.3 C551.52,392.3 562.76,395.58 573.28,399.05" id="Shape" stroke="#D3DEE8" stroke-width="3"></path>
                    <path d="M586.78,427.42 C596.031052,430.222611 604.963114,433.986478 613.43,438.65" id="Shape" stroke="#D3DEE8" stroke-width="3"></path>
                    <path d="M508.19,400.63 C515.166936,401.880486 522.067873,403.523089 528.86,405.55" id="Shape" stroke="#D3DEE8" stroke-width="3"></path>
                    <path d="M320.92,386.42 C333.469615,385.253436 346.100385,385.253436 358.65,386.42" id="Shape" stroke="#D3DEE8" stroke-width="3"></path>
                    <path d="M297.53,408.05 C304.94391,407.221965 312.400152,406.831288 319.86,406.88" id="Shape" stroke="#D3DEE8" stroke-width="3"></path>
                    <path d="M85.35,298.54 L114.35,281.29 C115.788215,280.437628 117.590104,280.496131 118.97,281.44 L130.97,289.64 C131.760995,290.181216 132.780209,290.260691 133.645538,289.84863 C134.510867,289.436568 135.091592,288.595218 135.17,287.64 L136.29,275.96 C136.498742,273.817821 138.259161,272.159951 140.41,272.08 L178.13,270.73" id="Shape" stroke="#D3DEE8" stroke-width="6"></path>
                    <path d="M472.52,282.69 L499.28,283.9 C501.280078,283.980991 503.084189,285.125248 504.01,286.9 L509.76,298.19 C510.129786,298.900479 510.818766,299.389701 511.611428,299.504637 C512.404089,299.619573 513.203647,299.346189 513.76,298.77 L523.7,288.25 C525.348232,286.502218 527.928862,286.003001 530.11,287.01 L548.94,295.71" id="Shape" stroke="#D3DEE8" stroke-width="6"></path>
                    <path d="M579.54,308.24 L592.85,311.14 C594.398398,311.482619 595.645542,312.626787 596.12,314.14 L598.32,321.14 C598.502836,321.722329 598.969793,322.171359 599.558831,322.33127 C600.147868,322.49118 600.777788,322.339928 601.23,321.93 L606.81,316.83 C608.226381,315.538556 610.312666,315.304505 611.98,316.25 L622.66,322.25" id="Shape" stroke="#D3DEE8" stroke-width="6"></path>
                    <path d="M546.72,187.73 L649.44,187.73 C651.827486,187.750561 654.038203,186.474288 655.214259,184.396451 C656.390315,182.318613 656.34657,179.766315 655.1,177.73 C651.43,171.88 644.23,169.13 635.61,170.01 C640.29,153.91 619.8,147.95 615.12,164.01 C608.29,127.53 553.28,137.82 560.12,174.3 C552.87,172.37 547.04,173.01 543.12,175.58 C537.59,179.21 540.2,187.73 546.72,187.73 Z" id="Shape" stroke="#D3DEE8" stroke-width="6"></path>
                    <path d="M225.24,43.14 L298.24,43.14 C307.16,43.14 311.4,31.78 304.39,26.26 C299.39,22.35 291.8,21.57 283.29,25.86 C279.1,-11.41 231.5,-6.06 235.7,31.21 C229.78,29.7 225.09,30.55 221.92,32.71 C219.860496,34.1460872 218.975796,36.7556884 219.737351,39.1481635 C220.498906,41.5406385 222.729312,43.1586623 225.24,43.14 L225.24,43.14 Z" id="Shape" stroke="#D3DEE8" stroke-width="6"></path>
                    <circle id="Oval" stroke="#D3DEE8" stroke-width="6" cx="569.1" cy="59.36" r="20.13"></circle>
                    <path d="M132.1,132.14 C140.61,129.26 147.88,129.7 152.58,133.39 C155.232491,135.48763 156.262929,139.036559 155.146292,142.228562 C154.029655,145.420564 151.011654,147.553255 147.63,147.54 L47.16,147.54 C44.9979663,147.544059 43.0451737,146.248782 42.2080369,144.255391 C41.3709,142.262 41.813343,139.96083 43.33,138.42 C46.8942962,134.778091 52.2804297,133.599506 57.04,135.42 C53.57,123.18 68.83,118.7 72.36,131.23 C73.04,86.68 132.77,87.58 132.1,132.14 Z" id="Shape" stroke="#D3DEE8" stroke-width="6"></path>
                </g>
            </g>
            <g id="main">
                <g id="colors-2" transform="translate(171.000000, 0.000000)" fill-rule="nonzero">
                    <path d="M360.38,111.74 L360.38,111.92 C352.91,112.26 346.45,115.58 342.82,120.43 C339.973333,118.65 336.973333,116.953333 333.82,115.34 C326.22,111.7 330.66,102.41 338.27,106.05 C326.68,96.93 328.93,79.67 340.99,77.84 C349.471874,85.5369587 355.694979,95.4005791 358.99,106.37 C359.16,106.95 359.33,107.53 359.48,108.12 C359.85,109.31 360.13,110.52 360.38,111.74 Z" id="Shape" fill="#B3876B"></path>
                    <path d="M383.6,129.44 C383.6,137.13 377.43,143.65 368.84,146.03 C367.035707,142.864341 364.943527,139.871687 362.59,137.09 L362.2,136.63 C359.034849,132.965371 355.521737,129.61636 351.71,126.63 L350.78,125.92 C348.28,123.98 345.62,122.15 342.83,120.4 C346.46,115.55 352.92,112.23 360.39,111.89 C360.81,111.89 361.23,111.89 361.66,111.89 C373.78,111.89 383.6,119.75 383.6,129.44 Z" id="Shape" fill="#FFFFFF"></path>
                    <path d="M294.83,111.89 C306.95,111.89 316.77,119.75 316.77,129.44 C316.77,139.13 306.95,146.99 294.83,146.99 C282.71,146.99 272.9,139.14 272.9,129.44 C272.9,119.74 282.72,111.89 294.83,111.89 Z" id="Shape" fill="#FFFFFF"></path>
                    <path d="M239.96,261.89 L268.96,267.63 C268.23,276.21 267.32,284.63 266.13,292.81 C254.697044,293.486712 243.281221,291.224891 232.97,286.24 C234.97,278.23 237.36,270.14 239.96,261.89 Z" id="Shape" fill="#BCD4DB"></path>
                    <path d="M282.57,47.59 C276.96,34.84 270.57,21.8 263.57,8.59 C262.423714,6.43138334 262.748234,3.78655028 264.382382,1.96909144 C266.01653,0.151632594 268.612113,-0.451199312 270.88,0.46 C287.94,7.31 303.44,16.74 316.81,29.65 C329.32,41.73 339.97,56.88 348.29,75.84 C352.677147,85.7155407 356.271817,95.9244016 359.04,106.37 C351.047618,79.7400639 326.543441,61.4980654 298.74,61.48 C295.390583,61.4774627 292.046414,61.7449962 288.74,62.28 C286.806667,57.4333333 284.75,52.5366667 282.57,47.59 Z" id="Shape" fill="#FFECC7"></path>
                    <path d="M229.53,109.99 C218.31,80.77 199.12,51.2 172.34,19.99 C170.714782,18.1082 170.467189,15.400796 171.72412,13.2554224 C172.981052,11.1100488 175.46385,10.0023265 177.9,10.5 C200.27,15.15 220.98,24.18 239.27,39.5 C244.578325,43.9734688 249.548547,48.8333896 254.14,54.04 C256.44,56.6466667 258.696667,59.3866667 260.91,62.26 C262.931289,64.8511724 264.611681,67.6910351 265.91,70.71 C268.278637,76.1688368 269.251209,82.1314247 268.74,88.06 C267.54,101.44 260.74,114.3 250.74,118.89 C246.764389,120.610505 242.258683,120.6333 238.265867,118.953108 C234.273051,117.272916 231.139294,114.035406 229.59,109.99 L229.53,109.99 Z" id="Shape" fill="#FFECC7"></path>
                    <path d="M259.65,238.52 C255.046379,237.611238 250.577232,240.604921 249.665751,245.208004 C248.75427,249.811088 251.745311,254.282002 256.347856,255.196203 C260.9504,256.110403 265.423081,253.122003 266.34,248.52 C266.781014,246.306557 266.323623,244.008593 265.068664,242.132719 C263.813704,240.256845 261.864222,238.957091 259.65,238.52 L259.65,238.52 Z M266.24,205.28 C267.110175,205.442211 267.787978,206.127988 267.94,207 C270.11,218.54 275.94,233.3 280.4,243.61 C282.26,247.91 283.9,251.44 284.94,253.61 C285.606789,255.034645 285.135581,256.732688 283.83,257.61 L268.95,267.61 L239.95,261.87 L239.95,261.87 L229.95,246.99 C229.066752,245.677001 229.279558,243.914969 230.45,242.85 C236.58,237.28 254.88,220.16 263.95,206.21 C264.432885,205.438573 265.355982,205.063691 266.24,205.28 Z" id="Shape" fill="#DBF6FF"></path>
                    <path d="M266.12,292.81 C265.4,297.77 264.563333,302.62 263.61,307.36 C262.73,311.69 261.73,315.93 260.61,320.05 L260.7,320.39 C250.460397,322.921651 239.825704,323.434534 229.39,321.9 L227.17,318.21 C227.893908,310.866367 229.042498,303.57082 230.61,296.36 C231.323333,293.026667 232.11,289.653333 232.97,286.24 C243.278219,291.223211 254.690382,293.484988 266.12,292.81 L266.12,292.81 Z" id="Shape" fill="#FF7F66"></path>
                    <path d="M229.8,338.54 C238.54,342.86 242.27,353.16 238.12,361.54 C233.97,369.92 223.53,373.22 214.79,368.9 C206.05,364.58 202.33,354.28 206.47,345.9 C210.61,337.52 221.04,334.22 229.8,338.54 Z" id="Shape" fill="#1FA5FF"></path>
                    <path d="M227.16,318.21 L229.38,321.9 C228.54,321.79 227.71,321.66 226.88,321.52 C226.96,320.42 227.04,319.32 227.16,318.21 Z" id="Shape" fill="#C7F7FF"></path>
                    <path d="M231.62,113.79 C222.74,121.33 215.97,131.66 211.75,142.97 L211.75,142.97 C209.121851,142.417317 206.391249,142.614835 203.87,143.54 C196.55,146.29 190.49,159.65 206.98,164.29 C206.458899,170.415694 206.758212,176.583546 207.87,182.63 C175.11,187.74 143.97,183.73 113.99,173.21 C106.026779,180.476525 96.8377827,186.272973 86.85,190.33 C74.69,183.61 60.73,176.88 45.34,170.15 C64.49,178 88.34,166.03 103.42,147.72 C110.81,138.72 116.08,128.26 117.68,117.84 C119.364397,106.57795 115.383042,95.2101356 107.04,87.46 C145.04,121.79 184.45,128.46 231.62,113.79 Z" id="Shape" fill="#1FA5FF"></path>
                    <path d="M207.83,157.59 C207.44,159.83 207.16,162.06 206.99,164.3 L206.99,164.3 C190.5,159.66 196.56,146.3 203.88,143.55 C206.401249,142.624835 209.131851,142.427317 211.76,142.98 C217.03,144.08 221.3,148.18 219.9,154.88 C219.670919,155.809214 219.012244,156.573369 218.126968,156.936965 C217.241691,157.30056 216.236062,157.219959 215.42,156.72 C212.17,154.8 208.39,154.72 207.83,157.59 Z" id="Shape" fill="#FFEE92"></path>
                    <path d="M375.04,162.97 C373.929747,157.017841 371.834321,151.292595 368.84,146.03 C367.035707,142.864341 364.943527,139.871687 362.59,137.09 L362.2,136.63 C359.034895,132.965328 355.521778,129.616313 351.71,126.63 L350.78,125.92 C348.28,123.98 345.62,122.15 342.83,120.4 C340.04,118.65 337,116.92 333.83,115.31 C326.23,111.67 330.67,102.38 338.28,106.02 C326.69,96.9 328.94,79.64 341,77.81 C320.324553,59.0438501 289.763246,56.1256909 265.91,70.64 L265.81,70.64 C268.178637,76.0988368 269.151209,82.0614247 268.64,87.99 C267.44,101.37 260.64,114.23 250.64,118.82 C243.879245,121.831253 235.933527,119.705169 231.58,113.72 C222.7,121.26 215.93,131.59 211.71,142.9 L211.71,142.9 C216.98,144 221.25,148.1 219.85,154.8 C219.620919,155.729214 218.962244,156.493369 218.076968,156.856965 C217.191691,157.22056 216.186062,157.139959 215.37,156.64 C212.13,154.72 208.37,154.64 207.79,157.51 C207.4,159.75 207.12,161.98 206.95,164.22 L206.95,164.22 C206.4283,170.345683 206.727617,176.513615 207.84,182.56 C208.16976,184.355594 209.567269,185.765014 211.36,186.11 C213.306043,186.577019 215.320634,185.662419 216.25,183.89 L216.25,183.8 C216.549557,186.322165 217.088658,188.810066 217.86,191.23 C219.051441,194.894907 222.095871,197.653921 225.86,198.48 L225.86,198.48 C229.471562,199.334447 233.264166,198.189798 235.8,195.48 C241.93,188.96 242.8,178.63 241.93,166.98 C242.05,167.18 242.18,167.38 242.31,167.57 C244.92,171.18 250.24,171.21 253.31,168.03 C255.776137,170.583034 258.452196,172.924585 261.31,175.03 C264.199821,177.159971 267.267841,179.036917 270.48,180.64 C284.16,187.5 297.95,195.88 308.15,206.37 C313.991975,212.153762 318.541926,219.109904 321.5,226.78 C321.84,227.69 322.14,228.61 322.42,229.55 C323.055939,232.091964 325.520961,233.733178 328.111511,233.339415 C330.702061,232.945651 332.568089,230.646117 332.42,228.03 C332.64,232.4 332.73,236.76 332.65,241.08 L332.65,241.21 C332.673585,244.908272 335.300609,248.077394 338.930368,248.78635 C342.560128,249.495307 346.18656,247.547595 347.6,244.13 C351.396551,235.069979 354.225577,225.634308 356.04,215.98 L356.04,215.98 C355.991893,216.237179 355.968453,216.498365 355.97,216.76 C355.986492,219.272218 358.027728,221.300054 360.54,221.3 C362.332152,221.291088 363.957464,220.246523 364.71,218.62 C368.502224,210.600886 371.493401,202.226931 373.64,193.62 C376.43,182.14 376.74,171.97 375.04,162.97 Z M294.83,146.97 C282.72,146.97 272.9,139.12 272.9,129.42 C272.9,119.72 282.72,111.87 294.83,111.87 C306.94,111.87 316.77,119.73 316.77,129.42 C316.77,139.11 306.95,146.99 294.83,146.99 L294.83,146.97 Z M332.22,222.97 C332.29,223.89 332.34,224.8 332.4,225.72 C332.33,224.79 332.29,223.88 332.22,222.95 L332.22,222.97 Z" id="Shape" fill="#FFAD78"></path>
                    <path d="M266.12,292.81 C267.31,284.63 268.22,276.21 268.95,267.63 L283.83,257.63 C285.135581,256.752688 285.606789,255.054645 284.94,253.63 C283.94,251.43 282.26,247.9 280.4,243.63 C286.77,231.38 297.94,216.69 308.31,206.5 C314.151975,212.283762 318.701926,219.239904 321.66,226.91 L321.66,226.91 C300.66,249.74 287.66,277.82 281.47,310.33 L264.78,307.61 L263.62,307.38 C264.566667,302.626667 265.4,297.77 266.12,292.81 Z" id="Shape" fill="#4DD2FF"></path>
                    <path d="M264.77,307.59 L281.46,310.31 C275.311007,315.074642 268.237704,318.507424 260.69,320.39 L260.6,320.05 C261.73,315.93 262.73,311.69 263.6,307.36 L264.77,307.59 Z" id="Shape" fill="#4DD2FF"></path>
                    <path d="M281.46,310.31 C278.5745,325.811787 277.091837,341.542068 277.03,357.31 C276.949569,368.322316 271.575749,378.623378 262.59,384.99 C256.480079,389.33454 249.075593,391.474789 241.59,391.06 C237.59,390.853333 233.67,390.496667 229.83,389.99 C224.171714,389.268486 218.573548,388.135484 213.08,386.6 C202.280662,383.578229 193.004714,376.621269 187.08,367.1 C185.236999,364.149233 183.749975,360.990565 182.65,357.69 C182.4,356.94 182.16,356.19 181.92,355.44 C175.655098,335.391418 174.242991,314.141264 177.8,293.44 L177.8,293.44 C184.6,303.44 195.56,311.25 208.18,316.28 C214.171895,318.659052 220.400461,320.392189 226.76,321.45 C227.59,321.59 228.42,321.72 229.26,321.83 C239.695704,323.364534 250.330397,322.851651 260.57,320.32 C268.154283,318.474064 275.269491,315.064622 281.46,310.31 Z M238.12,361.55 C242.27,353.16 238.54,342.86 229.8,338.55 C221.06,334.24 210.62,337.55 206.47,345.91 C202.32,354.27 206.05,364.6 214.79,368.91 C223.53,373.22 233.98,369.93 238.12,361.55 L238.12,361.55 Z" id="Shape" fill="#4DD2FF"></path>
                    <path d="M211.39,186.19 C213.336043,186.657019 215.350634,185.742419 216.28,183.97 L216.28,183.88 C216.579557,186.402165 217.118658,188.890066 217.89,191.31 C219.081441,194.974907 222.125871,197.733921 225.89,198.56 L225.89,198.56 C216.15,216.02 209.95,236.39 206.23,255.98 L203.23,251.03 L187.23,245.94 L186.89,245.83 C192.96,221.99 201.2,200.37 211.37,186.19 L211.39,186.19 Z" id="Shape" fill="#4DD2FF"></path>
                    <path d="M86.85,190.34 C96.8377827,186.282973 106.026779,180.486525 113.99,173.22 C143.99,183.74 175.11,187.75 207.87,182.64 C208.19976,184.435594 209.597269,185.845014 211.39,186.19 L211.39,186.19 C194.152173,198.346505 174.89844,207.355506 154.52,212.8 C121.497253,221.427996 86.5712167,219.162258 54.94,206.34 C43.6626872,201.85343 32.9550995,196.04985 23.04,189.05 C41.2,199.35 65.24,199.14 86.85,190.34 Z" id="Shape" fill="#1FA5FF"></path>
                    <path d="M206.26,255.99 L203.26,251.04 L191.04,258.39 L178.04,266.22 L165.85,273.57 L177.85,293.47 L177.85,293.47 C184.65,303.47 195.61,311.28 208.23,316.31 C214.221919,318.688979 220.450478,320.422114 226.81,321.48 C226.89,320.38 226.98,319.28 227.09,318.17 C227.813886,310.826364 228.962476,303.530816 230.53,296.32 L206.26,255.99 Z" id="Shape" fill="#00E6E6"></path>
                    <path d="M139.74,266.82 L139.74,282.14 C139.740049,288.021918 135.31619,292.962683 129.47,293.61 L128.25,293.74 L104.04,296.43 L102.8,296.57 C99.5444398,296.933673 96.2878663,295.895382 93.8436055,293.714437 C91.3993446,291.533492 89.9981615,288.4158 89.99,285.14 L89.99,269.77 C89.9899511,263.888082 94.4138097,258.947317 100.26,258.3 L102.68,258.03 C102.224022,262.067346 101.993664,266.126988 101.99,270.19 L101.99,281.27 C101.985436,282.122392 102.343693,282.936482 102.975283,283.508921 C103.606874,284.081359 104.45216,284.358094 105.3,284.27 L123.93,282.14 C126.098692,281.895816 127.738442,280.062395 127.74,277.88 L127.74,267.34 C127.741271,263.311398 127.995102,259.286838 128.5,255.29 C134.75431,255.447356 139.741979,260.563711 139.74,266.82 Z" id="Shape" fill="#FFE680"></path>
                    <path d="M162.99,342.3 C154.974626,344.062073 146.610763,343.307754 139.04,340.14 C130.607047,336.726112 123.629404,330.477002 119.31,322.47 L119.31,322.47 C124.69,315.03 127.87,305.3 128.31,293.79 C128.25,316.55 144.35,336.14 162.99,342.3 Z" id="Shape" fill="#D9845F"></path>
                    <path d="M154.52,212.81 C138.98,218.09 130.87,236.43 128.52,255.29 C128.015102,259.286838 127.761271,263.311398 127.76,267.34 L127.76,277.91 C127.758442,280.092395 126.118692,281.925816 123.95,282.17 L105.32,284.22 C104.47216,284.308094 103.626874,284.031359 102.995283,283.458921 C102.363693,282.886482 102.005436,282.072392 102.01,281.22 L102.01,270.19 C102.013664,266.126988 102.244022,262.067346 102.7,258.03 C104.7,240.03 111.18,222.38 122.18,217.95 L122.18,217.77 C133.102288,217.237195 143.940065,215.575001 154.52,212.81 Z" id="Shape" fill="#D9845F"></path>
                    <path d="M104.04,296.43 L128.25,293.76 C127.82,305.27 124.64,315 119.25,322.44 C116.252047,326.6264 112.43908,330.163853 108.04,332.84 C106.907046,333.529345 105.464203,333.437925 104.427315,332.611096 C103.390428,331.784268 102.980136,330.397972 103.4,329.14 C106.99,318.14 106.13,308.46 104.01,296.44 L104.04,296.43 Z" id="Shape" fill="#D9845F"></path>
                    <path d="M107.04,87.46 C115.371572,95.2202607 119.337844,106.59149 117.64,117.85 C116.04,128.27 110.77,138.76 103.38,147.73 C92.610921,140.148087 82.6873411,131.431429 73.78,121.73 C56.83,119.27 38.34,134.83 34.46,149.86 C32.4651651,157.885024 36.4986083,166.187686 44.04,169.58 L45.35,170.16 C60.74,176.89 74.7,183.62 86.86,190.34 C65.25,199.15 41.21,199.34 23.09,189.05 L23.09,189.05 C1.86,173.95 -4.8,145.36 8.24,122.8 C18.88,104.38 38.06,88.4 58.13,81.29 C66.86,91.29 76.13,100.06 86.88,105.55 C81.8772569,96.8241205 78.3688766,87.3231024 76.5,77.44 C81.6641034,77.107386 86.8479807,77.6139538 91.85,78.94 C97.2913551,80.4179283 102.307237,83.1588475 106.49,86.94 L107.04,87.46 Z" id="Shape" fill="#0093FF"></path>
                    <path d="M73.82,121.72 C82.7273411,131.421429 92.650921,140.138087 103.42,147.72 C88.34,166.04 64.49,178.01 45.34,170.14 L44.03,169.56 C36.5036568,166.149635 32.4925354,157.845393 34.5,149.83 C38.38,134.82 56.87,119.26 73.82,121.72 Z" id="Shape" fill="#0093FF"></path>
                    <path d="M362.26,439.42 C357.8,442.753333 352.24,444.753333 345.58,445.42 L345.58,445.42 C322.48,431.02 304.18,411.75 289.33,389 C297.68,384.73 303.54,375.3 300.5,361.43 C308.88,362.26 315.19,360.09 319.39,356 C323.8,382.8 337.77,416.35 362.26,439.42 Z" id="Shape" fill="#FFDDBA"></path>
                    <path d="M266.78,388.38 C269.78,407.55 275.08,425.28 283.99,440.7 C278.26,442.55 271.57,443.31 264.49,443.65 C249.749723,428.041609 238.016564,409.846906 229.88,389.98 C233.713333,390.486667 237.633333,390.843333 241.64,391.05 C249.125593,391.464789 256.530079,389.32454 262.64,384.98 C263.865178,386.289715 265.257083,387.432826 266.78,388.38 Z" id="Shape" fill="#FFDDBA"></path>
                    <path d="M144.72,367.14 C147.603564,372.819574 152.69456,377.064482 158.8,378.88 C156.820905,379.905534 154.948406,381.124836 153.21,382.52 C142.04,391.28 134.04,409.59 129.55,438.88 C123.732792,440.440163 117.607208,440.440163 111.79,438.88 C109.79,420.5 108.32,401.04 107.35,380.8 L107.35,380.8 C108.788647,379.128752 109.858603,377.172845 110.49,375.06 C123.37,384.76 138.3,377.94 144.72,367.14 Z" id="Shape" fill="#FFDDBA"></path>
                    <path d="M79.39,382.47 C68.24,391.29 60.19,409.6 55.74,438.88 C49.9227918,440.440163 43.7972082,440.440163 37.98,438.88 C35.91,420.35 34.49,400.72 33.52,380.3 C32.8512905,366.673588 43.3354535,355.075706 56.96,354.37 L57.22,354.37 C62.66,367.9 69.99,377.66 79.39,382.47 Z" id="Shape" fill="#FFDDBA"></path>
                    <path d="M379.49,452.65 L358.49,452.65 C354.03,450.39 349.726667,447.963333 345.58,445.37 C352.246667,444.756667 357.806667,442.756667 362.26,439.37 C367.533575,444.37483 373.307196,448.824841 379.49,452.65 L379.49,452.65 Z" id="Shape" fill="#B3876B"></path>
                    <path d="M291.99,452.65 L273.74,452.65 C270.52,449.75 267.436667,446.75 264.49,443.65 C271.57,443.31 278.26,442.55 283.99,440.7 C286.376899,444.863674 289.049992,448.856608 291.99,452.65 L291.99,452.65 Z" id="Shape" fill="#B3876B"></path>
                    <path d="M129.55,438.88 C128.883333,443.22 128.3,447.81 127.8,452.65 L113.47,452.65 C112.87,448.13 112.31,443.54 111.79,438.88 C117.607208,440.440163 123.732792,440.440163 129.55,438.88 L129.55,438.88 Z" id="Shape" fill="#B3876B"></path>
                    <path d="M55.74,438.88 C55.0733333,443.22 54.49,447.81 53.99,452.65 L39.66,452.65 C39.06,448.13 38.5,443.54 37.98,438.88 C43.7972082,440.440163 49.9227918,440.440163 55.74,438.88 L55.74,438.88 Z" id="Shape" fill="#B3876B"></path>
                    <path d="M47.81,218.05 C48.54,218.37 49.27,218.71 49.99,219.05 C49.2432439,218.762327 48.515163,218.428345 47.81,218.05 L47.81,218.05 Z" id="Shape" fill="#C7F7FF"></path>
                    <path d="M47.46,313.47 C47.4703236,313.62316 47.4703236,313.77684 47.46,313.93 C47.34,313.03 47.23,312.13 47.12,311.22 L47.46,313.47 Z" id="Shape" fill="#C7F7FF"></path>
                    <path d="M44.04,169.58 L45.35,170.16 L44.04,169.58 Z" id="Shape" fill="#C7F7FF"></path>
                    <path d="M259.65,238.52 C264.252798,239.438171 267.240279,243.913184 266.323408,248.516241 C265.406536,253.119297 260.932367,256.108042 256.329052,255.192471 C251.725736,254.276899 248.735728,249.803574 249.65,245.2 C250.08938,242.987621 251.390091,241.040597 253.265698,239.787692 C255.141305,238.534786 257.437994,238.078747 259.65,238.52 Z" id="Shape" fill="#FFAD78"></path>
                    <path d="M319.38,355.95 C315.18,360.04 308.87,362.21 300.49,361.38 C303.49,375.25 297.67,384.68 289.32,388.95 C282.204894,392.632836 273.699865,392.417757 266.78,388.38 C265.239491,387.436424 263.830599,386.293171 262.59,384.98 C271.579536,378.615552 276.957264,368.314132 277.04,357.3 C277.101837,341.532068 278.5845,325.801787 281.47,310.3 C287.7,277.79 300.7,249.71 321.66,226.88 L321.66,226.88 C322,227.79 322.3,228.71 322.58,229.65 C323.015666,231.134639 324.10419,232.339797 325.536978,232.923814 C326.969766,233.507831 328.590609,233.407034 329.94,232.65 C320.67,260.33 320.43,287.03 331.28,312.54 C332.327887,314.976415 331.627452,317.812461 329.565769,319.480888 C327.504087,321.149315 324.584327,321.24293 322.42,319.71 L318.99,317.3 C327.78,331.92 327.81,347.77 319.38,355.95 Z" id="Shape" fill="#FFAD78"></path>
                    <path d="M266.24,205.28 C265.369759,205.088982 264.473321,205.465166 264,206.22 C254.93,220.22 236.63,237.29 230.5,242.86 C229.329558,243.924969 229.116752,245.687001 230,247 L240,261.88 L240,261.88 C237.4,270.08 235,278.22 233,286.23 C232.14,289.63 231.353333,293.003333 230.64,296.35 L206.3,255.98 C210.02,236.39 216.22,215.98 225.96,198.56 C229.571562,199.414447 233.364166,198.269798 235.9,195.56 C242.03,189.04 242.9,178.71 242.03,167.06 C242.15,167.26 242.28,167.46 242.41,167.65 C245.02,171.26 250.34,171.29 253.41,168.11 C255.892012,170.665239 258.584866,173.006852 261.46,175.11 C264.349821,177.239971 267.417841,179.116917 270.63,180.72 C284.31,187.58 298.1,195.96 308.3,206.45 C297.93,216.64 286.76,231.33 280.39,243.58 C275.91,233.27 270.1,218.51 267.93,206.97 C267.768153,206.112548 267.097452,205.441847 266.24,205.28 Z" id="Shape" fill="#FFAD78"></path>
                    <path d="M182.04,355.43 C182.28,356.18 182.52,356.93 182.77,357.68 C183.869975,360.980565 185.356999,364.139233 187.2,367.09 C180.78,378.35 168.85,381.85 158.84,378.83 L158.84,378.83 C152.728738,377.035771 147.623334,372.808989 144.72,367.14 C149.72,358.62 149.55,347.62 139,340.14 L139,340.14 C146.58361,343.324889 154.966653,344.086349 163,342.32 C156.99,355.88 171.85,365.72 182.04,355.43 Z" id="Shape" fill="#FFAD78"></path>
                    <path d="M139.04,340.14 C149.59,347.58 149.8,358.58 144.76,367.14 C138.34,377.99 123.41,384.81 110.53,375.14 C109.898603,377.252845 108.828647,379.208752 107.39,380.88 L107.39,380.88 C105.031528,383.459008 101.850021,385.138136 98.39,385.63 C91.9134498,386.569395 85.3046846,385.494117 79.46,382.55 L79.46,382.55 C70.06,377.74 62.73,367.98 57.29,354.44 L57.29,354.44 C52.81,343.3 49.61,329.6 47.58,314.01 C47.5903236,313.85684 47.5903236,313.70316 47.58,313.55 L47.28,311.3 C47.39,312.21 47.5,313.11 47.62,314.01 C47.62,314.12 47.62,314.23 47.62,314.34 C47.6566059,317.235169 45.6204329,319.743494 42.7795735,320.302834 C39.9387141,320.862174 37.1036463,319.312954 36.04,316.62 C25.94,293.06 40.55,261.79 54.94,250.55 C42.78,257.72 32.89,256.4 29.81,251.55 C27.95,248.63 28.39,243.03 32.69,240.03 C20.64,243.67 12.08,243.28 6.58,239.36 C-2.33,233.01 -1.42,219.09 8.28,213.94 C17.98,208.79 33.62,211.71 47.76,218.03 C48.465163,218.408345 49.1932439,218.742327 49.94,219.03 C49.22,218.69 48.49,218.35 47.76,218.03 C37.29,212.4 42.42,201.47 54.89,206.34 L54.89,206.34 C76.2106487,214.93832 99.1359326,218.833674 122.1,217.76 L122.1,217.94 C111.1,222.37 104.63,240.01 102.62,258.02 L100.2,258.29 C94.3538097,258.937317 89.9299511,263.878082 89.93,269.76 L89.93,285.14 C89.9296387,288.42103 91.3271343,291.546822 93.7724435,293.734428 C96.2177526,295.922035 99.4792505,296.964243 102.74,296.6 L103.98,296.46 L103.98,296.46 C106.1,308.46 106.98,318.19 103.37,329.16 C102.950136,330.417972 103.360428,331.804268 104.397315,332.631096 C105.434203,333.457925 106.877046,333.549345 108.01,332.86 C112.401871,330.1817 116.207886,326.644385 119.2,322.46 L119.2,322.46 C123.545023,330.489978 130.564445,336.745189 139.04,340.14 Z" id="Shape" fill="#FFAD78"></path>
                    <path d="M186.91,245.84 L174.96,242.05 C174.154873,241.814996 173.288133,241.927763 172.569943,242.360957 C171.851752,242.794152 171.347697,243.508213 171.18,244.33 L168.89,257.01 L165.89,273.57 L177.89,293.47 C174.332991,314.171264 175.745098,335.421418 182.01,355.47 C171.85,365.76 157.01,355.92 163.01,342.34 C144.37,336.15 128.27,316.59 128.27,293.8 L129.49,293.67 C135.351111,293.01077 139.771846,288.037982 139.74,282.14 L139.74,266.82 C139.741979,260.563711 134.75431,255.447356 128.5,255.29 C130.87,236.43 138.98,218.09 154.5,212.81 C174.87844,207.365506 194.132173,198.356505 211.37,186.2 C201.22,200.38 192.98,222 186.91,245.84 Z" id="Shape" fill="#FFAD78"></path>
                    <path d="M187.25,245.95 L186.91,245.84 L174.91,242.05 C174.104873,241.814996 173.238133,241.927763 172.519943,242.360957 C171.801752,242.794152 171.297697,243.508213 171.13,244.33 L168.84,257.01 L165.84,273.57 L178.04,266.22 L191.04,258.39 L203.23,251.04 L187.25,245.95 Z" id="Shape" fill="#FFDDBA"></path>
                </g>
                <g id="shadows-2" transform="translate(172.000000, 0.000000)" fill-rule="nonzero">
                    <path d="M116.88,116.22 C140.98,129.52 166.51,136.14 194.21,132.54 C197.173315,132.16645 199.860683,130.613409 201.663866,128.232379 C203.46705,125.851348 204.233592,122.843642 203.79,119.89 L203.79,119.89 C168.03,124.78 138.79,112.4 113.16,94.21 L116.88,116.22 Z" id="Shape" fill="#FFFFFF" opacity="0.25"></path>
                    <path d="M117.34,184.69 C145.84,195.04 180.18,196.61 205.26,190.83 C136.6,228.08 82.51,224.26 36.78,196.83 C75,208.54 99.54,193.45 110.13,185.68 C112.216583,184.165118 114.922325,183.793594 117.34,184.69 L117.34,184.69 Z" id="Shape" fill="#006AB0" opacity="0.25"></path>
                    <circle id="Oval" fill="#FFFFFF" opacity="0.75" cx="205.34" cy="149.86" r="5.06"></circle>
                    <path d="M262.72,217.95 L265.04,206.48 L228.74,244.02 L239,261.88 L245.68,261.88 L236.68,246.94 C236.25795,246.241128 236.378559,245.342801 236.97,244.78 C246.063333,236.12 254.646667,227.176667 262.72,217.95 Z" id="Shape" fill="#FFFFFF" opacity="0.75"></path>
                    <path d="M254.76,258.14 C272.61,261.67 277.09,239.07 259.24,235.53 C269.04,240.55 265.97,256.93 254.76,258.14 Z" id="Shape" fill="#FFFFFF" opacity="0.75"></path>
                    <path d="M100.99,279.22 L100.99,296.36 C91.99,295.56 88.49,290.62 88.99,282.76 L88.99,265.94 C91.23,261.233333 95.23,258.716667 100.99,258.39 L100.99,279.22 Z" id="Shape" fill="#FFFFFF" opacity="0.75"></path>
                    <path d="M177.61,27.43 C217.97,29.04 248.66,43.09 265.77,73.06 C252.98,43.26 220.58,25.62 182.2,11.69 C169.26,9.23 165.71,13.14 177.61,27.43 Z" id="Shape" fill="#FFFFFF" opacity="0.75"></path>
                    <path d="M273.1,1.79 C282.361266,20.7906027 289.320532,40.8291247 293.83,61.48 L287.13,61.48 L262.13,7.55 C261.79,1.88 263.63,-1.76 273.1,1.79 Z" id="Shape" fill="#FFFFFF" opacity="0.75"></path>
                    <path d="M118.27,322.45 C122.27,317.1 124.94,310.23 126.42,302.05 C133.27,320.73 143.63,334.21 158.53,340.98 C144.26,346.01 130.86,339.58 118.27,322.45 Z" id="Shape" fill="#8A5B38" opacity="0.45"></path>
                    <path d="M153.4,208.73 C144.92,213.14 139.25,220.94 135.57,231.14 C127.208166,231.007832 118.874933,230.127655 110.67,228.51 C113.34,222.51 114.83,221.63 119.77,217.66 C130.1,217.19 142.66,214.75 153.37,208.73 L153.4,208.73 Z" id="Shape" fill="#8A5B38" opacity="0.3"></path>
                    <path d="M102.26,277.38 C115.89,277.48 124.13,269.54 128.17,255.38 L126.1,280.14 L103.52,282.75 L102.25,282.75 L102.26,277.38 Z" id="Shape" fill="#8A5B38" opacity="0.2"></path>
                    <path d="M307.31,206.48 L297.92,217.42 C297.62,233.54 294.24,247.33 284.08,255.99 L268.88,266.99 L262.88,307.41 L260.66,320.14 L259.04,357.57 C258.415184,372.988125 246.415271,385.532321 231.04,386.84 C225.697099,387.190953 220.331837,386.956222 215.04,386.14 L236.48,390.78 C253.96,391.41 268.95,386.51 275.48,362.83 L280.59,309.38 C286.075178,278.725304 299.916999,250.18001 320.59,226.89 L307.31,206.48 Z" id="Shape" fill="#3DB2FF" opacity="0.6"></path>
                    <path d="M101.04,333.31 C113.04,337.4 107.04,355.08 95.04,350.99 C91.27,369.71 66.77,367.09 55.52,353.08 C62.1,378.08 95.04,400.21 109.52,375.08 C130.33,393.48 160.25,359.63 139.44,341.23 C129.79,337.28 123.24,330.59 118.3,322.48 C120.29,324.34 102.32,334.95 101.04,333.31 Z" id="Shape" fill="#F2976D"></path>
                    <path d="M119.78,217.66 C114.827888,221.635882 110.907148,226.746907 108.35,232.56 C85.9387934,228.213105 65.0803989,218.003016 47.9,202.97 C74.04,214.03 96.95,218.72 119.78,217.66 Z" id="Shape" fill="#F2976D"></path>
                    <path d="M207.31,190.34 L192.2,224.41 C173.448218,231.838412 153.417142,235.501432 133.25,235.19 C136.93,224.99 142.6,217.19 151.08,212.78 L151.08,212.78 C168.54,208.24 186.83,200.67 207.31,190.34 Z" id="Shape" fill="#F2976D"></path>
                    <path d="M270.94,388.91 C285.94,386.45 291.99,372.64 288.85,359.32 C288.478554,357.604617 288.97047,355.816055 290.166896,354.531891 C291.363322,353.247727 293.11266,352.630676 294.85,352.88 C312.21,354.98 320.85,337.94 310.33,321.77 C307.557106,317.643502 305.742775,312.948792 305.02,308.03 C302.34,287.49 313.02,277.35 320.93,259.47 L326.04,232.03 L318.87,225.82 C293.67,252.23 277.24,290.73 274.43,348.06 C274.26,364.77 270,376.86 260.69,383.25 L270.94,388.91 Z" id="Shape" fill="#F2976D"></path>
                    <path d="M238.12,190.83 C246.55,204.44 250.82,217.93 242.27,231.05 L265.27,205.28 L278.04,240.55 L307.26,206.48 L252.39,168.08 L241.04,168.14 L238.12,190.83 Z" id="Shape" fill="#F2976D"></path>
                    <path d="M340.23,119.45 C334.92,105.45 336.54,93.93 349.78,86.61 L359.39,111.92 L340.23,119.45 Z" id="Shape" fill="#4A4E56" opacity="0.2"></path>
                    <path d="M300.04,61.88 C318.2,57.28 323.6,46.88 320.66,32.62 C335.66,49.29 346.02,67.87 350.66,88.77 C338.12,71.03 321.13,62.33 300.04,61.88 Z" id="Shape" fill="#F2DAB3"></path>
                    <path d="M224.04,99.14 C248.48,105.44 256.86,89.54 254.58,58.87 L265.32,71.56 C268.89,103.89 260.6,121.46 235.49,118.12 L224.04,99.14 Z" id="Shape" fill="#F2DAB3"></path>
                    <ellipse id="Oval" fill="#FFFFFF" opacity="0.4" transform="translate(45.056544, 369.287395) rotate(-57.840000) translate(-45.056544, -369.287395) " cx="45.0565441" cy="369.287395" rx="15.62" ry="9.87"></ellipse>
                    <path d="M105.84,316.35 C109.78,323.73 122.07,311.92 124.78,298.66 C122.09,316.42 118.1,328.66 103.78,332.87 L105.84,316.35 Z" id="Shape" fill="#E8976B"></path>
                    <polygon id="Shape" fill="#FFFFFF" opacity="0.6" points="171.2 248.53 173.2 268.55 189.03 259.72 177.07 245.84"></polygon>
                    <path d="M81.04,130.03 C59.9,138.21 53.74,161.88 76.4,168.21 C49.73,178.04 34.23,169.35 33.22,151.35 C40.07,130.99 53.95,122.22 72.86,121.72 L81.04,130.03 Z" id="Shape" fill="#006AB0" opacity="0.25"></path>
                    <path d="M45.1,131.85 C40.36,114.73 51.9,101.18 68.36,92.99 L57.11,81.29 C19.62,98 -0.7,122.19 1.27,156.09 C11.43,192.68 38.66,205.44 85.84,190.34 L47.19,171.55 C25.14,161.83 29.55,147.76 45.1,131.85 Z" id="Shape" fill="#006AB0" opacity="0.35"></path>
                    <path d="M78.97,90.48 C95.06,86.48 105.03,89.91 112.73,96 C104.73,83.75 93.5,76.09 75.59,78 L78.97,90.48 Z" id="Shape" fill="#006AB0" opacity="0.35"></path>
                    <path d="M260.66,320.14 C231.05,326.92 208.29,319.25 188.37,305.6 L176.45,296.37 C175.453307,310.533504 175.627231,324.755107 176.97,338.89 C180.97,361.57 188.2,374.5 198.16,378.84 C189.52,364.22 186.68,347.33 186.81,329.28 C186.839281,326.851796 188.097326,324.603936 190.151693,323.309099 C192.206061,322.014261 194.776708,321.848954 196.98,322.87 C216.77,331.84 243.75,334.03 260.66,320.14 Z" id="Shape" fill="#FFFFFF" opacity="0.5"></path>
                    <path d="M247.83,263.65 C244.564512,272.060002 242.028497,280.735313 240.25,289.58 L250.86,291.7 C253.124776,282.971236 254.432481,274.02184 254.76,265.01 L247.83,263.65 Z" id="Shape" fill="#FFFFFF" opacity="0.6"></path>
                    <g id="Group" opacity="0.35" transform="translate(0.000000, 61.000000)" fill="#FFFFFF">
                        <path d="M344.04,106.05 C340.18,81.29 328.86,64.95 310.26,56.84 C316.51,49.05 325.33,48.35 337.46,56.84 C355.71,67.24 369.75,80.84 374.01,101.97 L360.63,113.05 L344.04,106.05 Z" id="Shape"></path>
                        <path d="M340.04,16.84 C315.986667,5.14666667 291.89,6.81333333 267.75,21.84 L265.75,9.2 C289.39,-3.86 314.04,-3.24 340.04,16.84 Z" id="Shape"></path>
                        <path d="M239.87,58.87 C229.54,67.07 222.96,77.46 220.69,90.39 L211.44,80.22 C215.460819,69.8682665 221.875847,60.6158219 230.16,53.22 L239.87,58.87 Z" id="Shape"></path>
                        <path d="M215.86,96.14 C215.074944,105.054059 214.881187,114.01033 215.28,122.95 L208.04,126.79 C206.049319,117.178363 205.269924,107.355295 205.72,97.55 C208.6,93.75 211.98,93.32 215.86,96.14 Z" id="Shape"></path>
                        <ellipse id="Oval" transform="translate(59.517118, 216.473155) rotate(-57.840000) translate(-59.517118, -216.473155) " cx="59.5171177" cy="216.473155" rx="24.31" ry="15.35"></ellipse>
                        <circle id="Oval" cx="61.57" cy="251.58" r="8.73"></circle>
                        <path d="M10.79,180.77 C-0.52,154.88 27.53,153.55 48.99,158.05 C24.05,148.79 3.15,144.92 0.55,165.38 C1.04,174.77 4.29,180.19 10.79,180.77 Z" id="Shape"></path>
                        <ellipse id="Oval" cx="293.83" cy="103.3" rx="16.25" ry="11.52"></ellipse>
                    </g>
                    <path d="M198.15,248.53 C197.99,225.05 205.62,201.3 211.43,186.01 C201.31,201.45 192.84,220.78 186.24,244.55 L198.15,248.53 Z" id="Shape" fill="#FFFFFF" opacity="0.4"></path>
                    <circle id="Oval" fill="#4A4E56" opacity="0.2" cx="257" cy="246.86" r="8.88"></circle>
                    <path d="M240.25,289.58 C239.586649,292.071348 239.0493,294.594549 238.64,297.14 C238.156405,300.020509 240.017036,302.774066 242.87,303.4 L243.01,303.4 C245.855046,303.893776 248.597511,302.103313 249.29,299.3 C249.89,296.92 250.4,294.37 250.86,291.71 L240.25,289.58 Z" id="Shape" fill="#FFFFFF" opacity="0.35"></path>
                    <path d="M65.28,371.05 C50.9,385.33 50.04,418.24 53.04,452.65 C55.0733333,421.916667 63.4066667,398.393333 78.04,382.08 L65.28,371.05 Z" id="Shape" fill="#F2C7AA"></path>
                    <path d="M156.18,378.27 C139.78,392.44 131.08,413.27 127.95,438.88 L120.18,438.88 C120.48,416.8 123.55,383.81 136.53,374.3 L144.04,367.64 L156.18,378.27 Z" id="Shape" fill="#F2C7AA"></path>
                    <path d="M283.04,440.69 L264.2,444.97 L256.36,435.68 C265.86,419.88 266.6,403.22 260.21,385.87 L266.84,389.98 C268.468057,407.864346 273.997914,425.174166 283.04,440.69 Z" id="Shape" fill="#F2C7AA"></path>
                    <path d="M363.31,439.97 L345.68,445.2 L322.91,429.3 C329.73,415.98 329.02,401.01 325.33,385.3 C333.741565,406.134688 346.720278,424.81679 363.31,439.97 Z" id="Shape" fill="#F2C7AA"></path>
                    <path d="M143.04,341.55 C147.45,349.94 148.53,358.55 144.04,367.64 C160.29,383.58 174.48,384.27 186.19,366.72 L181.59,357.05 C166.77,363.05 160.36,358.12 161.73,343.05 L143.04,341.55 Z" id="Shape" fill="#E8865F"></path>
                    <path d="M233.09,344.59 C232.346373,344.045674 231.556718,343.567196 230.73,343.16 C223.03,339.35 213.83,342.26 210.18,349.64 C207.779681,354.61818 208.334073,360.516297 211.62,364.96 C205.591161,360.73319 203.480451,352.780034 206.62,346.12 C210.28,338.74 219.47,335.83 227.17,339.64 C229.519644,340.779187 231.552778,342.479189 233.09,344.59 Z" id="Shape" fill="#FFFFFF" opacity="0.35"></path>
                    <path d="M205.26,312.96 C211.7,313.88 223.44,292.04 209.26,267.63 C223.54,286.26 228.72,295.5 228.72,295.5 L225.9,321.5 L205.26,312.96 Z" id="Shape" fill="#008A94" opacity="0.25"></path>
                    <path d="M205.77,258.21 L206.33,257.89 L202.87,252.14 L165.49,273.28 L168.49,279.64 L174.6,276.13 C177.745918,274.319983 181.748858,275.154108 183.91,278.07 L196.2,294.67 L194.77,279.45 C193.967586,270.828087 198.265241,262.529705 205.77,258.21 L205.77,258.21 Z" id="Shape" fill="#FFFFFF" opacity="0.4"></path>
                    <rect id="Rectangle-path" fill="#FFFFFF" opacity="0.75" x="106.33" y="284.24" width="9.91" height="11.25"></rect>
                    <g id="Group" opacity="0.65" transform="translate(252.000000, 130.000000)" fill="#F2976D">
                        <path d="M92.04,37.05 C92.27,62.4 74.04,79.55 60.14,78.58 L70.25,100.58 C72.57,103.7 75.47,104.58 79.63,100.58 L79.91,112.94 C84.02,118.61 88.81,120.2 94.91,113.65 L102.1,90.58 L110.1,90.5 C120.85,71.93 124.1,52.71 121.93,33.01 L108.55,44.09 L92.04,37.05 Z" id="Shape"></path>
                        <path d="M4.82,0.55 C17.31,12.45 20.03,27.31 9.82,46.1 L0.43,38.1 C7.04,26.61 8.79,14.14 4.82,0.55 Z" id="Shape"></path>
                    </g>
                </g>
                <g id="lines-2">
                    <path d="M304.38,181.34 C303.24,182.566667 302.076667,183.76 300.89,184.92" id="Shape" stroke="#FFFFFF" stroke-width="3" stroke-linecap="round" stroke-linejoin="round"></path>
                    <path d="M293.11,191.64 C278.91,202.48 261.53,208.5 240.17,208.41" id="Shape" stroke="#FFFFFF" stroke-width="3" stroke-linecap="round" stroke-linejoin="round" stroke-dasharray="10.29"></path>
                    <path d="M235.04,208.28 C233.4,208.2 231.733333,208.086667 230.04,207.94" id="Shape" stroke="#FFFFFF" stroke-width="3" stroke-linecap="round" stroke-linejoin="round"></path>
                    <path d="M302.37,105.55 C304.19,149.7 278.49,173.22 244.29,183.21" id="Shape" stroke="#FFFFFF" stroke-width="3" stroke-linecap="round" stroke-linejoin="round" stroke-dasharray="10"></path>
                    <path d="M314.67,111.89 C318.92,138.05 340.04,162.8 369.25,159.15" id="Shape" stroke="#FFFFFF" stroke-width="3" stroke-linecap="round" stroke-linejoin="round" stroke-dasharray="10"></path>
                    <path d="M347.04,120.53 C353.12,131.78 367.5,138.38 385.19,135.7" id="Shape" stroke="#FFFFFF" stroke-width="3" stroke-linecap="round" stroke-linejoin="round" stroke-dasharray="10"></path>
                    <path d="M99.78,452.65 L12,452.65" id="Shape" stroke="#273966" stroke-width="6" stroke-linecap="round" stroke-linejoin="round"></path>
                    <path d="M573.06,452.65 L358.67,452.65" id="Shape" stroke="#273966" stroke-width="6" stroke-linecap="round" stroke-linejoin="round"></path>
                    <path d="M344.92,452.65 L113.53,452.65" id="Shape" stroke="#273966" stroke-width="6" stroke-linecap="round" stroke-linejoin="round"></path>
                    <path d="M714.86,452.65 L586.81,452.65" id="Shape" stroke="#273966" stroke-width="6" stroke-linecap="round" stroke-linejoin="round"></path>
                    <path d="M725.86,452.65 L725.76,452.65" id="Shape" stroke="#273966" stroke-width="6" stroke-linecap="round" stroke-linejoin="round"></path>
                    <path d="M1.86,452.65 L1.76,452.65" id="Shape" stroke="#273966" stroke-width="6" stroke-linecap="round" stroke-linejoin="round"></path>
                    <ellipse id="Oval" stroke="#273966" stroke-width="6" stroke-linecap="round" stroke-linejoin="round" cx="465.83" cy="129.44" rx="21.94" ry="17.55"></ellipse>
                    <path d="M478.17,129.44 C478.17,133.53 472.41,137.12 465.83,137.12 C459.25,137.12 453.73,133.68 453.5,129.69 C454.334081,130.520753 455.462784,130.98805 456.64,130.99 C458.570304,131.020433 460.296015,129.7918 460.898937,127.957819 C461.501858,126.123838 460.841817,124.110889 459.27,122.99 C461.355197,122.151724 463.582621,121.723896 465.83,121.73 C472.41,121.77 478.17,125.35 478.17,129.44 Z" id="Shape" fill="#273966" fill-rule="nonzero"></path>
                    <path d="M539.84,146.03 C548.43,143.65 554.6,137.13 554.6,129.44 C554.6,119.75 544.78,111.89 532.66,111.89 C524.66,111.89 517.66,115.31 513.83,120.43" id="Shape" stroke="#273966" stroke-width="6" stroke-linecap="round" stroke-linejoin="round"></path>
                    <path d="M545.04,129.44 C545.04,133.34 539.81,136.78 533.63,137.09 L533.24,136.63 C530.074849,132.965371 526.561737,129.61636 522.75,126.63 L521.82,125.92 C522.322771,125.349028 522.893704,124.841905 523.52,124.41 C523.515011,124.493259 523.515011,124.576741 523.52,124.66 C523.514811,126.619219 524.800015,128.348057 526.677637,128.90761 C528.55526,129.467162 530.577182,128.723885 531.64533,127.08144 C532.713477,125.438995 532.572923,123.289373 531.3,121.8 C531.76,121.8 532.24,121.74 532.71,121.74 C539.23,121.77 545.04,125.35 545.04,129.44 Z" id="Shape" fill="#273966" fill-rule="nonzero"></path>
                    <path d="M431.9,62.26 C409,32.49 380.63,17.09 348.9,10.49 C346.467692,10.0057801 343.995727,11.1160945 342.742044,13.2559237 C341.488361,15.3957529 341.728397,18.0949737 343.34,19.98 C370.12,51.2 389.34,80.77 400.53,109.98 C402.055634,114.044129 405.187177,117.300894 409.188397,118.984623 C413.189618,120.668352 417.707543,120.630512 421.68,118.88 C431.68,114.29 438.49,101.43 439.68,88.04 C440.416812,78.7745015 437.639367,69.5710892 431.9,62.26 L431.9,62.26 Z" id="Shape" stroke="#273966" stroke-width="6" stroke-linecap="round" stroke-linejoin="round"></path>
                    <path d="M459.72,62.28 C452.302127,43.9337268 443.89307,26.0039752 434.53,8.57 C433.383714,6.41138334 433.708234,3.76655028 435.342382,1.94909144 C436.97653,0.131632594 439.572113,-0.471199312 441.84,0.44 C474.84,13.72 502.05,36.6 519.25,75.82 C523.713386,85.8445879 527.365107,96.2111946 530.17,106.82 L530.17,106.82 C530.33,107.42 530.5,108.03 530.67,108.64 C530.67,108.73 530.72,108.82 530.74,108.91" id="Shape" stroke="#273966" stroke-width="6" stroke-linecap="round" stroke-linejoin="round"></path>
                    <path d="M428.82,130.55 C431.04,146.98 431.18,161.2 424.44,168.08 C421.32,171.28 415.99,171.26 413.37,167.64 C413.24,167.45 413.11,167.25 412.99,167.05 C413.89,178.7 412.99,189.05 406.86,195.55 C401.31,201.46 391.47,199.01 388.93,191.31 C388.158658,188.890066 387.619557,186.402165 387.32,183.88 L387.32,183.97 C386.397366,185.636537 384.530723,186.547836 382.649218,186.250285 C380.767712,185.952734 379.273362,184.509911 378.91,182.64 C377.798212,176.593546 377.498899,170.425694 378.02,164.3 L378.02,164.3 C378.19,162.04 378.48,159.78 378.87,157.52" id="Shape" stroke="#273966" stroke-width="6" stroke-linecap="round" stroke-linejoin="round"></path>
                    <path d="M402.62,113.79 C393.74,121.33 386.97,131.66 382.75,142.97" id="Shape" stroke="#273966" stroke-width="6" stroke-linecap="round" stroke-linejoin="round"></path>
                    <path d="M499.49,186.74 C500.76,193.4 506.39,196.93 512.75,197.34 C523.62,198.03 532.66,189.01 532.66,178.12 L532.66,174.05 L516.08,167.05" id="Shape" stroke="#273966" stroke-width="6" stroke-linecap="round" stroke-linejoin="round"></path>
                    <path d="M544.69,193.59 C541.6,194.42 538.39,193.59 535.76,190.39 C533.713708,187.863821 532.616875,184.700697 532.66,181.45 L532.66,174.05 L546.04,162.97" id="Shape" stroke="#273966" stroke-width="6" stroke-linecap="round" stroke-linejoin="round"></path>
                    <path d="M436.96,70.67 C454.458767,60.0320786 476.036267,58.5631982 494.815262,66.7315243 C513.594258,74.8998503 527.231316,91.6860566 531.38,111.74" id="Shape" stroke="#273966" stroke-width="6" stroke-linecap="round" stroke-linejoin="round"></path>
                    <path d="M527.28,214.81 C525.523294,224.906254 522.652417,234.776572 518.72,244.24 C517.347961,247.726773 513.682918,249.737678 510.004949,249.0217 C506.32698,248.305722 503.683896,245.066835 503.72,241.32 L503.72,241.19 C503.858218,233.297111 503.524289,225.40302 502.72,217.55 C503.07,221.08 503.35,224.55 503.52,227.97 C503.733004,230.601772 501.898234,232.959468 499.294773,233.399453 C496.691311,233.839438 494.183663,232.215611 493.52,229.66 C486.94,207.45 464.1,192.05 441.58,180.75 C438.367841,179.146917 435.299821,177.269971 432.41,175.14 C429.534866,173.036852 426.842012,170.695239 424.36,168.14" id="Shape" stroke="#273966" stroke-width="6" stroke-linecap="round" stroke-linejoin="round"></path>
                    <path d="M512.04,77.84 C499.99,79.68 497.74,96.93 509.32,106.05 C501.72,102.41 497.32,111.7 504.88,115.34 C508,116.946667 510.983333,118.643333 513.83,120.43 C516.62,122.18 519.28,124.01 521.78,125.95 L522.71,126.66 C526.521737,129.64636 530.034849,132.995371 533.2,136.66 L533.59,137.12 C535.943527,139.901687 538.035707,142.894341 539.84,146.06 C549.91,163.8 550.33,187.12 535.76,218.65 C535.007464,220.276523 533.382152,221.321088 531.59,221.33 C529.077728,221.330054 527.036492,219.302218 527.02,216.79 C527.018453,216.528365 527.041893,216.267179 527.09,216.01" id="Shape" stroke="#273966" stroke-width="6" stroke-linecap="round" stroke-linejoin="round"></path>
                    <path d="M229.11,81.29 C209.04,88.4 189.86,104.38 179.22,122.8 C166.22,145.36 172.84,173.95 194.07,189.05 C236.32,219.14 310.04,236.38 382.39,186.2" id="Shape" stroke="#273966" stroke-width="6" stroke-linecap="round" stroke-linejoin="round"></path>
                    <path d="M247.48,77.44 C252.644103,77.107386 257.827981,77.6139538 262.83,78.94 C280.07,83.64 291.37,100.18 288.68,117.85 C287.08,128.27 281.81,138.76 274.42,147.73 C263.650921,140.148087 253.727341,131.431429 244.82,121.73 C227.87,119.27 209.38,134.83 205.5,149.86 C203.499395,157.874753 207.514264,166.173832 215.04,169.58 C234.4,178.58 259.04,166.46 274.43,147.73" id="Shape" stroke="#273966" stroke-width="6" stroke-linecap="round" stroke-linejoin="round"></path>
                    <path d="M194.04,189.06 C220.38,204.06 259.21,196.82 284.96,173.22 C314.96,183.74 346.08,187.75 378.84,182.65" id="Shape" stroke="#273966" stroke-width="6" stroke-linecap="round" stroke-linejoin="round"></path>
                    <path d="M215.04,169.58 C230.95,176.51 245.36,183.43 257.87,190.34" id="Shape" stroke="#273966" stroke-width="6" stroke-linecap="round" stroke-linejoin="round"></path>
                    <path d="M277.47,86.91 C315.66,121.72 355.2,128.54 402.62,113.79" id="Shape" stroke="#273966" stroke-width="6" stroke-linecap="round" stroke-linejoin="round"></path>
                    <path d="M247.48,77.44 C249.348877,87.3231024 252.857257,96.8241205 257.86,105.55 C247.12,100.06 237.86,91.29 229.11,81.29" id="Shape" stroke="#273966" stroke-width="6" stroke-linecap="round" stroke-linejoin="round"></path>
                    <path d="M299.5,255.29 C305.75431,255.447356 310.741979,260.563711 310.74,266.82 L310.74,282.14 C310.740049,288.021918 306.31619,292.962683 300.47,293.61 L273.8,296.55 C270.555994,296.898087 267.316381,295.85551 264.884288,293.680731 C262.452195,291.505952 261.055334,288.402592 261.04,285.14 L261.04,269.77 C261.039951,263.888082 265.46381,258.947317 271.31,258.3 L273.73,258.03" id="Shape" stroke="#273966" stroke-width="6" stroke-linecap="round" stroke-linejoin="round"></path>
                    <path d="M293.16,217.95 C279.66,223.38 273.04,248.7 273.04,270.14 L273.04,281.22 C273.035736,282.070463 273.392644,282.882771 274.021944,283.454862 C274.651244,284.026952 275.49379,284.305058 276.34,284.22 L294.93,282.14 C297.098692,281.895816 298.738442,280.062395 298.74,277.88 L298.74,267.34 C298.74,244.88 306.66,219.22 325.51,212.81" id="Shape" stroke="#273966" stroke-width="6" stroke-linecap="round" stroke-linejoin="round"></path>
                    <path d="M225.94,206.36 C212.67,201.18 207.72,213.87 220.94,219.05 C206.24,212.05 189.6,208.45 179.28,213.96 C169.62,219.11 168.67,233.04 177.59,239.39 C183.09,243.31 191.64,243.7 203.69,240.06 C199.4,243.06 198.96,248.66 200.82,251.58 C203.9,256.42 213.82,257.74 225.95,250.58 C211.56,261.82 196.95,293.09 207.05,316.65 C208.248047,319.37334 211.260874,320.807412 214.13,320.02 L214.13,320.02 C216.975287,319.20474 218.801009,316.436436 218.43,313.5 L218.13,311.24 C223.81,358.56 239.96,389.24 269.3,385.57 C276.09,384.32 279.73,380.57 281.47,375.07 C304.47,392.4 333.97,357.07 309.98,340.15" id="Shape" stroke="#273966" stroke-width="6" stroke-linecap="round" stroke-linejoin="round"></path>
                    <path d="M275.04,296.44 C277.17,308.44 278.04,318.18 274.44,329.15 C274.031596,330.396975 274.43896,331.766508 275.462491,332.587558 C276.486023,333.408608 277.911312,333.509182 279.04,332.84 C291.04,325.52 298.55,311.84 299.22,293.76" id="Shape" stroke="#273966" stroke-width="6" stroke-linecap="round" stroke-linejoin="round"></path>
                    <path d="M299.25,293.76 C299.25,316.55 315.35,336.11 333.99,342.3 C316.87,346.18 298.37,337.8 290.27,322.45" id="Shape" stroke="#273966" stroke-width="6" stroke-linecap="round" stroke-linejoin="round"></path>
                    <path d="M285.49,272.14 C285.232689,266.12443 285.540707,260.097988 286.41,254.14" id="Shape" stroke="#273966" stroke-width="6" stroke-linecap="round" stroke-linejoin="round"></path>
                    <path d="M492.65,226.89 C462.15,260.14 448.52,304.39 448.04,357.3 C447.86,376.56 431.87,392.05 412.64,391.05 C403.00111,390.627905 393.439033,389.135403 384.13,386.6 C369.841422,382.587561 358.465598,371.76218 353.75,357.69 C346.875113,337.01168 345.209201,314.956382 348.9,293.48 C368.65,322.48 423.5,333.32 452.46,310.32 L435.77,307.61" id="Shape" stroke="#273966" stroke-width="6" stroke-linecap="round" stroke-linejoin="round"></path>
                    <polyline id="Shape" stroke="#273966" stroke-width="6" stroke-linecap="round" stroke-linejoin="round" points="348.92 293.51 348.89 293.47 336.9 273.57 349.09 266.22 362.09 258.39 374.28 251.04 401.6 296.36"></polyline>
                    <path d="M336.9,273.57 L342.18,244.33 C342.330317,243.49854 342.831097,242.771945 343.554611,242.335539 C344.278125,241.899134 345.154424,241.79511 345.96,242.05 L374.28,251.05" id="Shape" stroke="#273966" stroke-width="6" stroke-linecap="round" stroke-linejoin="round"></path>
                    <path d="M339.89,257.01 L358.24,245.95 L345.96,242.05 C345.154424,241.79511 344.278125,241.899134 343.554611,242.335539 C342.831097,242.771945 342.330317,243.49854 342.18,244.33 L339.89,257.01 Z" id="Shape" fill="#273966" fill-rule="nonzero"></path>
                    <path d="M379.3,316.35 L349.09,266.22" id="Shape" stroke="#273966" stroke-width="3" stroke-linecap="round" stroke-linejoin="round"></path>
                    <path d="M400.38,321.9 L362.09,258.39" id="Shape" stroke="#273966" stroke-width="3" stroke-linecap="round" stroke-linejoin="round"></path>
                    <path d="M397.88,321.52 C399.24,302.63 404.44,282.52 410.96,261.89 L439.96,267.63 C438.38,286.14 436.02,303.98 431.61,320.05" id="Shape" stroke="#273966" stroke-width="6" stroke-linecap="round" stroke-linejoin="round"></path>
                    <path d="M439.94,267.63 L454.82,257.63 C456.121945,256.750068 456.592322,255.055015 455.93,253.63 C452.39,246.15 442,223.34 438.93,206.99 C438.769952,206.118657 438.094068,205.433388 437.225014,205.261342 C436.35596,205.089296 435.469963,205.465359 434.99,206.21 C425.92,220.16 407.62,237.28 401.49,242.84 C400.314807,243.905672 400.097802,245.671492 400.98,246.99 L410.98,261.87" id="Shape" stroke="#273966" stroke-width="6" stroke-linecap="round" stroke-linejoin="round"></path>
                    <circle id="Oval" stroke="#273966" stroke-width="6" stroke-linecap="round" stroke-linejoin="round" transform="translate(429.017814, 246.870469) rotate(-78.790000) translate(-429.017814, -246.870469) " cx="429.017814" cy="246.870469" r="8.5"></circle>
                    <path d="M430.65,238.52 L437.24,205.27" id="Shape" stroke="#273966" stroke-width="6" stroke-linecap="round" stroke-linejoin="round"></path>
                    <path d="M403.96,286.24 C414.274649,291.225298 425.693797,293.487094 437.13,292.81" id="Shape" stroke="#273966" stroke-width="6" stroke-linecap="round" stroke-linejoin="round"></path>
                    <path d="M451.4,243.61 C457.77,231.36 468.94,216.66 479.31,206.48" id="Shape" stroke="#273966" stroke-width="6" stroke-linecap="round" stroke-linejoin="round"></path>
                    <path d="M357.91,245.84 C363.98,222 372.22,200.38 382.39,186.2" id="Shape" stroke="#273966" stroke-width="6" stroke-linecap="round" stroke-linejoin="round"></path>
                    <path d="M396.92,198.57 C387.18,216.03 380.98,236.41 377.26,255.99" id="Shape" stroke="#273966" stroke-width="6" stroke-linecap="round" stroke-linejoin="round"></path>
                    <ellipse id="Oval" stroke="#273966" stroke-width="6" stroke-linecap="round" stroke-linejoin="round" transform="translate(393.308671, 353.731443) rotate(-63.700000) translate(-393.308671, -353.731443) " cx="393.308671" cy="353.731443" rx="16.94" ry="17.65"></ellipse>
                    <path d="M332.11,116.93 C336.05966,116.700174 339.939987,115.790141 343.58,114.24 C345.466443,113.393213 346.649616,111.485655 346.569998,109.419408 C346.490381,107.353162 345.163929,105.542306 343.21792,104.843192 C341.27191,104.144077 339.096327,104.696809 337.72,106.24 C335.027357,109.156675 332.813301,112.481134 331.16,116.09 C332.68922,109.330362 332.517422,102.296916 330.66,95.62 C330.060122,93.3536903 328.485852,91.470231 326.361929,90.4777793 C324.238005,89.4853276 321.783266,89.486141 319.66,90.48 L319.45,90.59 C317.58482,91.6450167 316.231252,93.4158279 315.702647,95.4924919 C315.174041,97.5691559 315.516231,99.7716145 316.65,101.59 C320.540221,107.78897 325.508558,113.241609 331.32,117.69 C358.32,151.04 347.06,208.57 308.99,216.2" id="Shape" stroke="#273966" stroke-width="6" stroke-linecap="round" stroke-linejoin="round"></path>
                    <path d="M378.82,157.59 C379.38,154.72 383.17,154.79 386.4,156.72 C387.216062,157.219959 388.221691,157.30056 389.106968,156.936965 C389.992244,156.573369 390.650919,155.809214 390.88,154.88 C392.97,144.88 382.47,140.7 374.88,143.56 C367.56,146.31 361.51,159.68 378,164.31" id="Shape" stroke="#273966" stroke-width="6" stroke-linecap="round" stroke-linejoin="round"></path>
                    <path d="M250.4,382.47 C237.59,392.6 228.87,415.23 225,452.65 L210.66,452.65 C207.66,430.17 205.73,405.86 204.53,380.3 C203.855583,366.675293 214.336875,355.075639 227.96,354.37 L228.22,354.37" id="Shape" stroke="#273966" stroke-width="6" stroke-linecap="round" stroke-linejoin="round"></path>
                    <path d="M334.04,342.3 C328.04,355.88 342.9,365.72 353.04,355.43" id="Shape" stroke="#273966" stroke-width="6" stroke-linecap="round" stroke-linejoin="round"></path>
                    <path d="M315.71,367.14 C323.99,383.35 347.99,384.97 358.16,367.14" id="Shape" stroke="#273966" stroke-width="6" stroke-linecap="round" stroke-linejoin="round"></path>
                    <path d="M208.98,438.89 C214.797949,440.444529 220.922051,440.444529 226.74,438.89" id="Shape" stroke="#273966" stroke-width="3" stroke-linecap="round" stroke-linejoin="round"></path>
                    <path d="M278.35,380.79 C279.56,406.17 281.49,430.31 284.47,452.65 L298.8,452.65 C302.68,415.23 311.4,392.59 324.21,382.47 C325.951838,381.074652 327.827671,379.855361 329.81,378.83" id="Shape" stroke="#273966" stroke-width="6" stroke-linecap="round" stroke-linejoin="round"></path>
                    <path d="M282.79,438.89 C288.607949,440.444529 294.732051,440.444529 300.55,438.89" id="Shape" stroke="#273966" stroke-width="3" stroke-linecap="round" stroke-linejoin="round"></path>
                    <path d="M500.94,232.66 C491.67,260.34 491.43,287.04 502.29,312.55 C503.279689,314.862697 502.702514,317.548164 500.85,319.25 L500.85,319.25 C498.79492,321.138616 495.701004,321.338492 493.42,319.73 L490.04,317.3 C503.21,339.22 496.71,363.88 471.54,361.38 C477.71,389.55 447.21,399.38 433.64,384.97" id="Shape" stroke="#273966" stroke-width="6" stroke-linecap="round" stroke-linejoin="round"></path>
                    <path d="M490.38,355.95 C495.74,388.56 515.19,431.07 550.49,452.65" id="Shape" stroke="#273966" stroke-width="6" stroke-linecap="round" stroke-linejoin="round"></path>
                    <path d="M460.32,388.95 C477.84,415.79 500.15,437.78 529.49,452.64" id="Shape" stroke="#273966" stroke-width="6" stroke-linecap="round" stroke-linejoin="round"></path>
                    <path d="M437.78,388.38 C441.6,412.72 449.1,434.72 462.99,452.65" id="Shape" stroke="#273966" stroke-width="6" stroke-linecap="round" stroke-linejoin="round"></path>
                    <path d="M400.88,389.98 C411.02,414.26 425.45,435.29 444.74,452.65" id="Shape" stroke="#273966" stroke-width="6" stroke-linecap="round" stroke-linejoin="round"></path>
                    <path d="M435.12,443.67 C442.46,443.33 449.41,442.55 455.3,440.59" id="Shape" stroke="#273966" stroke-width="3" stroke-linecap="round" stroke-linejoin="round"></path>
                    <path d="M516.57,445.37 C523.236667,444.763333 528.8,442.763333 533.26,439.37" id="Shape" stroke="#273966" stroke-width="3" stroke-linecap="round" stroke-linejoin="round"></path>
                    <path d="M415.04,98.65 C417.956794,96.9839302 420.37393,94.5667944 422.04,91.65 C429.25,79.02 429.58,65.47 424.36,51.88" id="Shape" stroke="#273966" stroke-width="3" stroke-linecap="round" stroke-linejoin="round"></path>
                    <path d="M395.1,97.14 C396.957748,98.6916307 399.126441,99.8271257 401.46,100.47 C403.982169,101.177473 406.631904,101.303977 409.21,100.84" id="Shape" stroke="#273966" stroke-width="3" stroke-linecap="round" stroke-linejoin="round"></path>
                    <path d="M411.46,53.34 C411.557215,48.0421869 411.02346,42.7516346 409.87,37.58" id="Shape" stroke="#273966" stroke-width="3" stroke-linecap="round" stroke-linejoin="round"></path>
                    <path d="M386.34,79.52 C397.94,80.27 406.29,74.71 409.73,64.06" id="Shape" stroke="#273966" stroke-width="3" stroke-linecap="round" stroke-linejoin="round"></path>
                    <path d="M373.47,59.14 C389.16,61.44 400.83,44.51 389.68,25.31" id="Shape" stroke="#273966" stroke-width="3" stroke-linecap="round" stroke-linejoin="round"></path>
                    <path d="M361.44,42.37 C372.34,39.05 378.16,27.88 369.72,16.37" id="Shape" stroke="#273966" stroke-width="3" stroke-linecap="round" stroke-linejoin="round"></path>
                    <path d="M459.13,60.8 C471.49,42.38 500.94,43.39 510.46,58.59" id="Shape" stroke="#273966" stroke-width="3" stroke-linecap="round" stroke-linejoin="round"></path>
                    <path d="M463.94,32.62 C470.62,27.45 479.31,25.62 487.78,29.62" id="Shape" stroke="#273966" stroke-width="3" stroke-linecap="round" stroke-linejoin="round"></path>
                    <path d="M453.57,47.59 C454.924565,43.353349 457.160187,39.4512339 460.13,36.14" id="Shape" stroke="#273966" stroke-width="3" stroke-linecap="round" stroke-linejoin="round"></path>
                    <path d="M445.1,29.35 C446.24,16.55 453.57,9.05 465.83,12.54" id="Shape" stroke="#273966" stroke-width="3" stroke-linecap="round" stroke-linejoin="round"></path>
                    <path d="M113.53,452.65 L113.53,450.77 C113.53,446.975804 110.454196,443.9 106.66,443.9 L106.66,443.9 C104.837963,443.9 103.090551,444.623801 101.802176,445.912176 C100.513801,447.200551 99.79,448.947963 99.79,450.77 L99.79,452.65" id="Shape" stroke="#273966" stroke-width="6" stroke-linecap="round" stroke-linejoin="round"></path>
                    <path d="M358.67,452.65 L358.67,450.77 C358.67,446.975804 355.594196,443.9 351.8,443.9 L351.8,443.9 C348.005804,443.9 344.93,446.975804 344.93,450.77 L344.93,452.65" id="Shape" stroke="#273966" stroke-width="6" stroke-linecap="round" stroke-linejoin="round"></path>
                    <path d="M586.81,452.65 L586.81,450.77 C586.81,446.975804 583.734196,443.9 579.94,443.9 L579.94,443.9 C576.145804,443.9 573.07,446.975804 573.07,450.77 L573.07,452.65" id="Shape" stroke="#273966" stroke-width="6" stroke-linecap="round" stroke-linejoin="round"></path>
                </g>
            </g>
        </g>
    </g>
</svg>