<?xml version="1.0" encoding="utf-8"?>
<!-- Generator: Adobe Illustrator 16.2.1, SVG Export Plug-In . SVG Version: 6.00 Build 0)  -->
<!DOCTYPE svg PUBLIC "-//W3C//DTD SVG 1.1//EN" "http://www.w3.org/Graphics/SVG/1.1/DTD/svg11.dtd">
<svg version="1.1" id="Слой_1" xmlns="http://www.w3.org/2000/svg" xmlns:xlink="http://www.w3.org/1999/xlink" x="0px" y="0px"
	 width="22px" height="32px" viewBox="0 0 22 32" enable-background="new 0 0 22 32" xml:space="preserve">
<path fill="#D17F44" d="M17,23h-6H5c-0.553,0-1,0.032-1,1c0,0.969,3,7,3,7c0.266,0.547,0.447,1,1,1h3h3c0.553,0,0.734-0.453,1-1
	c0,0,3-6.031,3-7C18,23.032,17.553,23,17,23z"/>
<path fill="#324D5B" d="M10,17h2v6h-2V17z"/>
<g>
	<g>
		<path fill="#39A28F" d="M18.895,9.242C18.957,8.837,19,8.424,19,8c0-4.418-3.582-8-8-8S3,3.582,3,8
			c0,0.424,0.043,0.837,0.106,1.242C1.308,9.832,0,11.504,0,13.5C0,15.985,2.015,18,4.5,18h13c2.484,0,4.5-2.015,4.5-4.5
			C22,11.504,20.691,9.832,18.895,9.242z"/>
	</g>
	<g>
		<path fill="#39A28F" d="M18.895,9.242C18.957,8.837,19,8.424,19,8c0-4.418-3.582-8-8-8S3,3.582,3,8
			c0,0.424,0.043,0.837,0.106,1.242C1.308,9.832,0,11.504,0,13.5C0,15.985,2.015,18,4.5,18h13c2.484,0,4.5-2.015,4.5-4.5
			C22,11.504,20.691,9.832,18.895,9.242z"/>
	</g>
</g>
<path fill="#3DB39E" d="M15,11.001c0.703-0.848,2.652-1.446,3.898-1.757c-0.002,0-0.004-0.001-0.006-0.002
	C18.957,8.837,19,8.424,19,8c0-4.249-3.316-7.715-7.5-7.975C7.316,0.285,4,3.751,4,8c0,0.424,0.043,0.837,0.106,1.242
	C2.308,9.832,1,11.504,1,13.5C1,15.985,3.015,18,5.5,18h12c2.484,0,4.5-2.015,4.5-4.5c0-1.095-0.402-2.083-1.055-2.858
	C19.84,10.383,17.863,10.204,15,11.001z"/>
<path fill="#BE7440" d="M5,23c-0.553,0-1,0.032-1,1c0,0.969,3,7,3,7c0.266,0.547,0.447,1,1,1h1l-3-9H5z"/>
<path fill="#DFA67C" d="M17,23h-6H5c-0.553,0-1,0.032-1,1c0,0.182,0.105,0.539,0.275,1h13.452C17.896,24.539,18,24.182,18,24
	C18,23.032,17.553,23,17,23z"/>
<path fill="#C8956F" d="M4.051,24.299c0.017,0.067,0.037,0.141,0.062,0.223c0.011,0.033,0.021,0.067,0.033,0.104
	c0.037,0.113,0.079,0.235,0.127,0.368c0,0.002,0.001,0.004,0.002,0.006h2.392L6,23H5c-0.553,0-1,0.032-1,1
	c0,0.055,0.012,0.13,0.03,0.215C4.036,24.24,4.043,24.271,4.051,24.299z"/>
</svg>
