<?xml version="1.0" ?><svg viewBox="0 0 64 64" xmlns="http://www.w3.org/2000/svg"><defs><style>.cls-1{fill:#d6d6d4;}.cls-2{fill:#f35244;}.cls-3{fill:#348fd9;}.cls-4{fill:#feb784;}.cls-5{fill:#44546c;}</style></defs><g data-name="filled outline" id="filled_outline"><path class="cls-1" d="M61.6777,26.23,32.6377,2.19a1.0015,1.0015,0,0,0-1.2754,0L2.3223,26.23A1,1,0,0,0,2.96,28H9V61a1,1,0,0,0,1,1H54a1,1,0,0,0,1-1V28h6.04a1,1,0,0,0,.6377-1.77Z"/><path class="cls-2" d="M26,40H38a5.0059,5.0059,0,0,1,5,5V59H21V45A5.0059,5.0059,0,0,1,26,40Z"/><rect class="cls-3" height="11" width="14" x="25" y="51"/><circle class="cls-4" cx="32" cy="32" r="7"/><path class="cls-5" d="M27.0049,39.707a1,1,0,0,1,1.3193.5088,4.0113,4.0113,0,0,0,7.3516,0,1,1,0,1,1,1.8281.8106,6.0109,6.0109,0,0,1-11.0078,0A1,1,0,0,1,27.0049,39.707Z"/><rect class="cls-5" height="5" width="2" x="31" y="57"/><polygon class="cls-5" points="35 57 33 57 33 56 31 56 31 57 29 57 29 55 35 55 35 57"/><rect class="cls-5" height="1" width="2" x="31" y="56"/><rect class="cls-5" height="13" width="2" x="25" y="46"/><rect class="cls-5" height="13" width="2" x="37" y="46"/><path d="M32,25a7,7,0,1,0,7,7A7.0078,7.0078,0,0,0,32,25Zm0,12a5,5,0,1,1,5-5A5.0059,5.0059,0,0,1,32,37Z"/><path d="M61.6777,26.23,32.6377,2.19a1.0015,1.0015,0,0,0-1.2754,0L2.3223,26.23A1,1,0,0,0,2.96,28H9V61a1,1,0,0,0,1,1H54a1,1,0,0,0,1-1V28h6.04a1,1,0,0,0,.6377-1.77ZM27.0546,42a5.976,5.976,0,0,0,9.8908,0H38a3.0033,3.0033,0,0,1,3,3V57H39V46H37v4H27V46H25V57H23V45a3.0033,3.0033,0,0,1,3-3Zm2.8159,0H34.13a3.9611,3.9611,0,0,1-4.259,0ZM27,52H37v8H33V57h2V55H29v2h2v3H27V52ZM54,26a1,1,0,0,0-1,1V60H39V59h4V45a5.0059,5.0059,0,0,0-5-5H26a5.0059,5.0059,0,0,0-5,5V59h4v1H11V27a1,1,0,0,0-1-1H5.7363L32,4.2583,58.2637,26Z"/></g></svg>